<?xml version="1.0" encoding="UTF-8" standalone="no"?>
<!-- Created with Inkscape (http://www.inkscape.org/) -->

<svg
   xmlns:dc="http://purl.org/dc/elements/1.1/"
   xmlns:cc="http://creativecommons.org/ns#"
   xmlns:rdf="http://www.w3.org/1999/02/22-rdf-syntax-ns#"
   xmlns:svg="http://www.w3.org/2000/svg"
   xmlns="http://www.w3.org/2000/svg"
   xmlns:sodipodi="http://sodipodi.sourceforge.net/DTD/sodipodi-0.dtd"
   xmlns:inkscape="http://www.inkscape.org/namespaces/inkscape"
   width="188.67506mm"
   height="177.88097mm"
   viewBox="0 0 188.67506 177.88097"
   version="1.1"
   id="svg4789"
   inkscape:version="0.92.2 5c3e80d, 2017-08-06"
   sodipodi:docname="logo.svg"
   inkscape:export-filename="/Users/bebatut/Documents/com/StreetScienceCommunity/StreetScienceCommunity.github.io/_resources/logo.png"
   inkscape:export-xdpi="82.718498"
   inkscape:export-ydpi="82.718498">
  <defs
     id="defs4783" />
  <sodipodi:namedview
     id="base"
     pagecolor="#ffffff"
     bordercolor="#666666"
     borderopacity="1.0"
     inkscape:pageopacity="0.0"
     inkscape:pageshadow="2"
     inkscape:zoom="0.7"
     inkscape:cx="409.89451"
     inkscape:cy="248.46027"
     inkscape:document-units="mm"
     inkscape:current-layer="g16"
     showgrid="false"
     showguides="true"
     inkscape:guide-bbox="true"
     inkscape:window-width="1283"
     inkscape:window-height="741"
     inkscape:window-x="0"
     inkscape:window-y="1"
     inkscape:window-maximized="0"
     fit-margin-top="0"
     fit-margin-left="0"
     fit-margin-right="0"
     fit-margin-bottom="0" />
  <metadata
     id="metadata4786">
    <rdf:RDF>
      <cc:Work
         rdf:about="">
        <dc:format>image/svg+xml</dc:format>
        <dc:type
           rdf:resource="http://purl.org/dc/dcmitype/StillImage" />
        <dc:title />
      </cc:Work>
    </rdf:RDF>
  </metadata>
  <g
     inkscape:label="Layer 1"
     inkscape:groupmode="layer"
     id="layer1"
     transform="translate(31.201469,-13.552975)">
    <g
       transform="matrix(1.447283,0,0,1.447283,19.832776,34.106589)"
       id="g16">
      <rect
         style="opacity:1;fill:#323232;fill-opacity:1;stroke:#323232;stroke-width:1.72737467;stroke-linecap:square;stroke-miterlimit:4;stroke-dasharray:none;stroke-dashoffset:0;stroke-opacity:1"
         id="rect9314"
         width="30.817186"
         height="117.26202"
         x="4.5914068"
         y="-13.33783"
         rx="1.4773587"
         ry="1.4773587" />
      <path
         style="fill:#820325;fill-opacity:1;fill-rule:evenodd;stroke:#820325;stroke-width:1.72737467;stroke-linecap:butt;stroke-linejoin:miter;stroke-miterlimit:4;stroke-dasharray:none;stroke-opacity:1"
         d="m 63.47503,-11.231746 c 0.847107,0.11545 1.649552,0.24427 2.132352,0.84546 l 25.770091,31.91617 c 1.837083,2.57991 2.119793,4.42949 0.328145,7.59866 l -21.889584,36.13842 c -0.635928,1.054423 -0.891907,1.244335 -2.351358,1.45278 l -47.805325,3.11483 -48.459674,2.96001 c -0.676591,0.0802 -0.976132,-0.0452 -0.476692,-0.67311 l 19.9778127,-36.80079 c 1.7191903,-2.85732 1.441033,-5.84369 -0.3603615,-8.0682 L -32.964281,-5.2690263 c -0.142071,-0.21767 -0.176118,-0.40832 0.199917,-0.49646 z"
         id="path9312-7"
         inkscape:connector-curvature="0"
         sodipodi:nodetypes="cccccccccccccc" />
      <g
         id="g9333"
         transform="rotate(-2.6780097,-12.757735,83.719742)">
        <path
           sodipodi:nodetypes="cccccccccccccccccccccc"
           inkscape:connector-curvature="0"
           id="path9324"
           d="m 26.139065,1.9624092 11.818869,0.046168 1.523527,6.0479363 3.924234,1.6158621 5.540096,-3.1393886 8.448646,8.448645 -3.231723,5.586264 1.708196,3.831899 6.047938,1.615862 0.138502,11.957371 -6.18644,1.615862 -1.61586,3.924234 3.139387,5.401593 -8.35631,8.587149 -5.355427,-3.139389 -4.247405,1.431191 -4.37129,-10.088983 C 52.204153,38.753418 45.514774,18.684288 33.315504,17.925149 L 33.253014,10.00907 30.886911,9.9561241 C 30.262772,6.4404257 28.047642,4.7318522 25.71331,3.7005668 Z"
           style="fill:#fafaf0;fill-opacity:1;fill-rule:evenodd;stroke:#820325;stroke-width:1.38189971;stroke-linecap:butt;stroke-linejoin:miter;stroke-miterlimit:4;stroke-dasharray:none;stroke-opacity:1" />
        <path
           sodipodi:nodetypes="ccccccccccc"
           inkscape:connector-curvature="0"
           id="path9326"
           d="m 15.089723,11.955769 15.712255,0.117314 v 4.986086 l -4.662913,0.04617 -0.138502,14.727419 11.311028,24.699591 c 1.417115,3.012871 -0.06171,4.481243 -2.308374,5.540096 H 5.2252059 C 3.4990146,61.86573 1.6275927,61.931321 1.8088131,58.148209 L 13.989363,32.651281 Z"
           style="fill:#fafaf0;fill-opacity:1;fill-rule:evenodd;stroke:#820325;stroke-width:1.38189971;stroke-linecap:butt;stroke-linejoin:miter;stroke-miterlimit:4;stroke-dasharray:none;stroke-opacity:1" />
        <path
           sodipodi:nodetypes="ccccccccccc"
           inkscape:connector-curvature="0"
           id="path9328"
           d="M 28.931341,11.955769 C 29.214337,7.7448564 24.33129,2.6326551 18.027802,6.3407727 L 19.636803,5.4788124 C 15.899044,-1.287505 6.7806091,3.4662721 6.9283909,8.3647831 L 7.058973,31.934708 c -0.1497348,4.713074 4.24684,3.633129 3.917439,-0.06529 l 0.06529,-11.752316 0.06529,21.023589 c -0.02944,3.922533 4.055843,3.14769 3.982729,0.391743 V 11.955769 Z"
           style="fill:#fafaf0;fill-opacity:1;fill-rule:evenodd;stroke:#820325;stroke-width:1.38189971;stroke-linecap:butt;stroke-linejoin:miter;stroke-miterlimit:4;stroke-dasharray:none;stroke-opacity:1" />
      </g>
      <flowRoot
         xml:space="preserve"
         id="flowRoot9373"
         style="font-style:normal;font-weight:normal;font-size:53.33333206px;line-height:100%;font-family:sans-serif;text-align:start;letter-spacing:0px;word-spacing:0px;text-anchor:start;fill:#323232;fill-opacity:1;stroke:none;stroke-width:1px;stroke-linecap:butt;stroke-linejoin:miter;stroke-opacity:1"
         transform="matrix(0.17407208,0,0,0.17407208,-42.198998,-15.15592)"><flowRegion
           id="flowRegion9375"
           style="line-height:100%;text-align:start;text-anchor:start;fill:#323232;fill-opacity:1"><rect
             id="rect9377"
             width="460"
             height="330"
             x="470"
             y="510.8775"
             style="line-height:100%;text-align:start;text-anchor:start;fill:#323232;fill-opacity:1" /></flowRegion><flowPara
           id="flowPara9379"
           style="font-style:normal;font-variant:normal;font-weight:normal;font-stretch:normal;line-height:100%;font-family:'Fresh Marker';-inkscape-font-specification:'Fresh Marker';fill:#323232;fill-opacity:1">Street</flowPara><flowPara
           id="flowPara9381"
           style="font-style:normal;font-variant:normal;font-weight:normal;font-stretch:normal;line-height:100%;font-family:'Fresh Marker';-inkscape-font-specification:'Fresh Marker';fill:#323232;fill-opacity:1">Science</flowPara><flowPara
           id="flowPara9383"
           style="font-style:normal;font-variant:normal;font-weight:normal;font-stretch:normal;line-height:100%;font-family:'Fresh Marker';-inkscape-font-specification:'Fresh Marker';fill:#323232;fill-opacity:1">Community</flowPara></flowRoot>    </g>
  </g>
</svg>
