<?xml version="1.0" encoding="UTF-8" standalone="no"?>
<!-- Created with Inkscape (http://www.inkscape.org/) -->

<svg
   xmlns:dc="http://purl.org/dc/elements/1.1/"
   xmlns:cc="http://creativecommons.org/ns#"
   xmlns:rdf="http://www.w3.org/1999/02/22-rdf-syntax-ns#"
   xmlns:svg="http://www.w3.org/2000/svg"
   xmlns="http://www.w3.org/2000/svg"
   xmlns:sodipodi="http://sodipodi.sourceforge.net/DTD/sodipodi-0.dtd"
   xmlns:inkscape="http://www.inkscape.org/namespaces/inkscape"
   width="211.02252mm"
   height="81.165443mm"
   viewBox="0 0 211.02252 81.165443"
   version="1.1"
   id="svg1434"
   inkscape:version="0.92.4 (33fec40, 2019-01-16)"
   sodipodi:docname="brewing_2.svg">
  <defs
     id="defs1428">
    <marker
       inkscape:stockid="TriangleOutL"
       orient="auto"
       refY="0"
       refX="0"
       id="TriangleOutL"
       style="overflow:visible"
       inkscape:isstock="true">
      <path
         id="path3005"
         d="M 5.77,0 -2.88,5 V -5 Z"
         style="fill:#000000;fill-opacity:1;fill-rule:evenodd;stroke:#000000;stroke-width:1.00000003pt;stroke-opacity:1"
         transform="scale(0.8)"
         inkscape:connector-curvature="0" />
    </marker>
    <marker
       inkscape:stockid="Arrow2Lend"
       orient="auto"
       refY="0"
       refX="0"
       id="Arrow2Lend"
       style="overflow:visible"
       inkscape:isstock="true">
      <path
         id="path2884"
         style="fill:#000000;fill-opacity:1;fill-rule:evenodd;stroke:#000000;stroke-width:0.625;stroke-linejoin:round;stroke-opacity:1"
         d="M 8.7185878,4.0337352 -2.2072895,0.01601326 8.7185884,-4.0017078 c -1.7454984,2.3720609 -1.7354408,5.6174519 -6e-7,8.035443 z"
         transform="matrix(-1.1,0,0,-1.1,-1.1,0)"
         inkscape:connector-curvature="0" />
    </marker>
    <clipPath
       clipPathUnits="userSpaceOnUse"
       id="clipPath2484">
      <path
         style="fill:#000000;fill-opacity:1;stroke:none;stroke-width:1;stroke-linecap:round;stroke-linejoin:round;stroke-miterlimit:4;stroke-dasharray:none"
         d="m 120.08754,42.45918 h 3.40769 v 3.591433 h -3.40769 z"
         id="path2486"
         inkscape:connector-curvature="0" />
    </clipPath>
    <marker
       inkscape:stockid="TriangleOutL"
       orient="auto"
       refY="0"
       refX="0"
       id="TriangleOutL-4"
       style="overflow:visible"
       inkscape:isstock="true">
      <path
         inkscape:connector-curvature="0"
         id="path3005-1"
         d="M 5.77,0 -2.88,5 V -5 Z"
         style="fill:#000000;fill-opacity:1;fill-rule:evenodd;stroke:#000000;stroke-width:1.00000003pt;stroke-opacity:1"
         transform="scale(0.8)" />
    </marker>
  </defs>
  <sodipodi:namedview
     id="base"
     pagecolor="#ffffff"
     bordercolor="#666666"
     borderopacity="1.0"
     inkscape:pageopacity="0.0"
     inkscape:pageshadow="2"
     inkscape:zoom="0.98994949"
     inkscape:cx="334.22198"
     inkscape:cy="254.82282"
     inkscape:document-units="mm"
     inkscape:current-layer="layer1"
     showgrid="false"
     inkscape:window-width="1853"
     inkscape:window-height="1025"
     inkscape:window-x="3907"
     inkscape:window-y="27"
     inkscape:window-maximized="1"
     showguides="false"
     fit-margin-top="0"
     fit-margin-left="0"
     fit-margin-right="0"
     fit-margin-bottom="0" />
  <metadata
     id="metadata1431">
    <rdf:RDF>
      <cc:Work
         rdf:about="">
        <dc:format>image/svg+xml</dc:format>
        <dc:type
           rdf:resource="http://purl.org/dc/dcmitype/StillImage" />
        <dc:title></dc:title>
      </cc:Work>
    </rdf:RDF>
  </metadata>
  <g
     inkscape:label="Layer 1"
     inkscape:groupmode="layer"
     id="layer1"
     transform="translate(-12.495893,-9.6466182)">
    <g
       id="g2827">
      <g
         transform="translate(-1.1159157,-4.6302083)"
         id="g1651">
        <path
           style="fill:#795548;stroke:none;stroke-width:0.00292066"
           inkscape:connector-curvature="0"
           d="m 35.703841,18.730109 c -0.227812,0.268701 -0.744769,1.515823 -1.036835,2.488402 -0.382606,1.285091 -0.584132,2.470879 -0.639624,3.747207 -0.07594,1.740714 0.201525,3.148472 0.788578,3.998384 0.195684,0.283304 0.420575,0.481909 0.695117,0.61918 0.192764,0.09638 0.245336,0.108064 0.438099,0.108064 0.189843,0 0.242415,-0.01168 0.359241,-0.07886 0.248256,-0.148953 0.435179,-0.420575 0.540322,-0.785657 0.04381,-0.157716 0.05257,-0.294987 0.04965,-0.887881 -0.0058,-1.451568 -0.148954,-1.81373 -1.19455,-3.00828 -0.420575,-0.481909 -0.718483,-0.870356 -0.823626,-1.074803 -0.134351,-0.2687 -0.125589,-0.914166 0.02336,-1.81665 0.0847,-0.52864 0.210287,-0.981342 0.470226,-1.708586 0.338797,-0.946294 0.461464,-1.334742 0.481909,-1.527505 0.02045,-0.198605 -0.02629,-0.221971 -0.151874,-0.07302 z"
           id="path5033" />
        <path
           style="fill:#795548;stroke:none;stroke-width:0.00292066"
           inkscape:connector-curvature="0"
           d="m 29.558772,20.324789 c -0.110985,0.408893 -0.143112,2.316084 -0.05257,3.028725 0.06425,0.502353 0.06133,1.162423 -0.0088,1.971445 -0.07302,0.84115 -0.07302,1.375631 0,1.986049 0.07302,0.616259 0.07302,1.223757 0,2.073669 -0.07302,0.835309 -0.07302,1.375631 0,1.986049 0.07302,0.613338 0.07302,1.209153 0,2.015255 -0.07302,0.803182 -0.07302,1.396075 0,2.044462 0.07302,0.648387 0.07302,1.250042 0,2.015255 -0.07594,0.779817 -0.07594,1.398997 0,2.029859 0.07302,0.627942 0.07302,1.139058 0,1.971446 -0.0701,0.782736 -0.07302,1.37271 -0.0146,1.90427 0.02921,0.262859 0.04089,0.674672 0.04089,1.279249 -0.0029,1.156581 0.03797,1.749475 0.268701,3.899081 0.116826,1.080644 0.13143,1.159502 0.321272,1.766999 0.435179,1.375631 1.270488,3.125107 1.948081,4.06848 0.318352,0.446861 1.001786,1.109851 1.358107,1.320138 0.163557,0.09346 0.66591,0.227812 0.870356,0.227812 0.280384,0.0029 0.476068,-0.154795 0.601656,-0.476068 0.07302,-0.192764 0.07302,-0.785658 -0.0029,-1.080644 -0.169399,-0.665911 -0.48483,-1.220836 -1.030993,-1.807889 -0.505275,-0.543242 -1.159502,-1.022231 -1.626808,-1.191629 -0.06717,-0.02336 -0.224891,-0.05841 -0.356321,-0.08178 -0.303748,-0.04965 -0.452702,-0.125589 -0.671751,-0.35048 -0.887881,-0.905404 -1.334742,-2.602308 -1.486616,-5.636873 l -0.0146,-0.321273 0.157716,0.613339 c 0.245335,0.963817 0.478988,1.626807 0.88496,2.511767 0.768134,1.685221 1.866302,3.133868 2.681166,3.542761 0.327114,0.163557 0.467305,0.195684 0.832388,0.195684 0.420575,0 0.53156,-0.04381 0.625021,-0.245336 0.05549,-0.119747 0.06133,-0.184001 0.05841,-0.587052 -0.0029,-0.391369 -0.01168,-0.493592 -0.07886,-0.744769 -0.140192,-0.528639 -0.464385,-1.104009 -0.955056,-1.68522 -0.388448,-0.467306 -0.771054,-0.756451 -1.387314,-1.057279 -0.338796,-0.163557 -0.613338,-0.26286 -0.832388,-0.297908 -0.113906,-0.01752 -0.160636,-0.04965 -0.350479,-0.242414 -0.122668,-0.122668 -0.300828,-0.341718 -0.394289,-0.48483 -0.359241,-0.546163 -0.817785,-1.55087 -0.960897,-2.108716 -0.09638,-0.370924 -0.224891,-1.790365 -0.268701,-2.932343 -0.02045,-0.563687 0,-0.727244 0.06425,-0.493592 0.02044,0.07302 0.128509,0.478989 0.242414,0.905405 0.344638,1.302614 0.589974,1.977287 1.028073,2.862247 0.426416,0.858674 0.890801,1.542108 1.434044,2.117478 0.674672,0.712641 1.247122,1.007628 1.883825,0.969659 0.455623,-0.02629 0.569529,-0.154795 0.587053,-0.657148 0.02336,-0.557846 -0.09638,-1.045596 -0.391368,-1.609284 C 34.32527,45.083222 34.053649,44.71814 33.65936,44.323851 33.098593,43.763084 32.575795,43.43597 31.953694,43.25781 c -0.519877,-0.148954 -0.572449,-0.195684 -0.995945,-0.876198 -0.861595,-1.387314 -1.092327,-2.16713 -1.19747,-4.015908 -0.03505,-0.627942 -0.06133,-1.615125 -0.04381,-1.577156 0.0058,0.0146 0.08762,0.277463 0.175239,0.584132 0.779817,2.663642 1.235439,3.697555 2.143765,4.871661 0.625021,0.806102 1.118613,1.235439 1.63849,1.422361 0.160636,0.05841 0.248256,0.0701 0.554925,0.0701 0.312511,0.0029 0.382607,-0.0058 0.481909,-0.05841 0.198605,-0.102223 0.233653,-0.210288 0.233653,-0.727244 -0.0029,-0.499433 -0.04965,-0.727245 -0.245335,-1.182868 -0.248256,-0.57829 -0.57245,-1.039755 -1.068962,-1.533346 -0.522798,-0.519878 -1.06312,-0.846992 -1.699824,-1.030993 -0.516957,-0.148954 -0.581211,-0.210288 -1.141978,-1.068962 -0.44102,-0.668831 -0.610418,-1.042675 -0.75061,-1.63849 -0.186922,-0.803182 -0.280383,-1.729031 -0.318352,-3.227329 l -0.01752,-0.569529 0.06133,0.204446 c 0.03213,0.110985 0.146033,0.514036 0.251177,0.890801 0.368003,1.317218 0.651307,2.102876 1.0602,2.935264 0.563687,1.141978 1.498298,2.295638 2.190495,2.70161 0.327114,0.192764 0.511115,0.242415 0.993024,0.254098 0.522798,0.0146 0.546163,0.0058 0.633783,-0.254098 0.157716,-0.464385 0.04381,-1.305535 -0.259939,-1.913032 -0.563687,-1.118613 -1.670617,-2.059065 -2.768785,-2.356973 -0.119747,-0.03213 -0.271622,-0.09346 -0.332955,-0.13435 -0.242415,-0.163557 -0.83823,-0.97258 -1.121534,-1.518743 -0.306669,-0.589974 -0.511115,-1.489537 -0.616259,-2.707452 -0.03213,-0.359241 -0.09346,-1.752396 -0.08762,-2.015256 l 0.0029,-0.146033 0.05549,0.204447 c 0.648387,2.313162 0.83823,2.859326 1.331821,3.840668 0.382607,0.762292 0.756451,1.320138 1.273408,1.90427 0.476068,0.534481 0.88496,0.870357 1.305535,1.071882 0.569529,0.277463 1.004707,0.207367 1.203312,-0.192763 0.06133,-0.128509 0.06717,-0.178161 0.06717,-0.563688 0,-0.376765 -0.0088,-0.455623 -0.0847,-0.715561 -0.108064,-0.388448 -0.379686,-0.931691 -0.622101,-1.255884 -0.254097,-0.338797 -0.736006,-0.835309 -1.071882,-1.109851 -0.519877,-0.420575 -0.97258,-0.660069 -1.349345,-0.712641 -0.113906,-0.01752 -0.230732,-0.05549 -0.283304,-0.09346 -0.148953,-0.102223 -0.35632,-0.359241 -0.66591,-0.823626 -0.835309,-1.247122 -1.086486,-2.29856 -1.153661,-4.807407 -0.01168,-0.484829 -0.0088,-0.70972 0.01168,-0.689276 0.03213,0.03213 0.102223,0.271622 0.341717,1.168265 0.525719,1.959762 1.15074,3.300345 2.091192,4.489054 0.639625,0.803181 1.358107,1.331821 1.942239,1.428203 0.17524,0.02921 0.230732,0.02629 0.370924,-0.0146 0.356321,-0.102223 0.493592,-0.347558 0.490671,-0.861594 -0.0029,-0.373845 -0.03797,-0.57245 -0.166478,-0.966739 -0.195684,-0.592894 -0.53448,-1.104009 -1.121533,-1.696903 -0.695117,-0.703879 -1.3289,-1.10401 -1.877984,-1.19455 -0.221971,-0.03505 -0.3534,-0.125589 -0.595815,-0.408893 -0.438099,-0.511115 -0.826547,-1.19747 -1.025152,-1.81665 -0.297907,-0.914167 -0.426416,-1.842937 -0.473147,-3.382124 -0.02629,-0.92877 -0.04673,-1.185788 -0.09054,-1.214995 -0.01168,-0.0058 -0.03797,0.03797 -0.05257,0.0993 z"
           id="path5035" />
        <path
           style="fill:#795548;stroke:none;stroke-width:0.00292066"
           inkscape:connector-curvature="0"
           d="m 37.850526,20.473743 c -0.04673,0.08762 -0.03797,0.143112 0.105144,0.788578 0.169398,0.765213 0.213208,1.089407 0.236573,1.740714 0.03505,1.013469 -0.08178,1.951001 -0.420575,3.382124 -0.184002,0.776896 -0.186922,0.75061 0.04965,0.75061 0.216129,0 0.294987,-0.08762 0.458544,-0.522799 0.204446,-0.540322 0.461464,-2.164209 0.496512,-3.09882 0.02044,-0.654228 -0.01168,-0.876198 -0.403051,-2.716214 -0.03505,-0.169398 -0.07594,-0.324193 -0.09346,-0.344637 -0.01752,-0.02045 -0.0993,-0.03505 -0.213208,-0.03505 -0.151875,0 -0.189843,0.0088 -0.216129,0.05549 z"
           id="path5037" />
        <path
           style="fill:#795548;stroke:none;stroke-width:0.00292066"
           inkscape:connector-curvature="0"
           d="m 32.158159,20.762888 c -0.05549,0.04089 -0.09346,0.192764 -0.251176,0.981342 -0.286225,1.422362 -0.292066,1.45741 -0.292066,2.208019 0,0.478988 0.0146,0.756451 0.05257,1.019311 0.09054,0.616259 0.192763,1.092326 0.248256,1.171184 0.0701,0.09054 0.201525,0.125589 0.376765,0.09638 0.175239,-0.02921 0.181081,-0.05257 0.0993,-0.560767 -0.163557,-1.028072 -0.227811,-2.003572 -0.17816,-2.727896 0.04089,-0.61918 0.105144,-0.952135 0.292066,-1.54795 0.07886,-0.254097 0.146033,-0.48775 0.146033,-0.519877 0,-0.02921 -0.02629,-0.08178 -0.05841,-0.113906 -0.07886,-0.07886 -0.344638,-0.08178 -0.435179,-0.0058 z"
           id="path5039" />
        <path
           style="fill:#795548;stroke:none;stroke-width:0.00292066"
           inkscape:connector-curvature="0"
           d="m 40.540454,23.411927 c -0.01752,0.07302 -0.06133,0.417654 -0.09346,0.768134 -0.148954,1.600521 -0.274543,2.006493 -1.165344,3.788096 l -0.511115,1.022231 -0.30959,0.04673 c -0.394289,0.06133 -0.566608,0.113906 -0.873278,0.259939 -0.861594,0.417654 -1.699824,1.232519 -2.111637,2.059065 -0.224891,0.446861 -0.259939,0.601656 -0.277462,1.159502 -0.02044,0.762293 0.02337,0.937532 0.26578,1.054359 0.239494,0.119747 0.849912,0.04673 1.226677,-0.146033 0.756451,-0.379686 1.632649,-1.509982 2.578943,-3.323711 0.654227,-1.258805 1.051437,-2.590626 1.252963,-4.220354 0.13435,-1.086486 0.17816,-2.599388 0.07302,-2.599388 -0.01168,0 -0.03797,0.05841 -0.05549,0.13143 z"
           id="path5041" />
        <path
           style="fill:#795548;stroke:none;stroke-width:0.00292066"
           inkscape:connector-curvature="0"
           d="m 50.310061,26.808655 c -0.03505,0.05841 -0.0993,0.683434 -0.148953,1.422361 -0.140192,2.196336 -0.657149,3.612857 -1.46033,4.001304 -0.07886,0.03797 -0.236574,0.0847 -0.347559,0.102223 -0.368003,0.05841 -0.806102,0.277463 -1.258804,0.627942 -0.514036,0.400131 -0.917088,1.045597 -1.051438,1.6823 -0.09054,0.423496 -0.04673,0.762293 0.122668,0.960898 0.157715,0.184001 0.303748,0.245335 0.566608,0.248256 0.201525,0 0.242415,-0.01168 0.467305,-0.122668 0.335876,-0.169398 0.595815,-0.370924 0.975501,-0.75353 0.385527,-0.388448 0.604577,-0.689276 0.814864,-1.115692 0.446861,-0.902484 1.01639,-2.444593 1.153661,-3.128027 0.131429,-0.636704 0.207367,-1.612205 0.227811,-2.838882 0.0146,-0.911246 -0.0029,-1.182867 -0.06133,-1.086485 z"
           id="path5043" />
        <path
           style="fill:#795548;stroke:none;stroke-width:0.00292066"
           inkscape:connector-curvature="0"
           d="m 40.587184,27.357739 c -0.04381,0.07594 -0.0847,0.321272 -0.137271,0.867436 -0.09054,0.949214 -0.189843,1.492457 -0.394289,2.120399 -0.268701,0.829467 -0.811943,1.886746 -1.220836,2.377417 -0.13435,0.160636 -0.268701,0.239494 -0.467305,0.26286 -0.461465,0.06133 -1.261726,0.563687 -1.875064,1.174105 -0.657149,0.654228 -1.118613,1.387313 -1.288011,2.050303 -0.137271,0.525719 -0.05549,1.206233 0.157715,1.346424 0.06426,0.04089 0.148954,0.04965 0.502354,0.04965 0.382606,-0.0029 0.44394,-0.0088 0.636704,-0.07886 0.30959,-0.110985 0.505274,-0.239494 0.803181,-0.519878 0.835309,-0.788578 1.915953,-2.546815 2.47672,-4.03051 0.446861,-1.179947 0.665911,-2.175892 0.817785,-3.738445 0.04381,-0.467306 0.0701,-1.790365 0.03505,-1.854619 -0.01752,-0.02629 -0.03797,-0.04089 -0.04673,-0.02629 z"
           id="path5045" />
        <path
           style="fill:#795548;stroke:none;stroke-width:0.00292066"
           inkscape:connector-curvature="0"
           d="m 19.929356,27.530058 c -0.03213,0.175239 0.0088,1.959763 0.05841,2.546815 0.09346,1.086486 0.17524,1.489537 0.461465,2.330687 0.353399,1.039755 0.820705,2.111637 1.115692,2.555577 0.397209,0.595815 1.200391,1.311377 1.664776,1.486616 0.341717,0.128509 0.733085,0.04673 0.911246,-0.189843 0.283304,-0.370923 0.17816,-1.136136 -0.26578,-1.892587 -0.148954,-0.257018 -0.601656,-0.721403 -0.890802,-0.914167 -0.40013,-0.268701 -0.771054,-0.432257 -1.068961,-0.473147 -0.274542,-0.04089 -0.435179,-0.131429 -0.698038,-0.394289 -0.327114,-0.330034 -0.534481,-0.744768 -0.741848,-1.480774 -0.204446,-0.733086 -0.289145,-1.337663 -0.368003,-2.56434 -0.06133,-0.940452 -0.122667,-1.296773 -0.17816,-1.010548 z"
           id="path5047" />
        <path
           style="fill:#795548;stroke:none;stroke-width:0.00292066"
           inkscape:connector-curvature="0"
           d="m 47.745722,28.368287 c -0.373845,0.201526 -0.572449,0.458544 -0.931691,1.206233 -0.449781,0.934611 -1.077723,2.824278 -1.127374,3.390886 -0.0146,0.163557 -0.0088,0.184002 0.05257,0.227811 0.03797,0.02629 0.116827,0.04673 0.17524,0.04673 0.102223,0 0.110985,-0.0088 0.154795,-0.125588 0.02336,-0.06718 0.06426,-0.233653 0.09054,-0.370924 0.265781,-1.384393 0.698038,-2.511768 1.355187,-3.542761 0.338796,-0.528639 0.48775,-0.809023 0.461464,-0.879118 -0.02336,-0.06133 -0.03797,-0.06133 -0.230732,0.04673 z"
           id="path5049" />
        <path
           style="fill:#795548;stroke:none;stroke-width:0.00292066"
           inkscape:connector-curvature="0"
           d="m 22.078962,28.969943 -0.06425,0.05257 0.08762,0.17524 c 0.04673,0.09346 0.259939,0.414733 0.473147,0.712641 0.213208,0.297907 0.449782,0.648386 0.528639,0.782736 0.455623,0.768134 0.771055,1.582998 1.004707,2.587705 0.151875,0.654228 0.146033,0.648387 0.321273,0.613339 0.227812,-0.04089 0.236574,-0.143113 0.07594,-0.779816 -0.39721,-1.550871 -1.305535,-3.592412 -1.787444,-4.001305 -0.207367,-0.18108 -0.511115,-0.248256 -0.639624,-0.143112 z"
           id="path5051" />
        <path
           style="fill:#795548;stroke:none;stroke-width:0.00292066"
           inkscape:connector-curvature="0"
           d="m 51.966076,30.63764 c -0.0993,0.160636 -0.186923,0.446861 -0.213209,0.698038 -0.0701,0.660069 -0.493591,1.521664 -1.296773,2.643197 -0.175239,0.242415 -0.330034,0.473147 -0.347558,0.511115 -0.04089,0.09054 0.02921,0.154795 0.239494,0.221971 0.198605,0.06133 0.259939,0.02921 0.362162,-0.192764 0.03797,-0.0847 0.248256,-0.464385 0.464385,-0.84115 0.438099,-0.762292 0.592894,-1.0602 0.727244,-1.393155 0.201526,-0.505274 0.289145,-0.882039 0.297907,-1.270487 0.0058,-0.242415 0.0029,-0.257018 -0.07886,-0.341717 -0.102224,-0.105144 -0.108065,-0.108065 -0.154795,-0.03505 z"
           id="path5053" />
        <path
           style="fill:#795548;stroke:none;stroke-width:0.00292066"
           inkscape:connector-curvature="0"
           d="m 44.568044,30.979357 c -0.05257,0.07302 -0.128509,0.213208 -0.17524,0.312511 -0.254097,0.560766 -0.610418,2.722055 -0.613338,3.700476 0,0.955056 0.289145,2.275194 0.660069,3.014121 0.242415,0.481909 0.478988,0.651307 0.876198,0.630863 0.414733,-0.02044 0.598735,-0.251177 0.657148,-0.826547 0.04673,-0.44394 0.01752,-1.486616 -0.04673,-1.737793 -0.110985,-0.426416 -0.443941,-0.993024 -0.934611,-1.577156 -0.3534,-0.423496 -0.478989,-0.665911 -0.502354,-0.969659 -0.02629,-0.344638 0.06718,-1.366869 0.198605,-2.193416 0.08178,-0.519877 0.05257,-0.607497 -0.119747,-0.3534 z"
           id="path5055" />
        <path
           style="fill:#795548;stroke:none;stroke-width:0.00292066"
           inkscape:connector-curvature="0"
           d="m 18.238294,31.221772 c -0.157716,0.03213 -0.189843,0.207367 -0.13143,0.674672 0.08762,0.66299 0.332955,1.255884 0.984263,2.380338 0.17816,0.30667 0.376765,0.660069 0.441019,0.788578 0.160637,0.318352 0.198605,0.3534 0.373845,0.30959 0.192763,-0.04965 0.303748,-0.110985 0.303748,-0.172318 0,-0.02921 -0.128509,-0.236574 -0.286224,-0.458544 -0.557846,-0.79442 -0.975501,-1.615125 -1.232519,-2.421227 -0.110985,-0.347559 -0.175239,-0.657149 -0.175239,-0.844071 0,-0.245335 -0.06425,-0.303749 -0.277463,-0.257018 z"
           id="path5057" />
        <path
           style="fill:#795548;stroke:none;stroke-width:0.00292066"
           inkscape:connector-curvature="0"
           d="m 40.534612,31.461266 c -0.01752,0.03797 -0.04381,0.280383 -0.05841,0.549084 -0.03505,0.674673 -0.09346,1.054358 -0.262859,1.72611 -0.21905,0.879119 -0.581212,1.743634 -1.077724,2.573102 -0.300828,0.505274 -0.385527,0.584132 -0.718482,0.683434 -0.730165,0.21905 -1.191629,0.478988 -1.781603,1.001786 -0.9755,0.867436 -1.483695,1.85754 -1.483695,2.897295 0,0.259939 0.0088,0.327114 0.06425,0.443941 0.09638,0.195684 0.184002,0.230732 0.625022,0.230732 0.698037,0 1.004707,-0.116827 1.46033,-0.554926 0.800261,-0.765213 1.740713,-2.234305 2.356972,-3.67419 0.408893,-0.957977 0.657149,-1.99189 0.876198,-3.659587 0.13143,-0.987183 0.186923,-1.962684 0.122668,-2.187574 -0.02629,-0.09638 -0.07886,-0.108065 -0.122668,-0.02921 z"
           id="path5059" />
        <path
           style="fill:#795548;stroke:none;stroke-width:0.00292066"
           inkscape:connector-curvature="0"
           d="m 25.56623,31.525521 c -0.0088,0.02629 0.0146,0.277462 0.05841,0.552004 0.09054,0.613339 0.125588,0.917088 0.163557,1.407758 0.0701,0.922929 0.02921,1.057279 -0.528639,1.720269 -0.388448,0.461464 -0.736007,1.030993 -0.855754,1.407758 -0.137271,0.435179 -0.146033,1.796206 -0.0146,2.234305 0.05841,0.192764 0.227811,0.362162 0.423496,0.423496 0.143112,0.04381 0.192763,0.04673 0.341717,0.02045 0.09346,-0.01752 0.227811,-0.06718 0.297907,-0.108065 0.546164,-0.318352 1.10693,-2.289797 1.057279,-3.723841 -0.04089,-1.156582 -0.388448,-3.092979 -0.651307,-3.609936 -0.122668,-0.248256 -0.26286,-0.400131 -0.292066,-0.324193 z"
           id="path5061" />
        <path
           style="fill:#795548;stroke:none;stroke-width:0.00292066"
           inkscape:connector-curvature="0"
           d="m 53.376754,32.813532 c -0.05549,0.05549 -0.242414,0.289145 -0.414733,0.519877 -0.48483,0.639625 -1.381473,1.512902 -1.81373,1.764079 -0.22197,0.131429 -0.388448,0.157715 -1.177026,0.186922 -0.79442,0.02629 -1.165344,0.07886 -1.527505,0.216129 -0.756451,0.283304 -1.542109,0.899563 -1.787444,1.398996 -0.248256,0.502353 -0.09346,0.861595 0.426416,0.998866 0.227812,0.06133 0.493592,0.05257 0.844071,-0.02629 0.674672,-0.151875 1.343503,-0.467306 2.000652,-0.934611 0.963818,-0.689276 2.456275,-2.243067 3.116344,-3.244854 0.213208,-0.327114 0.519878,-0.879118 0.519878,-0.937532 0,-0.0701 -0.08178,-0.04381 -0.186923,0.05841 z"
           id="path5063" />
        <path
           style="fill:#795548;stroke:none;stroke-width:0.00292066"
           inkscape:connector-curvature="0"
           d="m 43.350129,33.397664 c -0.297908,0.251176 -0.727245,2.041541 -0.917088,3.843588 -0.192763,1.790365 0.330035,3.875716 1.077724,4.316736 0.119747,0.06717 0.169398,0.07886 0.373844,0.07886 0.204447,0 0.248256,-0.0088 0.3534,-0.07886 0.30959,-0.204447 0.449782,-0.645466 0.449782,-1.407758 0,-0.922929 -0.189843,-1.401917 -1.042676,-2.660722 -0.455623,-0.668831 -0.563687,-0.957976 -0.566608,-1.492457 0,-0.315431 0.04089,-0.622101 0.236574,-1.761158 0.07886,-0.470226 0.140191,-0.870357 0.137271,-0.88496 -0.0058,-0.01752 -0.05257,0.0058 -0.102223,0.04673 z"
           id="path5065" />
        <path
           style="fill:#795548;stroke:none;stroke-width:0.00292066"
           inkscape:connector-curvature="0"
           d="m 16.748757,33.385981 c -0.03213,0.04965 0.02044,0.186922 0.201526,0.540322 0.262859,0.502354 0.595814,1.033914 0.727244,1.153661 0.06425,0.05549 0.537402,0.525719 1.054358,1.042675 1.212074,1.212074 1.699825,1.597601 2.543895,2.009414 0.651307,0.315432 1.200392,0.464385 1.661856,0.446861 0.251177,-0.0088 0.321272,-0.02336 0.461464,-0.09054 0.312511,-0.151874 0.411813,-0.362162 0.332955,-0.686355 -0.09638,-0.391369 -0.382606,-0.744768 -0.893722,-1.10693 -0.353399,-0.254098 -0.914166,-0.534481 -1.220835,-0.61918 -0.283305,-0.07886 -0.645466,-0.113906 -1.436965,-0.148954 -0.744769,-0.02921 -0.867436,-0.05549 -1.127375,-0.236573 -0.505274,-0.3534 -1.296773,-1.144899 -1.758237,-1.755317 -0.254098,-0.338796 -0.470227,-0.578291 -0.516957,-0.578291 -0.0058,0 -0.01752,0.01168 -0.02921,0.02921 z"
           id="path5067" />
        <path
           style="fill:#795548;stroke:none;stroke-width:0.00292066"
           inkscape:connector-curvature="0"
           d="m 26.839638,34.013923 c 0,0.02629 0.06425,0.423496 0.146033,0.88496 0.254097,1.457409 0.283304,1.845857 0.17816,2.260591 -0.07594,0.297907 -0.184002,0.502353 -0.549084,1.042675 -0.829468,1.229598 -1.007628,1.691062 -1.004707,2.631515 0.0029,0.97258 0.274542,1.472013 0.806102,1.472013 0.569529,0 1.025152,-0.686355 1.311376,-1.968525 0.259939,-1.174106 0.233653,-2.30148 -0.102223,-4.091845 -0.239494,-1.293852 -0.493591,-2.073668 -0.724324,-2.234305 -0.05549,-0.04089 -0.06133,-0.03797 -0.06133,0.0029 z"
           id="path5069" />
        <path
           style="fill:#795548;stroke:none;stroke-width:0.00292066"
           inkscape:connector-curvature="0"
           d="m 52.281507,35.06536 c -0.08178,0.09054 -0.335876,0.443941 -0.563688,0.782737 -0.791498,1.185788 -1.214994,1.688142 -1.673538,1.99189 -0.511115,0.338797 -0.718482,0.385528 -1.828333,0.420576 -0.960897,0.02629 -1.045596,0.04381 -1.539188,0.292066 -1.19455,0.598735 -1.915953,1.656014 -1.431123,2.094113 0.230732,0.210287 0.648386,0.22197 1.390234,0.03797 1.480775,-0.365082 2.914819,-1.375631 4.141496,-2.917739 0.846991,-1.06312 1.819571,-2.701611 1.685221,-2.835961 -0.02044,-0.02044 -0.07886,0.02336 -0.181081,0.13435 z"
           id="path5071" />
        <path
           style="fill:#795548;stroke:none;stroke-width:0.00292066"
           inkscape:connector-curvature="0"
           d="m 40.511247,35.605683 c -0.01752,0.08178 -0.03213,0.236573 -0.03213,0.344637 0,0.595815 -0.22197,1.822492 -0.470226,2.599388 -0.236574,0.730165 -0.978422,2.094113 -1.273408,2.339449 -0.06717,0.05549 -0.186922,0.108064 -0.341717,0.148953 -0.452703,0.119747 -0.747689,0.251177 -1.127375,0.505274 -0.937532,0.622101 -1.752396,1.658935 -2.03278,2.576022 -0.137271,0.452703 -0.108064,1.19455 0.05841,1.401917 l 0.07009,0.08762 0.464385,-0.0029 c 0.744769,-0.0029 1.030993,-0.105143 1.46033,-0.516956 0.61918,-0.595815 1.220836,-1.507061 1.977287,-2.999518 0.57537,-1.133216 0.762292,-1.623887 0.966739,-2.555578 0.324193,-1.46033 0.549084,-3.609935 0.420575,-3.98378 -0.04673,-0.13435 -0.105144,-0.113906 -0.140192,0.05549 z"
           id="path5073" />
        <path
           style="fill:#795548;stroke:none;stroke-width:0.00292066"
           inkscape:connector-curvature="0"
           d="m 17.814798,35.634889 c 0,0.292066 0.969659,1.866302 1.764079,2.862247 0.376765,0.473147 1.168264,1.258804 1.600522,1.59176 0.990103,0.762292 2.056144,1.23836 3.063772,1.363948 0.478988,0.05841 0.800261,-0.04089 0.917087,-0.286225 0.07594,-0.157715 0.04673,-0.414733 -0.06717,-0.645466 -0.257018,-0.508194 -0.803182,-0.984262 -1.527505,-1.337662 -0.496512,-0.239494 -0.552005,-0.248256 -1.559633,-0.277463 -0.955056,-0.02629 -1.033913,-0.04089 -1.401917,-0.216128 -0.651307,-0.30667 -1.042675,-0.724324 -1.965604,-2.099955 -0.508195,-0.75353 -0.70972,-1.013469 -0.782737,-1.013469 -0.02336,0 -0.04089,0.02629 -0.04089,0.05841 z"
           id="path5075" />
        <path
           style="fill:#795548;stroke:none;stroke-width:0.00292066"
           inkscape:connector-curvature="0"
           d="m 41.7204,36.911218 c -0.236573,0.566608 -0.484829,1.521663 -0.595814,2.30148 -0.35048,2.432909 0.146033,4.786961 1.112771,5.26887 0.403051,0.201526 0.712641,0.06425 0.870357,-0.385527 0.143112,-0.405972 0.184001,-1.042675 0.102223,-1.521664 -0.122668,-0.698037 -0.534481,-1.55087 -1.089406,-2.26059 -0.26286,-0.330035 -0.341718,-0.461465 -0.411813,-0.668832 -0.125589,-0.370923 -0.110985,-0.765213 0.07302,-1.863381 0.128509,-0.776895 0.154795,-1.124454 0.09054,-1.124454 -0.02921,0 -0.08178,0.09054 -0.151875,0.254098 z"
           id="path5077" />
        <path
           style="fill:#795548;stroke:none;stroke-width:0.00292066"
           inkscape:connector-curvature="0"
           d="m 28.396349,37.553763 c 0.01168,0.143112 0.06425,0.534481 0.119747,0.873277 0.05841,0.335876 0.119747,0.791499 0.140192,1.010549 0.02921,0.344637 0.02921,0.423495 -0.0146,0.639624 -0.05841,0.297907 -0.172319,0.52864 -0.403051,0.814864 -0.537402,0.665911 -0.890802,1.337662 -1.095248,2.082431 -0.09346,0.332955 -0.125588,0.914166 -0.07302,1.276328 0.113905,0.762292 0.388448,1.080644 0.832388,0.952135 1.124454,-0.327114 1.688141,-2.96739 1.214994,-5.689445 -0.0847,-0.481909 -0.242414,-1.089406 -0.411813,-1.59176 -0.230732,-0.674672 -0.341717,-0.806102 -0.30959,-0.368003 z"
           id="path5079" />
        <path
           style="fill:#795548;stroke:none;stroke-width:0.00292066"
           inkscape:connector-curvature="0"
           d="m 50.511587,38.757075 c -0.108065,0.06717 -0.271621,0.239494 -0.937532,0.981341 -0.686355,0.765213 -1.051438,1.130296 -1.212074,1.206233 -0.210287,0.102223 -0.516957,0.151874 -1.50414,0.239494 -1.030993,0.09346 -1.632649,0.239494 -2.073668,0.499433 -0.356321,0.210288 -0.773975,0.698038 -1.0602,1.235439 -0.116826,0.224891 -0.116826,0.341717 0.0029,0.516957 0.160636,0.236574 0.192763,0.245336 0.811943,0.245336 0.75061,-0.0029 1.06312,-0.07886 1.766999,-0.429338 1.177026,-0.587052 2.65196,-1.898429 3.481427,-3.090058 0.338797,-0.48775 0.844071,-1.366869 0.820706,-1.431123 -0.0058,-0.0146 -0.04673,-0.0029 -0.09638,0.02629 z"
           id="path5081" />
        <path
           style="fill:#795548;stroke:none;stroke-width:0.00292066"
           inkscape:connector-curvature="0"
           d="m 40.56966,39.382096 c -0.04673,0.116826 -0.0847,0.39721 -0.13435,0.969659 -0.09346,1.054358 -0.274542,1.822492 -0.633783,2.701611 -0.210288,0.519877 -0.829468,1.656014 -0.995945,1.834174 -0.09638,0.102223 -0.189843,0.143112 -0.48483,0.207367 -1.022231,0.224891 -2.281035,1.264646 -2.818437,2.333607 -0.245335,0.48483 -0.385527,1.115692 -0.362162,1.597601 0.01752,0.338797 0.07594,0.470227 0.251177,0.566608 0.271621,0.148954 0.855753,0.105144 1.276329,-0.09638 0.776895,-0.370924 1.679379,-1.536268 2.61107,-3.376283 0.563687,-1.112772 0.876198,-2.0357 1.101088,-3.239012 0.154795,-0.83823 0.271622,-2.102876 0.277463,-2.952788 0.0029,-0.537401 -0.02629,-0.70972 -0.08762,-0.546164 z"
           id="path5083" />
        <path
           style="fill:#795548;stroke:none;stroke-width:0.00292066"
           inkscape:connector-curvature="0"
           d="m 19.719069,39.522288 c 0.02921,0.297907 0.388447,0.88496 0.981341,1.603442 0.368003,0.44394 1.299694,1.37271 1.772841,1.764079 0.940452,0.779816 1.971445,1.325979 2.695769,1.422361 0.13143,0.01752 0.44394,0.02629 0.698038,0.02044 0.53156,-0.0088 0.566608,-0.02337 0.712641,-0.251177 0.116826,-0.184002 0.110985,-0.289145 -0.03797,-0.557846 -0.657148,-1.206233 -1.302614,-1.545029 -3.221488,-1.696904 -0.826546,-0.06425 -1.258804,-0.146033 -1.451568,-0.2687 -0.160636,-0.102223 -0.516957,-0.464385 -1.232518,-1.264646 -0.911246,-1.013469 -0.943373,-1.039755 -0.917087,-0.771054 z"
           id="path5085" />
        <path
           style="fill:#795548;stroke:none;stroke-width:0.00292066"
           inkscape:connector-curvature="0"
           d="m 49.410498,41.064396 c -0.06717,0.07594 -0.248256,0.324193 -0.40013,0.546164 -0.639625,0.940452 -1.042676,1.404837 -1.629729,1.872143 -0.657148,0.522798 -0.937531,0.616259 -1.702744,0.560766 -0.7068,-0.04965 -1.153661,0.03797 -1.775762,0.35048 -0.598735,0.300828 -1.127374,0.730165 -1.343503,1.092326 -0.119747,0.198605 -0.227812,0.508195 -0.254098,0.724324 -0.0146,0.146033 -0.0088,0.17524 0.04965,0.242415 0.09054,0.105144 0.464384,0.254097 0.683434,0.271621 0.321273,0.02921 1.01931,-0.119747 1.477854,-0.30959 0.66299,-0.277462 1.130295,-0.651307 2.681166,-2.132082 0.806102,-0.771054 1.022231,-0.963817 1.022231,-0.917087 0,0.04381 -0.622101,1.121534 -0.832388,1.445727 -0.108065,0.163557 -0.292066,0.426416 -0.405972,0.578291 -0.245335,0.330034 -0.940453,1.036834 -1.229598,1.250042 -0.297907,0.22197 -0.44102,0.257018 -1.308456,0.324193 -1.387313,0.110985 -1.933477,0.259939 -2.616911,0.715562 -0.613339,0.408892 -0.855753,0.779816 -0.899563,1.378552 -0.02045,0.292066 0.0058,0.344637 0.213208,0.441019 0.251177,0.113906 0.607497,0.146033 1.007628,0.09054 0.423495,-0.06133 0.692196,-0.151875 1.238359,-0.417655 1.14782,-0.563687 2.286877,-1.565473 3.387966,-2.979073 0.695117,-0.890801 1.232519,-1.81665 1.778682,-3.060852 0.105144,-0.236573 0.294987,-0.607497 0.423496,-0.820705 0.283304,-0.473147 0.438099,-0.779816 0.540322,-1.06312 0.128509,-0.359241 0.0993,-0.411813 -0.105144,-0.184002 z"
           id="path5087" />
        <path
           style="fill:#795548;stroke:none;stroke-width:0.00292066"
           inkscape:connector-curvature="0"
           d="m 40.715693,41.452844 c -0.0029,0.04381 0.03213,0.595815 0.07302,1.226677 0.04381,0.657149 0.07886,1.439885 0.08178,1.834175 0.0029,0.639624 -0.0058,0.727244 -0.09346,1.28509 -0.163557,1.036834 -0.160636,0.890801 -0.03505,1.486616 0.05841,0.292066 0.116827,0.537401 0.125589,0.549084 0.02921,0.02629 0.297907,-0.07302 0.484829,-0.181081 0.294987,-0.172319 0.476068,-0.435178 0.554926,-0.803181 0.05549,-0.251177 0.07594,-1.001787 0.03505,-1.331821 -0.05841,-0.481909 -0.157715,-0.800261 -0.411813,-1.311377 -0.335875,-0.683434 -0.522798,-1.288011 -0.686355,-2.234305 -0.04381,-0.248256 -0.09054,-0.484829 -0.102223,-0.525718 l -0.02336,-0.07302 z"
           id="path5089" />
        <path
           style="fill:#795548;stroke:none;stroke-width:0.00292066"
           inkscape:connector-curvature="0"
           d="m 20.717934,41.692338 c 0.04089,0.21905 0.318352,0.809023 0.587053,1.241281 0.186922,0.303748 0.344638,0.616259 0.525719,1.042675 0.820705,1.921794 2.251829,3.823144 3.791016,5.035218 0.595815,0.470226 1.390235,0.914167 1.962684,1.104009 0.671752,0.21905 1.46033,0.195685 1.72611,-0.05549 0.05841,-0.05549 0.0701,-0.09346 0.0701,-0.242415 0,-0.242415 -0.06717,-0.53156 -0.166478,-0.738927 -0.102223,-0.210287 -0.414734,-0.53156 -0.70972,-0.730165 -0.703879,-0.473147 -1.346424,-0.642545 -2.760024,-0.738927 -0.806102,-0.05549 -0.905405,-0.0847 -1.302614,-0.403051 -0.52864,-0.423496 -1.045597,-1.004707 -1.495378,-1.691062 -0.373845,-0.566608 -0.899563,-1.498299 -0.844071,-1.498299 0.02629,0 0.368003,0.318352 1.355186,1.258805 1.533347,1.463251 2.067828,1.810809 3.133868,2.032779 0.496513,0.105144 0.709721,0.0993 1.01347,-0.01752 0.35632,-0.137271 0.388447,-0.169398 0.385527,-0.365082 -0.0058,-0.210288 -0.105144,-0.52864 -0.233653,-0.747689 -0.330035,-0.563688 -1.159502,-1.136137 -2.026938,-1.396076 -0.236574,-0.07302 -0.283304,-0.07594 -1.036835,-0.07886 -0.873277,-0.0058 -0.911245,-0.01168 -1.250042,-0.201525 -0.248256,-0.137271 -0.677593,-0.470226 -0.981342,-0.762292 -0.332955,-0.318352 -0.654228,-0.718483 -1.083565,-1.343504 -0.408892,-0.598735 -0.569528,-0.803181 -0.633783,-0.803181 -0.03505,0 -0.04089,0.02044 -0.02629,0.0993 z"
           id="path5091" />
        <path
           style="fill:#795548;stroke:none;stroke-width:0.00292066"
           inkscape:connector-curvature="0"
           d="m 40.511247,43.526513 c -0.0146,0.0847 -0.03505,0.350479 -0.04381,0.592893 -0.06133,1.518744 -0.3534,2.421228 -1.401917,4.343022 -0.3534,0.648386 -0.271621,0.578291 -0.738927,0.636704 -0.657148,0.0847 -1.028072,0.289145 -1.603442,0.882039 -0.671752,0.695117 -1.188709,1.407758 -1.396075,1.930556 -0.13143,0.332956 -0.221971,0.966739 -0.178161,1.279249 0.03797,0.265781 0.277463,0.496513 0.566608,0.540323 0.146033,0.02336 0.490671,-0.03797 0.736007,-0.13143 0.782737,-0.297907 1.585918,-1.220836 2.549736,-2.929422 0.852833,-1.515823 1.320138,-2.976153 1.536267,-4.784041 0.09054,-0.773975 0.154795,-2.321925 0.0993,-2.465037 -0.03797,-0.09638 -0.09638,-0.04673 -0.125588,0.105144 z"
           id="path5093" />
        <path
           style="fill:#795548;stroke:none;stroke-width:0.00292066"
           inkscape:connector-curvature="0"
           d="m 29.176166,44.207026 c -0.289146,0.391369 -0.61918,0.984263 -0.689276,1.229598 -0.06133,0.227812 -0.09054,1.290932 -0.04381,1.6823 0.05841,0.511116 0.189843,0.800261 0.414734,0.914167 0.08762,0.04673 0.715561,0.151874 0.741847,0.125588 0.0088,-0.0088 -0.0146,-0.289145 -0.05549,-0.625021 -0.113906,-0.949214 -0.137271,-1.346424 -0.13143,-2.056145 0.0146,-1.147819 0.0088,-1.279249 -0.07302,-1.387313 -0.03505,-0.04965 -0.04965,-0.03797 -0.163557,0.116826 z"
           id="path5095" />
        <path
           style="fill:#795548;stroke:none;stroke-width:0.00292066"
           inkscape:connector-curvature="0"
           d="m 40.557978,47.475245 c -0.02921,0.0701 -0.07594,0.473147 -0.122668,1.010548 -0.119747,1.37271 -0.3534,2.102875 -1.179947,3.677111 -0.470226,0.893722 -0.557846,0.995945 -0.849912,0.995945 -0.169398,0 -0.496512,0.116827 -0.899563,0.318352 -0.811944,0.405972 -1.258805,0.814864 -1.825413,1.667697 -0.230732,0.350479 -0.347558,0.592894 -0.335875,0.700958 0.01752,0.154795 0.05549,0.160637 1.600521,0.169399 l 1.41652,0.0088 0.108065,-0.242415 c 0.05841,-0.13435 0.324193,-0.730165 0.592894,-1.323059 1.10985,-2.453354 1.273407,-2.946946 1.442806,-4.307974 0.128509,-1.028072 0.201525,-2.456275 0.137271,-2.651959 -0.02337,-0.07302 -0.06133,-0.0847 -0.0847,-0.02336 z"
           id="path5097" />
        <path
           style="fill:#795548;stroke:none;stroke-width:0.00292066"
           inkscape:connector-curvature="0"
           d="m 46.066342,47.76147 c -0.105143,0.102223 -0.432257,0.452702 -0.724323,0.782736 -0.610418,0.689276 -0.911246,0.981342 -1.130296,1.109851 -0.31251,0.181081 -0.569528,0.224891 -1.658935,0.292066 -0.803181,0.04965 -1.255883,0.143113 -1.705665,0.347559 l -0.17816,0.08178 -0.0701,0.362162 c -0.09346,0.493592 -0.274542,1.188709 -0.379686,1.466171 l -0.08762,0.230733 0.546164,-0.01168 0.546163,-0.01168 0.259939,-0.110985 c 0.53156,-0.236573 1.466171,-0.814864 2.003573,-1.244201 0.937531,-0.75353 2.254749,-2.225543 2.713293,-3.040407 0.0993,-0.17524 0.154795,-0.435178 0.09054,-0.435178 -0.01752,0 -0.119747,0.08178 -0.224891,0.181081 z"
           id="path5099" />
        <path
           style="fill:#795548;stroke:none;stroke-width:0.00292066"
           inkscape:connector-curvature="0"
           d="m 23.977391,48.316395 c 0.0029,0.48775 1.588839,2.386179 2.844723,3.402569 0.481909,0.388448 1.439885,0.984262 1.951001,1.212074 0.350479,0.154795 0.601655,0.195684 1.209153,0.198605 0.470226,0 0.505274,-0.0029 0.595814,-0.06718 0.578291,-0.388447 -0.0847,-1.477854 -1.296773,-2.135002 -0.446861,-0.242415 -0.651307,-0.286225 -1.653093,-0.338797 -1.498299,-0.07886 -1.533347,-0.0993 -2.768786,-1.498298 -0.516957,-0.584132 -0.700958,-0.773975 -0.820705,-0.83823 -0.05549,-0.02921 -0.06133,-0.02336 -0.06133,0.06426 z"
           id="path5101" />
        <path
           style="fill:#795548;stroke:none;stroke-width:0.00292066"
           inkscape:connector-curvature="0"
           d="m 45.295288,49.616089 c -0.125588,0.13435 -0.242415,0.294986 -0.651307,0.88788 -0.598735,0.873278 -1.232519,1.597601 -1.708586,1.951001 -0.259939,0.192764 -0.403051,0.248256 -0.75061,0.294987 -0.327114,0.04381 -1.127375,0.04089 -1.387313,-0.0029 -0.119747,-0.02044 -0.251177,-0.02629 -0.292066,-0.01752 -0.03797,0.0088 -0.22197,0.113906 -0.403051,0.227812 l -0.332956,0.210287 -0.286224,0.587053 c -0.318352,0.657148 -0.458544,0.995945 -0.686355,1.644331 l -0.157716,0.446861 h 0.128509 c 0.405972,0 1.162423,-0.318352 1.59468,-0.66591 0.137271,-0.110985 0.511116,-0.385527 0.832389,-0.604577 1.025151,-0.70972 1.346424,-0.969659 1.933476,-1.565473 1.086486,-1.10401 2.143765,-2.669484 2.30148,-3.408411 0.02629,-0.122667 -0.0088,-0.119747 -0.13435,0.0146 z"
           id="path5103" />
        <path
           style="fill:#795548;stroke:none;stroke-width:0.00292066"
           inkscape:connector-curvature="0"
           d="m 24.868192,50.182697 c -0.04381,0.113905 0.268701,0.791499 0.636704,1.387313 0.35632,0.57245 0.908325,1.288011 1.439885,1.866302 0.578291,0.627942 1.077724,1.042676 2.07659,1.734872 0.35632,0.248256 0.736006,0.519877 0.84407,0.604577 0.108065,0.08762 0.245336,0.172318 0.300828,0.189842 0.06425,0.02044 0.48483,0.03797 1.051438,0.04673 l 0.943373,0.0146 -0.01168,-0.373844 c -0.01168,-0.362162 -0.0146,-0.385527 -0.116826,-0.598735 -0.0847,-0.172319 -0.157716,-0.268701 -0.347558,-0.446861 -0.257019,-0.245336 -0.949215,-0.718483 -1.349345,-0.922929 -0.376766,-0.189843 -0.470227,-0.204446 -1.349345,-0.233653 -0.747689,-0.02629 -1.10401,-0.06425 -1.311377,-0.146033 -0.26578,-0.0993 -0.925849,-0.70972 -1.366869,-1.255884 -0.21029,-0.262855 -0.335878,-0.435174 -0.934614,-1.288007 -0.335876,-0.476067 -0.478988,-0.639624 -0.505274,-0.57829 z"
           id="path5105" />
      </g>
      <text
         id="text2629"
         y="64.036224"
         x="12.284226"
         style="font-style:normal;font-variant:normal;font-weight:bold;font-stretch:normal;font-size:10.58333302px;line-height:1.25;font-family:'Century Schoolbook L';-inkscape-font-specification:'Century Schoolbook L Bold';letter-spacing:0px;word-spacing:0px;fill:#000000;fill-opacity:1;stroke:none;stroke-width:0.26458332"
         xml:space="preserve"><tspan
           style="font-style:normal;font-variant:normal;font-weight:bold;font-stretch:normal;font-family:'Century Schoolbook L';-inkscape-font-specification:'Century Schoolbook L Bold';stroke-width:0.26458332"
           y="64.036224"
           x="12.284226"
           id="tspan2627"
           sodipodi:role="line">Harvest</tspan></text>
    </g>
    <g
       id="g2847"
       transform="translate(20.788885)">
      <g
         transform="matrix(1.2576287,0,0,1.2576287,-6.4989918,-12.000758)"
         id="g2616">
        <path
           style="fill:#795548;stroke:none;stroke-width:0.00292066"
           inkscape:connector-curvature="0"
           d="m 75.235881,39.359075 c -0.967069,0.148112 -2.036618,0.554002 -2.514636,0.850341 -0.303927,0.189109 -0.75424,0.644187 -0.905242,0.92128 -0.127852,0.236083 -0.07297,0.56408 0.133155,0.771533 0.103369,0.105765 0.416703,0.261837 0.669426,0.332941 0.80614,0.227077 1.836619,-0.178444 3.62865,-0.976465 0.515216,-0.285069 1.742194,-1.115157 1.265216,-1.581024 -0.419528,-0.40976 -0.773642,-0.620449 -2.276569,-0.318606 z"
           id="path5093-8"
           sodipodi:nodetypes="ccccccscc" />
        <path
           style="fill:#795548;stroke:none;stroke-width:0.00292066"
           inkscape:connector-curvature="0"
           d="m 81.874237,40.53351 c -0.924959,0.318762 -1.904619,0.90948 -2.321898,1.286569 -0.265184,0.24044 -0.626801,0.76875 -0.725784,1.06839 -0.08355,0.25515 0.02914,0.568033 0.269059,0.735255 0.120625,0.08556 0.456829,0.18305 0.718196,0.207785 0.833761,0.07917 1.775049,-0.504196 3.395366,-1.609992 0.455892,-0.372658 1.514538,-1.408896 0.961899,-1.781898 -0.486078,-0.328079 -0.872176,-0.472005 -2.296838,0.09389 z"
           id="path5093-8-5"
           sodipodi:nodetypes="ccccccscc" />
        <path
           style="fill:#795548;stroke:none;stroke-width:0.00292066"
           inkscape:connector-curvature="0"
           d="m 80.846825,46.284761 c -0.688456,0.695117 -1.305639,1.658323 -1.513005,2.18112 -0.13143,0.332957 -0.221971,0.96674 -0.178161,1.27925 0.03797,0.265781 0.277463,0.496513 0.566608,0.540323 0.146033,0.02336 0.490671,-0.03797 0.736007,-0.131431 0.782737,-0.297906 1.368762,-1.237539 2.33258,-2.946125 0.243955,-0.535909 0.734848,-1.933601 0.07421,-2.023587 -0.58107,-0.07915 -0.991,-0.03739 -2.018239,1.10045 z"
           id="path5093-8-5-8"
           sodipodi:nodetypes="ccccccscc" />
        <path
           style="fill:#795548;stroke:none;stroke-width:0.00292066"
           inkscape:connector-curvature="0"
           d="m 77.310752,44.851966 c -0.779732,-0.590912 -1.815831,-1.075864 -2.361385,-1.212571 -0.347366,-0.08643 -0.987553,-0.09272 -1.291571,-0.0081 -0.258465,0.07264 -0.455646,0.340437 -0.460994,0.632833 -0.0039,0.147838 0.102261,0.481396 0.227219,0.712287 0.398398,0.736684 1.407026,1.193854 3.227665,1.924255 0.56337,0.171251 2.013538,0.473791 2.015734,-0.192944 0.0019,-0.586432 -0.09345,-0.987292 -1.356668,-1.855729 z"
           id="path5093-8-5-8-4"
           sodipodi:nodetypes="ccccccscc" />
        <path
           style="fill:#795548;stroke:none;stroke-width:0.00292066"
           inkscape:connector-curvature="0"
           d="m 86.622892,40.746108 c 0.682541,0.700925 1.634418,1.335441 2.153375,1.552236 0.330525,0.137435 0.962565,0.239433 1.275817,0.201287 0.266424,-0.03315 0.501454,-0.26843 0.55049,-0.556735 0.026,-0.145586 -0.02908,-0.491278 -0.118087,-0.738265 -0.28369,-0.788001 -1.212561,-1.390938 -2.903422,-2.385525 -0.531405,-0.253615 -1.919983,-0.769726 -2.021912,-0.110825 -0.08965,0.579542 -0.05532,0.99016 1.063739,2.037827 z"
           id="path5093-8-5-8-4-3"
           sodipodi:nodetypes="ccccccscc" />
        <path
           style="fill:#795548;stroke:none;stroke-width:0.00292066"
           inkscape:connector-curvature="0"
           d="m 87.037472,45.893997 c 0.977564,0.03905 2.104887,-0.15549 2.630641,-0.355242 0.334411,-0.127684 0.863239,-0.488543 1.064304,-0.731762 0.170524,-0.207373 0.179191,-0.539817 0.01641,-0.782767 -0.0813,-0.123538 -0.35913,-0.336491 -0.593657,-0.454481 -0.748049,-0.376627 -1.836947,-0.175038 -3.748265,0.266629 -0.560121,0.181596 -1.922869,0.76249 -1.543476,1.310761 0.333699,0.482237 0.641139,0.756585 2.174046,0.746862 z"
           id="path5093-8-5-8-4-7"
           sodipodi:nodetypes="ccccccscc"
           inkscape:transform-center-x="-0.091778724"
           inkscape:transform-center-y="0.57803112" />
        <path
           style="fill:#795548;stroke:none;stroke-width:0.00292066"
           inkscape:connector-curvature="0"
           d="m 82.378244,36.557832 c -0.97268,-0.10513 -2.110585,0.01257 -2.64866,0.17625 -0.342291,0.104744 -0.894345,0.428959 -1.111424,0.657997 -0.184177,0.195346 -0.215342,0.52644 -0.06938,0.779858 0.07275,0.128759 0.335513,0.360042 0.561511,0.493645 0.720822,0.426429 1.820873,0.299058 3.757717,-0.01214 0.571134,-0.143242 1.970097,-0.630502 1.62871,-1.203211 -0.300269,-0.503732 -0.588423,-0.798272 -2.118469,-0.892396 z"
           id="path5093-8-5-8-4-1"
           sodipodi:nodetypes="ccccccscc" />
        <path
           style="fill:#795548;stroke:none;stroke-width:0.00292066"
           inkscape:connector-curvature="0"
           d="m 74.462178,47.393779 c -0.888179,-0.410239 -2.00409,-0.662076 -2.566263,-0.678792 -0.357817,-0.01005 -0.984499,0.120898 -1.263353,0.268627 -0.23692,0.126297 -0.372179,0.430109 -0.314789,0.716869 0.02782,0.145245 0.202972,0.448333 0.374475,0.647108 0.546903,0.634287 1.630034,0.864871 3.564845,1.188468 0.586971,0.04664 2.068288,0.03163 1.927662,-0.620105 -0.123688,-0.573245 -0.302696,-0.944381 -1.722575,-1.522176 z"
           id="path5093-8-5-3"
           sodipodi:nodetypes="ccccccscc"
           inkscape:transform-center-x="3.122913"
           inkscape:transform-center-y="2.1109769" />
        <path
           style="fill:#795548;stroke:none;stroke-width:0.00292066"
           inkscape:connector-curvature="0"
           d="m 87.818434,48.123383 c -0.966407,-0.15237 -2.108693,-0.09022 -2.654102,0.04707 -0.346984,0.08795 -0.914172,0.384897 -1.142145,0.603097 -0.193477,0.186141 -0.240721,0.515329 -0.107276,0.775554 0.06639,0.132146 0.317583,0.375954 0.536809,0.5204 0.6992,0.461025 1.80415,0.387369 3.75385,0.170849 0.577429,-0.115266 1.998461,-0.533822 1.685367,-1.122474 -0.275385,-0.517756 -0.548854,-0.825978 -2.072502,-0.994494 z"
           id="path5093-8-5-3-8"
           sodipodi:nodetypes="ccccccscc"
           inkscape:transform-center-x="2.3946136"
           inkscape:transform-center-y="2.9396423" />
        <path
           style="fill:none;stroke:#e6e6e6;stroke-width:0.82177645;stroke-linecap:round;stroke-linejoin:miter;stroke-miterlimit:4;stroke-dasharray:none;stroke-opacity:1"
           d="m 72.637692,38.321424 c -0.507825,-3.693418 4.449092,-4.733346 3.74295,-6.086841 -0.439144,-0.841727 -2.864033,-1.459581 -3.737805,-2.732833 -0.970857,-1.117979 2.766945,-3.198659 2.766945,-3.198659 1.480258,-1.586096 0.693147,-1.753371 -0.06681,-2.953028 -0.818031,-1.311496 -2.603612,-2.551212 -2.603612,-2.551212"
           id="path1872"
           inkscape:connector-curvature="0"
           sodipodi:nodetypes="cscccc" />
        <path
           style="fill:none;stroke:#e6e6e6;stroke-width:0.82177645;stroke-linecap:round;stroke-linejoin:miter;stroke-miterlimit:4;stroke-dasharray:none;stroke-opacity:1"
           d="m 77.75418,35.149668 c -0.507825,-3.693419 4.449092,-4.733346 3.74295,-6.086841 -0.439144,-0.841727 -2.864033,-1.459582 -3.737805,-2.732833 -0.970857,-1.117979 2.766945,-3.198659 2.766945,-3.198659 1.480258,-1.586096 0.693147,-1.753371 -0.06681,-2.953029 -0.818031,-1.311495 -2.603612,-2.551211 -2.603612,-2.551211"
           id="path1872-0"
           inkscape:connector-curvature="0"
           sodipodi:nodetypes="cscccc" />
        <path
           style="fill:none;stroke:#e6e6e6;stroke-width:0.82177645;stroke-linecap:round;stroke-linejoin:miter;stroke-miterlimit:4;stroke-dasharray:none;stroke-opacity:1"
           d="m 82.899119,35.216486 c -0.507825,-3.693419 4.449092,-4.733346 3.74295,-6.086841 -0.439144,-0.841727 -2.864033,-1.459582 -3.737805,-2.732834 -0.970857,-1.117979 2.766945,-3.198659 2.766945,-3.198659 1.480258,-1.586096 0.693147,-1.753371 -0.06681,-2.953029 -0.818031,-1.311495 -2.603612,-2.551211 -2.603612,-2.551211"
           id="path1872-0-9"
           inkscape:connector-curvature="0"
           sodipodi:nodetypes="cscccc" />
        <path
           style="fill:none;stroke:#e6e6e6;stroke-width:0.82177645;stroke-linecap:round;stroke-linejoin:miter;stroke-miterlimit:4;stroke-dasharray:none;stroke-opacity:1"
           d="m 88.311327,37.555094 c -0.507825,-3.693419 4.449092,-4.733345 3.74295,-6.08684 -0.439144,-0.841728 -2.864033,-1.459583 -3.737805,-2.732835 -0.970857,-1.117978 2.766945,-3.198659 2.766945,-3.198659 1.480258,-1.586095 0.693147,-1.753371 -0.06681,-2.953028 -0.818031,-1.311496 -2.603612,-2.551212 -2.603612,-2.551212"
           id="path1872-0-9-7"
           inkscape:connector-curvature="0"
           sodipodi:nodetypes="cscccc" />
      </g>
      <text
         id="text2629-9"
         y="64.194977"
         x="95.86087"
         style="font-style:normal;font-variant:normal;font-weight:bold;font-stretch:normal;font-size:10.58333302px;line-height:1.25;font-family:'Century Schoolbook L';-inkscape-font-specification:'Century Schoolbook L Bold';letter-spacing:0px;word-spacing:0px;fill:#000000;fill-opacity:1;stroke:none;stroke-width:0.26458332"
         xml:space="preserve"><tspan
           style="font-style:normal;font-variant:normal;font-weight:bold;font-stretch:normal;font-family:'Century Schoolbook L';-inkscape-font-specification:'Century Schoolbook L Bold';text-align:center;text-anchor:middle;stroke-width:0.26458332"
           y="64.194977"
           x="95.86087"
           id="tspan2627-2"
           sodipodi:role="line">Heated</tspan><tspan
           id="tspan2785"
           style="font-style:normal;font-variant:normal;font-weight:bold;font-stretch:normal;font-family:'Century Schoolbook L';-inkscape-font-specification:'Century Schoolbook L Bold';text-align:center;text-anchor:middle;stroke-width:0.26458332"
           y="77.424141"
           x="97.380157"
           sodipodi:role="line">&amp; </tspan><tspan
           id="tspan2783"
           style="font-style:normal;font-variant:normal;font-weight:bold;font-stretch:normal;font-family:'Century Schoolbook L';-inkscape-font-specification:'Century Schoolbook L Bold';text-align:center;text-anchor:middle;stroke-width:0.26458332"
           y="90.653313"
           x="95.86087"
           sodipodi:role="line">Dried</tspan></text>
    </g>
    <g
       id="g2859"
       transform="translate(1.6441345e-5)">
      <g
         transform="translate(65.078323,0.33346405)"
         id="g2625">
        <path
           style="fill:#795548;stroke:none;stroke-width:0.00596439"
           inkscape:connector-curvature="0"
           d="m 129.97858,44.371199 c 0.21514,-0.120008 -3.50712,0.05565 -4.64736,0.329518 -0.72539,0.175442 -1.91115,0.767794 -2.38776,1.20306 -0.40447,0.371315 -0.50324,1.027981 -0.22427,1.547078 0.13882,0.263606 0.66395,0.749955 1.12226,1.038097 1.46174,0.919654 2.72227,0.478199 6.7983,0.04628 1.20718,-0.229934 -2.19634,-0.164292 -2.36598,-0.96676 -0.1497,-0.708261 3.51228,-1.344532 1.57824,-1.559022 -1.93403,-0.214488 -1.99353,-0.455603 -1.87978,-0.519047 z"
           id="path5093-8-5-3-8-9"
           sodipodi:nodetypes="scccccazss"
           inkscape:transform-center-x="-0.70128269"
           inkscape:transform-center-y="-0.095242921" />
        <path
           style="fill:#795548;stroke:none;stroke-width:0.00596439"
           inkscape:connector-curvature="0"
           d="m 133.66356,47.495797 c -0.24019,-0.05473 2.64393,2.304914 3.67464,2.864183 0.65652,0.35489 1.93414,0.707896 2.57958,0.703235 0.54903,-0.0054 1.06176,-0.427387 1.20169,-0.999843 0.0732,-0.288798 0.008,-1.001596 -0.13964,-1.522372 -0.4712,-1.661449 -1.70344,-2.176634 -5.02194,-4.582484 -1.05107,-0.636708 1.52254,1.59147 1.11177,2.301401 -0.36256,0.626572 -3.51003,-1.350391 -2.21603,0.10291 1.29399,1.453293 1.17691,1.67231 1.04992,1.643366 z"
           id="path5093-8-5-3-8-9-3"
           sodipodi:nodetypes="scccccazss"
           inkscape:transform-center-x="0.80916827"
           inkscape:transform-center-y="-0.89661977" />
        <path
           style="fill:#795548;stroke:none;stroke-width:0.00596439"
           inkscape:connector-curvature="0"
           d="m 140.72558,43.31539 c -0.24622,0.0077 3.14035,1.562443 4.27889,1.843266 0.72487,0.177577 2.05023,0.196466 2.67357,0.02894 0.52986,-0.143888 0.91939,-0.68169 0.9102,-1.270934 -0.002,-0.297924 -0.24522,-0.971146 -0.5196,-1.437752 -0.87554,-1.488579 -2.19795,-1.675851 -6.01648,-3.165588 -1.17781,-0.350612 1.87512,1.15534 1.65696,1.946002 -0.19256,0.697827 -3.73729,-0.420121 -2.11819,0.659255 1.61907,1.07937 1.56111,1.320859 1.43093,1.324924 z"
           id="path5093-8-5-3-8-9-3-2"
           sodipodi:nodetypes="scccccazss"
           inkscape:transform-center-x="0.40525859"
           inkscape:transform-center-y="-0.42924017" />
        <path
           style="fill:#795548;stroke:none;stroke-width:0.00596439"
           inkscape:connector-curvature="0"
           d="m 131.39599,43.520753 c -0.20291,0.13969 3.48639,-0.384894 4.59585,-0.764674 0.7057,-0.242811 1.83057,-0.94395 2.26418,-1.422068 0.36778,-0.407673 0.40443,-1.070712 0.0779,-1.561304 -0.16296,-0.249417 -0.73163,-0.684088 -1.21483,-0.928072 -1.54167,-0.778256 -2.75516,-0.220326 -6.77258,0.59262 -1.18024,0.342326 2.20206,-0.04278 2.44634,0.740203 0.21558,0.691061 -3.37043,1.668559 -1.42479,1.700398 1.94563,0.03184 2.02752,0.266298 1.92023,0.340148 z"
           id="path5093-8-5-3-8-9-3-2-4"
           sodipodi:nodetypes="scccccazss"
           inkscape:transform-center-x="0.77567358"
           inkscape:transform-center-y="0.25258974" />
        <path
           style="fill:#795548;stroke:none;stroke-width:0.00596439"
           inkscape:connector-curvature="0"
           d="m 137.20864,35.785922 c 0.12522,0.212153 -0.14179,-3.504696 -0.44359,-4.637861 -0.19321,-0.720859 -0.81452,-1.89171 -1.26137,-2.357483 -0.38114,-0.395215 -1.04003,-0.477835 -1.55212,-0.186194 -0.26013,0.145237 -0.73325,0.682343 -1.0102,1.147424 -0.88347,1.48389 -0.41118,2.733202 0.12075,6.797387 0.25952,1.201166 0.11028,-2.199713 0.90834,-2.389018 0.70437,-0.167053 1.43042,3.478189 1.59733,1.539459 0.1669,-1.938708 0.40649,-2.004121 0.47271,-1.891965 z"
           id="path5093-8-5-3-8-9-3-2-4-3"
           sodipodi:nodetypes="scccccazss"
           inkscape:transform-center-x="-0.13739559"
           inkscape:transform-center-y="0.72190471" />
        <path
           style="fill:#795548;stroke:none;stroke-width:0.00596439"
           inkscape:connector-curvature="0"
           d="m 140.79422,36.914036 c -0.20291,0.13969 3.48639,-0.384894 4.59585,-0.764674 0.7057,-0.242811 1.83057,-0.94395 2.26418,-1.422068 0.36778,-0.407673 0.40443,-1.070712 0.0779,-1.561304 -0.16296,-0.249417 -0.73163,-0.684088 -1.21483,-0.928072 -1.54167,-0.778256 -2.75516,-0.220326 -6.77258,0.59262 -1.18024,0.342326 2.20206,-0.04278 2.44634,0.740203 0.21558,0.691061 -3.37043,1.668559 -1.42479,1.700398 1.94563,0.03184 2.02752,0.266298 1.92023,0.340148 z"
           id="path5093-8-5-3-8-9-3-2-4-7"
           sodipodi:nodetypes="scccccazss"
           inkscape:transform-center-x="0.77567358"
           inkscape:transform-center-y="0.25258974" />
        <path
           style="fill:#795548;stroke:none;stroke-width:0.00596439"
           inkscape:connector-curvature="0"
           d="m 125.66657,33.971722 c 0.0228,-0.245283 -1.93925,2.922736 -2.35887,4.017747 -0.26597,0.697305 -0.44881,2.010125 -0.35975,2.649409 0.0772,0.543602 0.56261,0.996722 1.14847,1.060545 0.29589,0.03479 0.99403,-0.123092 1.49103,-0.337592 1.58552,-0.684492 1.93509,-1.973541 3.88615,-5.578245 0.49375,-1.125332 -1.37862,1.717644 -2.13618,1.403274 -0.66862,-0.277479 0.87962,-3.656522 -0.39192,-2.183525 -1.27153,1.472988 -1.50398,1.385562 -1.4919,1.255875 z"
           id="path5093-8-5-3-8-9-3-2-4-1"
           sodipodi:nodetypes="scccccazss"
           inkscape:transform-center-x="-0.82695296"
           inkscape:transform-center-y="-0.75843352" />
      </g>
      <text
         id="text2629-1"
         y="64.194977"
         x="177.36415"
         style="font-style:normal;font-variant:normal;font-weight:bold;font-stretch:normal;font-size:10.58333302px;line-height:1.25;font-family:'Century Schoolbook L';-inkscape-font-specification:'Century Schoolbook L Bold';letter-spacing:0px;word-spacing:0px;fill:#000000;fill-opacity:1;stroke:none;stroke-width:0.26458332"
         xml:space="preserve"><tspan
           style="font-style:normal;font-variant:normal;font-weight:bold;font-stretch:normal;font-family:'Century Schoolbook L';-inkscape-font-specification:'Century Schoolbook L Bold';stroke-width:0.26458332"
           y="64.194977"
           x="177.36415"
           id="tspan2627-7"
           sodipodi:role="line">Cracked</tspan></text>
    </g>
    <path
       style="fill:none;stroke:#000000;stroke-width:1.5;stroke-linecap:round;stroke-linejoin:miter;stroke-miterlimit:4;stroke-dasharray:none;stroke-opacity:1;marker-end:url(#TriangleOutL)"
       d="M 63.598452,42.425775 H 81.37786"
       id="path2861"
       inkscape:connector-curvature="0" />
    <path
       style="fill:none;stroke:#000000;stroke-width:1.5;stroke-linecap:round;stroke-linejoin:miter;stroke-miterlimit:4;stroke-dasharray:none;stroke-opacity:1;marker-end:url(#TriangleOutL-4)"
       d="m 144.22358,42.425775 h 17.77941"
       id="path2861-9"
       inkscape:connector-curvature="0" />
  </g>
</svg>
