<?xml version="1.0" encoding="UTF-8" standalone="no"?>
<!-- Created with Inkscape (http://www.inkscape.org/) -->

<svg
   xmlns:dc="http://purl.org/dc/elements/1.1/"
   xmlns:cc="http://creativecommons.org/ns#"
   xmlns:rdf="http://www.w3.org/1999/02/22-rdf-syntax-ns#"
   xmlns:svg="http://www.w3.org/2000/svg"
   xmlns="http://www.w3.org/2000/svg"
   xmlns:sodipodi="http://sodipodi.sourceforge.net/DTD/sodipodi-0.dtd"
   xmlns:inkscape="http://www.inkscape.org/namespaces/inkscape"
   width="196.54761mm"
   height="75.953659mm"
   viewBox="0 0 196.54761 75.953659"
   version="1.1"
   id="svg3757"
   inkscape:version="0.92.4 (33fec40, 2019-01-16)"
   sodipodi:docname="brewing_3.svg">
  <defs
     id="defs3751" />
  <sodipodi:namedview
     id="base"
     pagecolor="#ffffff"
     bordercolor="#666666"
     borderopacity="1.0"
     inkscape:pageopacity="0.0"
     inkscape:pageshadow="2"
     inkscape:zoom="1.0570195"
     inkscape:cx="346.66445"
     inkscape:cy="212.20166"
     inkscape:document-units="mm"
     inkscape:current-layer="layer1"
     showgrid="false"
     inkscape:window-width="1853"
     inkscape:window-height="1025"
     inkscape:window-x="3907"
     inkscape:window-y="27"
     inkscape:window-maximized="1"
     fit-margin-top="0"
     fit-margin-left="0"
     fit-margin-right="0"
     fit-margin-bottom="0" />
  <metadata
     id="metadata3754">
    <rdf:RDF>
      <cc:Work
         rdf:about="">
        <dc:format>image/svg+xml</dc:format>
        <dc:type
           rdf:resource="http://purl.org/dc/dcmitype/StillImage" />
        <dc:title></dc:title>
      </cc:Work>
    </rdf:RDF>
  </metadata>
  <g
     inkscape:label="Layer 1"
     inkscape:groupmode="layer"
     id="layer1"
     transform="translate(-3.4207803,-5.8453236)">
    <g
       id="g4924">
      <path
         sodipodi:nodetypes="cscscccc"
         inkscape:connector-curvature="0"
         id="rect3791"
         d="m 3.4207803,8.6801446 c 0,0 31.1200397,-2.834821 42.3333327,-2.834821 17.228865,0 40.427317,8.3947034 67.076197,7.8384364 9.31977,-0.19454 28.44811,-5.2117154 42.01088,-6.0014044 25.2185,-1.468341 45.1272,0.997789 45.1272,0.997789 V 69.723295 H 3.4207803 Z"
         style="fill:#00c0cd;fill-opacity:1;stroke:none;stroke-width:1.5;stroke-linecap:round;stroke-linejoin:round;stroke-miterlimit:4;stroke-dasharray:none" />
      <path
         inkscape:transform-center-y="0.94879282"
         inkscape:transform-center-x="-0.75443866"
         sodipodi:nodetypes="scccccazss"
         id="path5093-8-5-3-8-9-3-2-4"
         d="m 39.900986,55.945979 c 0.212937,0.123869 -1.836242,-2.988523 -2.653261,-3.829722 -0.520809,-0.534535 -1.635018,-1.252495 -2.252478,-1.440532 -0.525655,-0.158575 -1.140899,0.0913 -1.445172,0.596 -0.155993,0.253832 -0.306337,0.953633 -0.320722,1.494746 -0.04573,1.726366 0.976802,2.585597 3.426812,5.871627 0.813362,0.921193 -0.978641,-1.973109 -0.374845,-2.528235 0.53292,-0.489935 2.94759,2.335723 2.145881,0.562649 -0.801703,-1.773066 -0.624633,-1.9472 -0.512052,-1.881698 z"
         inkscape:connector-curvature="0"
         style="fill:#795548;stroke:none;stroke-width:0.00596439" />
      <path
         inkscape:transform-center-y="-0.81263639"
         inkscape:transform-center-x="-0.90192117"
         sodipodi:nodetypes="scccccazss"
         id="path5093-8-5-3-8-9-3-2-4-5"
         d="m 64.248474,35.379671 c 0.05803,-0.239412 -2.341143,2.611917 -2.914561,3.634817 -0.363908,0.651568 -0.73449,1.924202 -0.738725,2.569645 -0.0022,0.549049 0.412716,1.067545 0.983208,1.215336 0.287766,0.07717 1.00139,0.0218 1.524156,-0.118647 1.667782,-0.448253 2.199906,-1.673279 4.651265,-4.958303 0.651137,-1.042197 -1.612303,1.500459 -2.316506,1.079944 -0.621514,-0.371161 1.398643,-3.491086 -0.07236,-2.217238 -1.470993,1.273841 -1.688375,1.153751 -1.657681,1.02717 z"
         inkscape:connector-curvature="0"
         style="fill:#795548;stroke:none;stroke-width:0.00596439" />
      <path
         inkscape:transform-center-y="-0.9334813"
         inkscape:transform-center-x="0.66931383"
         sodipodi:nodetypes="scccccazss"
         id="path5093-8-5-3-8-9-3-2-4-7"
         d="m 125.84489,53.181414 c -0.19808,-0.146461 1.49764,3.17177 2.21755,4.097445 0.45908,0.588395 1.48789,1.424147 2.08102,1.678724 0.50511,0.215231 1.14404,0.03429 1.50179,-0.43402 0.18287,-0.235206 0.40901,-0.914314 0.48261,-1.450591 0.23466,-1.710954 -0.68753,-2.677077 -2.76264,-6.21183 -0.7075,-1.004788 0.7565,2.068481 0.0955,2.554087 -0.5834,0.428576 -2.67384,-2.644705 -2.07128,-0.794446 0.60254,1.85025 0.40746,2.003929 0.30273,1.926483 z"
         inkscape:connector-curvature="0"
         style="fill:#795548;stroke:none;stroke-width:0.00596439" />
      <path
         inkscape:transform-center-y="-0.53149284"
         inkscape:transform-center-x="0.60129948"
         sodipodi:nodetypes="scccccazss"
         id="path5093-8-5-3-8-9-3-2-4-4"
         d="m 97.911063,36.635822 c -0.243444,0.03769 3.307527,1.167637 4.471817,1.307451 0.74112,0.08781 2.05888,-0.05514 2.65713,-0.297462 0.50834,-0.207461 0.82935,-0.78877 0.74832,-1.372496 -0.0384,-0.295443 -0.36187,-0.933973 -0.69114,-1.36362 -1.05061,-1.370638 -2.38599,-1.395171 -6.357755,-2.407898 -1.211783,-0.204294 2.002075,0.917939 1.882015,1.72931 -0.10598,0.716106 -3.760637,0.03898 -2.021946,0.912757 1.738686,0.873772 1.710606,1.120528 1.581886,1.140446 z"
         inkscape:connector-curvature="0"
         style="fill:#795548;stroke:none;stroke-width:0.00596439" />
      <path
         inkscape:transform-center-y="-0.76432054"
         inkscape:transform-center-x="0.22773009"
         sodipodi:nodetypes="scccccazss"
         id="path5093-8-5-3-8-9-3-2-4-1"
         d="m 167.40103,18.776492 c -0.13653,-0.205045 0.33098,3.491921 0.69358,4.607116 0.23187,0.709368 0.91555,1.844937 1.38691,2.285883 0.40194,0.374035 1.06433,0.420925 1.55991,0.102015 0.25191,-0.159087 0.69531,-0.720973 0.94673,-1.200345 0.80199,-1.529461 0.26288,-2.751427 -0.4879,-6.780929 -0.32405,-1.185388 0.009,2.202459 -0.77791,2.434611 -0.69431,0.204877 -1.61628,-3.395809 -1.67818,-1.450893 -0.0619,1.944906 -0.2976,2.023163 -0.36978,1.914745 z"
         inkscape:connector-curvature="0"
         style="fill:#795548;stroke:none;stroke-width:0.00596439" />
      <path
         inkscape:transform-center-y="0.25258974"
         inkscape:transform-center-x="0.77567358"
         sodipodi:nodetypes="scccccazss"
         id="path5093-8-5-3-8-9-3-2-4-2"
         d="m 166.5911,56.663293 c -0.20291,0.139689 3.48639,-0.384895 4.59585,-0.764675 0.7057,-0.242811 1.83057,-0.94395 2.26418,-1.422068 0.36778,-0.407673 0.40443,-1.070712 0.0779,-1.561304 -0.16296,-0.249417 -0.73163,-0.684088 -1.21483,-0.928071 -1.54167,-0.778256 -2.75516,-0.220326 -6.77258,0.59262 -1.18024,0.342325 2.20206,-0.04278 2.44634,0.740202 0.21558,0.691061 -3.37043,1.66856 -1.42479,1.700398 1.94563,0.03184 2.02752,0.266299 1.92023,0.340148 z"
         inkscape:connector-curvature="0"
         style="fill:#795548;stroke:none;stroke-width:0.00596439" />
      <path
         inkscape:transform-center-y="-0.82254063"
         inkscape:transform-center-x="-0.93217879"
         sodipodi:nodetypes="scccccazss"
         id="path5093-8-5-3-8-9-3-2-4-21"
         d="m 35.970844,23.587877 c 0.08168,-0.23241 -2.590531,2.364785 -3.263337,3.325236 -0.427223,0.611923 -0.923176,1.841134 -0.991915,2.48292 -0.05704,0.546082 0.303925,1.103457 0.856783,1.30754 0.278611,0.105551 0.994194,0.121806 1.528382,0.03432 1.70424,-0.279278 2.356165,-1.444969 5.123651,-4.468472 0.752065,-0.97188 -1.754228,1.331759 -2.412864,0.84295 -0.581295,-0.431435 1.740645,-3.333772 0.149667,-2.213364 -1.590971,1.120403 -1.795259,0.979183 -1.752064,0.856304 z"
         inkscape:connector-curvature="0"
         style="fill:#795548;stroke:none;stroke-width:0.00596439" />
      <path
         inkscape:transform-center-y="-0.89554691"
         inkscape:transform-center-x="0.5445216"
         sodipodi:nodetypes="scccccazss"
         id="path5093-8-5-3-8-9-3-2-4-6"
         d="m 14.303295,40.45868 c -0.179127,-0.169113 1.107296,3.328206 1.711245,4.333382 0.385372,0.639109 1.306768,1.591977 1.86517,1.915707 0.475721,0.274133 1.131707,0.170955 1.542935,-0.251174 0.209708,-0.211631 0.51549,-0.858795 0.652744,-1.38241 0.437732,-1.670575 -0.362218,-2.740118 -1.999388,-6.497806 -0.582167,-1.082236 0.503513,2.144149 -0.210852,2.54716 -0.630503,0.355676 -2.338119,-2.94569 -1.961327,-1.036618 0.376788,1.909062 0.164711,2.038289 0.07001,1.948866 z"
         inkscape:connector-curvature="0"
         style="fill:#795548;stroke:none;stroke-width:0.00596439" />
      <path
         inkscape:transform-center-y="0.93530721"
         inkscape:transform-center-x="-0.67685448"
         sodipodi:nodetypes="scccccazss"
         id="path5093-8-5-3-8-9-3-2-4-20"
         d="m 70.574932,24.532713 c 0.199302,0.144792 -1.524226,-3.15908 -2.251878,-4.078677 -0.464013,-0.584518 -1.499804,-1.4116 -2.095053,-1.661187 -0.506898,-0.210981 -1.144281,-0.02468 -1.498089,0.446618 -0.180891,0.236734 -0.401316,0.917717 -0.470413,1.454593 -0.220282,1.712865 0.709998,2.671208 2.814718,6.188409 0.715913,0.99881 -0.773842,-2.062054 -0.116943,-2.553195 0.579786,-0.43346 2.695958,2.622156 2.077888,0.777022 -0.618066,-1.845124 -0.424275,-2.000436 -0.318904,-1.923872 z"
         inkscape:connector-curvature="0"
         style="fill:#795548;stroke:none;stroke-width:0.00596439" />
      <path
         inkscape:transform-center-y="0.72868611"
         inkscape:transform-center-x="0.78226573"
         sodipodi:nodetypes="scccccazss"
         id="path5093-8-5-3-8-9-3-2-4-22"
         d="m 84.128913,56.254729 c -0.0089,0.246186 1.770081,-3.02818 2.126825,-4.14526 0.225918,-0.711288 0.333885,-2.032375 0.208658,-2.665567 -0.107935,-0.53834 -0.618325,-0.963152 -1.206862,-0.99359 -0.297395,-0.01792 -0.985438,0.179362 -1.469441,0.421749 -1.544084,0.773456 -1.819857,2.080282 -3.562995,5.790001 -0.429018,1.151562 1.27882,-1.793187 2.053022,-1.522361 0.683298,0.239048 -0.670484,3.700586 0.515323,2.157735 1.185803,-1.542842 1.422845,-1.468763 1.418146,-1.338598 z"
         inkscape:connector-curvature="0"
         style="fill:#795548;stroke:none;stroke-width:0.00596439" />
      <path
         inkscape:transform-center-y="0.91261109"
         inkscape:transform-center-x="-0.59572968"
         sodipodi:nodetypes="scccccazss"
         id="path5093-8-5-3-8-9-3-2-4-9"
         d="m 134.98325,34.668509 c 0.18667,0.16075 -1.25823,-3.274127 -1.90749,-4.250653 -0.41417,-0.620829 -1.37815,-1.530595 -1.95076,-1.828469 -0.48775,-0.252107 -1.13834,-0.119059 -1.52985,0.321423 -0.19981,0.220993 -0.47571,0.881445 -0.58889,1.410795 -0.36093,1.688833 0.48706,2.720692 2.29425,6.399647 0.63101,1.054501 -0.60098,-2.118898 0.0942,-2.554134 0.61359,-0.384118 2.47029,2.835763 2.00665,0.945904 -0.46364,-1.889849 -0.25769,-2.028633 -0.159,-1.943632 z"
         inkscape:connector-curvature="0"
         style="fill:#795548;stroke:none;stroke-width:0.00596439" />
      <path
         inkscape:transform-center-y="-0.81263639"
         inkscape:transform-center-x="-0.90192117"
         sodipodi:nodetypes="scccccazss"
         id="path5093-8-5-3-8-9-3-2-4-5-7"
         d="m 150.26136,38.523766 c 0.058,-0.239412 -2.34115,2.611917 -2.91457,3.634817 -0.3639,0.651568 -0.73449,1.924202 -0.73872,2.569645 -0.002,0.549049 0.41272,1.067545 0.98321,1.215336 0.28776,0.07717 1.00139,0.0218 1.52415,-0.118647 1.66779,-0.448253 2.19991,-1.673279 4.65127,-4.958303 0.65114,-1.042197 -1.6123,1.500459 -2.31651,1.079944 -0.62151,-0.371161 1.39865,-3.491086 -0.0724,-2.217238 -1.47099,1.273841 -1.68837,1.153751 -1.65768,1.02717 z"
         inkscape:connector-curvature="0"
         style="fill:#795548;stroke:none;stroke-width:0.00596439" />
      <path
         inkscape:transform-center-y="-0.53149284"
         inkscape:transform-center-x="0.60129948"
         sodipodi:nodetypes="scccccazss"
         id="path5093-8-5-3-8-9-3-2-4-4-4"
         d="m 98.303655,55.184786 c -0.24345,0.03769 3.307515,1.167637 4.471805,1.307451 0.74112,0.08781 2.05888,-0.05514 2.65713,-0.297462 0.50834,-0.207461 0.82935,-0.78877 0.74832,-1.372496 -0.0384,-0.295443 -0.36187,-0.933973 -0.69114,-1.36362 -1.05061,-1.370638 -2.38599,-1.395171 -6.357745,-2.407898 -1.21179,-0.204294 2.002065,0.917939 1.882005,1.72931 -0.10598,0.716106 -3.760629,0.03898 -2.021935,0.912757 1.738675,0.873772 1.710595,1.120528 1.581875,1.140446 z"
         inkscape:connector-curvature="0"
         style="fill:#795548;stroke:none;stroke-width:0.00596439" />
      <rect
         y="47.223984"
         x="44.708656"
         height="2.391628"
         width="2.3916283"
         id="rect4608"
         style="fill:#ffffff;fill-opacity:1;stroke:#ffffff;stroke-width:0.48441499;stroke-linecap:round;stroke-linejoin:round;stroke-miterlimit:4;stroke-dasharray:none" />
      <rect
         y="57.390003"
         x="21.990715"
         height="2.391628"
         width="2.3916283"
         id="rect4608-3"
         style="fill:#ffffff;fill-opacity:1;stroke:#ffffff;stroke-width:0.48441502;stroke-linecap:round;stroke-linejoin:round;stroke-miterlimit:4;stroke-dasharray:none" />
      <rect
         y="42.522301"
         x="29.955557"
         height="2.391628"
         width="2.3916283"
         id="rect4608-3-5"
         style="fill:#ffffff;fill-opacity:1;stroke:#ffffff;stroke-width:0.48441502;stroke-linecap:round;stroke-linejoin:round;stroke-miterlimit:4;stroke-dasharray:none" />
      <rect
         y="21.990717"
         x="20.043758"
         height="2.391628"
         width="2.3916283"
         id="rect4608-3-5-6"
         style="fill:#ffffff;fill-opacity:1;stroke:#ffffff;stroke-width:0.48441502;stroke-linecap:round;stroke-linejoin:round;stroke-miterlimit:4;stroke-dasharray:none" />
      <rect
         y="18.804785"
         x="47.655201"
         height="2.391628"
         width="2.3916283"
         id="rect4608-3-5-6-1"
         style="fill:#ffffff;fill-opacity:1;stroke:#ffffff;stroke-width:0.48441502;stroke-linecap:round;stroke-linejoin:round;stroke-miterlimit:4;stroke-dasharray:none" />
      <rect
         y="32.964497"
         x="74.912651"
         height="2.391628"
         width="2.3916283"
         id="rect4608-3-5-6-4"
         style="fill:#ffffff;fill-opacity:1;stroke:#ffffff;stroke-width:0.48441502;stroke-linecap:round;stroke-linejoin:round;stroke-miterlimit:4;stroke-dasharray:none" />
      <rect
         y="51.018131"
         x="74.027672"
         height="2.391628"
         width="2.3916283"
         id="rect4608-3-5-6-4-0"
         style="fill:#ffffff;fill-opacity:1;stroke:#ffffff;stroke-width:0.48441502;stroke-linecap:round;stroke-linejoin:round;stroke-miterlimit:4;stroke-dasharray:none" />
      <rect
         y="24.29167"
         x="89.072365"
         height="2.391628"
         width="2.3916283"
         id="rect4608-3-5-6-4-0-3"
         style="fill:#ffffff;fill-opacity:1;stroke:#ffffff;stroke-width:0.48441502;stroke-linecap:round;stroke-linejoin:round;stroke-miterlimit:4;stroke-dasharray:none" />
      <rect
         y="42.168312"
         x="114.38285"
         height="2.391628"
         width="2.3916283"
         id="rect4608-3-5-6-4-0-3-1"
         style="fill:#ffffff;fill-opacity:1;stroke:#ffffff;stroke-width:0.48441502;stroke-linecap:round;stroke-linejoin:round;stroke-miterlimit:4;stroke-dasharray:none" />
      <rect
         y="43.938274"
         x="96.329216"
         height="2.391628"
         width="2.3916283"
         id="rect4608-3-5-6-4-0-3-1-2"
         style="fill:#ffffff;fill-opacity:1;stroke:#ffffff;stroke-width:0.48441502;stroke-linecap:round;stroke-linejoin:round;stroke-miterlimit:4;stroke-dasharray:none" />
      <rect
         y="23.937679"
         x="119.69274"
         height="2.391628"
         width="2.3916283"
         id="rect4608-3-5-6-4-0-3-1-2-7"
         style="fill:#ffffff;fill-opacity:1;stroke:#ffffff;stroke-width:0.48441502;stroke-linecap:round;stroke-linejoin:round;stroke-miterlimit:4;stroke-dasharray:none" />
      <rect
         y="21.636724"
         x="137.21539"
         height="2.391628"
         width="2.3916283"
         id="rect4608-3-5-6-4-0-3-1-2-7-7"
         style="fill:#ffffff;fill-opacity:1;stroke:#ffffff;stroke-width:0.48441502;stroke-linecap:round;stroke-linejoin:round;stroke-miterlimit:4;stroke-dasharray:none" />
      <rect
         y="51.726116"
         x="136.15341"
         height="2.391628"
         width="2.3916283"
         id="rect4608-3-5-6-4-0-3-1-2-7-7-9"
         style="fill:#ffffff;fill-opacity:1;stroke:#ffffff;stroke-width:0.48441502;stroke-linecap:round;stroke-linejoin:round;stroke-miterlimit:4;stroke-dasharray:none" />
      <rect
         y="32.964497"
         x="156.508"
         height="2.391628"
         width="2.3916283"
         id="rect4608-3-5-6-4-0-3-1-2-7-7-9-8"
         style="fill:#ffffff;fill-opacity:1;stroke:#ffffff;stroke-width:0.48441502;stroke-linecap:round;stroke-linejoin:round;stroke-miterlimit:4;stroke-dasharray:none" />
      <rect
         y="16.149834"
         x="175.9776"
         height="2.391628"
         width="2.3916283"
         id="rect4608-3-5-6-4-0-3-1-2-7-7-9-8-1"
         style="fill:#ffffff;fill-opacity:1;stroke:#ffffff;stroke-width:0.48441502;stroke-linecap:round;stroke-linejoin:round;stroke-miterlimit:4;stroke-dasharray:none" />
      <rect
         y="44.115269"
         x="169.25174"
         height="2.391628"
         width="2.3916283"
         id="rect4608-3-5-6-4-0-3-1-2-7-7-9-8-1-0"
         style="fill:#ffffff;fill-opacity:1;stroke:#ffffff;stroke-width:0.48441502;stroke-linecap:round;stroke-linejoin:round;stroke-miterlimit:4;stroke-dasharray:none" />
      <rect
         y="56.151028"
         x="158.27797"
         height="2.391628"
         width="2.3916283"
         id="rect4608-3-5-6-4-0-3-1-2-7-7-9-8-1-0-7"
         style="fill:#ffffff;fill-opacity:1;stroke:#ffffff;stroke-width:0.48441502;stroke-linecap:round;stroke-linejoin:round;stroke-miterlimit:4;stroke-dasharray:none" />
      <rect
         y="47.832195"
         x="181.8185"
         height="2.391628"
         width="2.3916283"
         id="rect4608-3-5-6-4-0-3-1-2-7-7-9-8-1-0-7-6"
         style="fill:#ffffff;fill-opacity:1;stroke:#ffffff;stroke-width:0.48441502;stroke-linecap:round;stroke-linejoin:round;stroke-miterlimit:4;stroke-dasharray:none" />
      <rect
         y="61.637917"
         x="113.49787"
         height="2.391628"
         width="2.3916283"
         id="rect4608-3-5-6-4-0-3-1-2-7-7-9-8-1-0-7-6-0"
         style="fill:#ffffff;fill-opacity:1;stroke:#ffffff;stroke-width:0.48441502;stroke-linecap:round;stroke-linejoin:round;stroke-miterlimit:4;stroke-dasharray:none" />
      <rect
         y="60.398941"
         x="52.611103"
         height="2.391628"
         width="2.3916283"
         id="rect4608-3-5-6-4-0-3-1-2-7-7-9-8-1-0-7-6-0-1"
         style="fill:#ffffff;fill-opacity:1;stroke:#ffffff;stroke-width:0.48441502;stroke-linecap:round;stroke-linejoin:round;stroke-miterlimit:4;stroke-dasharray:none" />
    </g>
    <text
       xml:space="preserve"
       style="font-style:normal;font-variant:normal;font-weight:bold;font-stretch:normal;font-size:10.58333302px;line-height:1.25;font-family:'Century Schoolbook L';-inkscape-font-specification:'Century Schoolbook L Bold';letter-spacing:0px;word-spacing:0px;fill:#000000;fill-opacity:1;stroke:none;stroke-width:0.26458332"
       x="58.896576"
       y="79.661148"
       id="text4888"><tspan
         sodipodi:role="line"
         id="tspan4886"
         x="58.896576"
         y="79.661148"
         style="font-style:normal;font-variant:normal;font-weight:bold;font-stretch:normal;font-family:'Century Schoolbook L';-inkscape-font-specification:'Century Schoolbook L Bold';stroke-width:0.26458332">Sugar Released</tspan></text>
  </g>
</svg>
