<?xml version="1.0" encoding="UTF-8" standalone="no"?>
<!-- Created with Inkscape (http://www.inkscape.org/) -->

<svg
   xmlns:dc="http://purl.org/dc/elements/1.1/"
   xmlns:cc="http://creativecommons.org/ns#"
   xmlns:rdf="http://www.w3.org/1999/02/22-rdf-syntax-ns#"
   xmlns:svg="http://www.w3.org/2000/svg"
   xmlns="http://www.w3.org/2000/svg"
   xmlns:sodipodi="http://sodipodi.sourceforge.net/DTD/sodipodi-0.dtd"
   xmlns:inkscape="http://www.inkscape.org/namespaces/inkscape"
   width="122.71521mm"
   height="89.925079mm"
   viewBox="0 0 122.71521 89.925079"
   version="1.1"
   id="svg8"
   inkscape:version="0.92.4 (33fec40, 2019-01-16)"
   sodipodi:docname="protocol_1.svg">
  <defs
     id="defs2">
    <marker
       inkscape:isstock="true"
       style="overflow:visible"
       id="Arrow2Lend"
       refX="0"
       refY="0"
       orient="auto"
       inkscape:stockid="Arrow2Lend">
      <path
         transform="matrix(-1.1,0,0,-1.1,-1.1,0)"
         d="M 8.7185878,4.0337352 -2.2072895,0.01601326 8.7185884,-4.0017078 c -1.7454984,2.3720609 -1.7354408,5.6174519 -6e-7,8.035443 z"
         style="fill:#000000;fill-opacity:1;fill-rule:evenodd;stroke:#000000;stroke-width:0.625;stroke-linejoin:round;stroke-opacity:1"
         id="path4865"
         inkscape:connector-curvature="0" />
    </marker>
    <marker
       inkscape:isstock="true"
       style="overflow:visible"
       id="Arrow1Lend"
       refX="0"
       refY="0"
       orient="auto"
       inkscape:stockid="Arrow1Lend">
      <path
         transform="matrix(-0.8,0,0,-0.8,-10,0)"
         style="fill:#000000;fill-opacity:1;fill-rule:evenodd;stroke:#000000;stroke-width:1.00000003pt;stroke-opacity:1"
         d="M 0,0 5,-5 -12.5,0 5,5 Z"
         id="path4847"
         inkscape:connector-curvature="0" />
    </marker>
    <marker
       inkscape:isstock="true"
       style="overflow:visible"
       id="Arrow2Lend-7"
       refX="0"
       refY="0"
       orient="auto"
       inkscape:stockid="Arrow2Lend">
      <path
         transform="matrix(-1.1,0,0,-1.1,-1.1,0)"
         d="M 8.7185878,4.0337352 -2.2072895,0.01601326 8.7185884,-4.0017078 c -1.7454984,2.3720609 -1.7354408,5.6174519 -6e-7,8.035443 z"
         style="fill:#000000;fill-opacity:1;fill-rule:evenodd;stroke:#000000;stroke-width:0.625;stroke-linejoin:round;stroke-opacity:1"
         id="path4865-2"
         inkscape:connector-curvature="0" />
    </marker>
    <marker
       inkscape:isstock="true"
       style="overflow:visible"
       id="Arrow2Lend-2"
       refX="0"
       refY="0"
       orient="auto"
       inkscape:stockid="Arrow2Lend">
      <path
         transform="matrix(-1.1,0,0,-1.1,-1.1,0)"
         d="M 8.7185878,4.0337352 -2.2072895,0.01601326 8.7185884,-4.0017078 c -1.7454984,2.3720609 -1.7354408,5.6174519 -6e-7,8.035443 z"
         style="fill:#000000;fill-opacity:1;fill-rule:evenodd;stroke:#000000;stroke-width:0.625;stroke-linejoin:round;stroke-opacity:1"
         id="path4865-0"
         inkscape:connector-curvature="0" />
    </marker>
  </defs>
  <sodipodi:namedview
     id="base"
     pagecolor="#ffffff"
     bordercolor="#666666"
     borderopacity="1.0"
     inkscape:pageopacity="0.0"
     inkscape:pageshadow="2"
     inkscape:zoom="1.4"
     inkscape:cx="244.49495"
     inkscape:cy="132.51173"
     inkscape:document-units="mm"
     inkscape:current-layer="g4064"
     showgrid="false"
     inkscape:window-width="1853"
     inkscape:window-height="1025"
     inkscape:window-x="3907"
     inkscape:window-y="27"
     inkscape:window-maximized="1"
     showguides="false"
     fit-margin-top="0"
     fit-margin-left="0"
     fit-margin-right="0"
     fit-margin-bottom="0" />
  <metadata
     id="metadata5">
    <rdf:RDF>
      <cc:Work
         rdf:about="">
        <dc:format>image/svg+xml</dc:format>
        <dc:type
           rdf:resource="http://purl.org/dc/dcmitype/StillImage" />
        <dc:title></dc:title>
      </cc:Work>
    </rdf:RDF>
  </metadata>
  <g
     inkscape:label="Layer 1"
     inkscape:groupmode="layer"
     id="layer1"
     transform="translate(-38.24609,-16.610455)">
    <g
       id="g4064">
      <g
         transform="rotate(31.157799,12.306399,98.519334)"
         id="g898">
        <g
           id="g841">
          <path
             sodipodi:nodetypes="sssssssssssssssssssssss"
             style="stroke-width:0.08342022"
             id="path819"
             d="m 35.060904,55.160116 h 0.881126 c 0.348996,0 0.348361,-0.330094 0.348361,-0.67909 0,-0.348996 6.35e-4,-0.584596 -0.348361,-0.584596 h -0.881126 c -1.277372,0 -2.31654,1.039495 -2.31654,2.316541 v 11.794185 c 0,1.277372 1.039168,2.316541 2.31654,2.316541 h 4.717479 c 1.277372,0 2.316866,-1.039169 2.316866,-2.316541 V 56.212971 c 0,-1.277373 -1.039494,-2.316541 -2.316866,-2.316541 h -0.886992 c -0.348996,0 -0.301114,0.307652 -0.301114,0.656648 0,0.348996 -0.04788,0.607038 0.301114,0.607038 h 0.886992 c 0.580683,0 1.05318,0.472498 1.05318,1.052855 v 11.794185 c 0,0.580683 -0.472497,1.052855 -1.05318,1.052855 h -4.717479 c -0.580683,0 -1.05318,-0.472172 -1.05318,-1.052855 V 56.212971 c 0,-0.580357 0.472497,-1.052855 1.05318,-1.052855 z"
             inkscape:connector-curvature="0" />
          <rect
             y="53.897526"
             x="35.735287"
             height="1.2650391"
             width="3.2328775"
             id="rect837"
             style="opacity:1;fill:#000000;fill-opacity:1;fill-rule:nonzero;stroke:none;stroke-width:3;stroke-miterlimit:4;stroke-dasharray:none;stroke-opacity:1" />
        </g>
        <g
           id="g851">
          <path
             style="stroke-width:0.08342022"
             id="path815"
             d="m 43.263457,50.464144 -1.330486,-2.01349 C 41.459495,47.734413 41.18675,46.902818 41.143737,46.04548 l -0.45099,-9.022093 c 0.373435,-0.280565 0.616527,-0.72569 0.616527,-1.227841 v -1.086092 c 0,-0.847237 -0.689194,-1.536757 -1.536757,-1.536757 h -4.705748 c -0.847562,0 -1.536756,0.68952 -1.536756,1.536757 v 1.086092 c 0,0.502151 0.243091,0.947276 0.616527,1.227841 l -0.45099,9.022093 c -0.04301,0.857338 -0.315759,1.689259 -0.788908,2.405174 l -1.330487,2.01349 c -0.853102,1.291385 -1.304093,2.791645 -1.304093,4.339481 v 7.008928 c 0,0.348997 0.282847,0.631843 0.631843,0.631843 0.348996,0 0.631843,-0.282846 0.631843,-0.631843 v -7.008928 c 0,-1.299205 0.37865,-2.558654 1.094564,-3.642792 l 1.330488,-2.01349 c 0.559828,-0.847237 0.897745,-1.822536 0.982794,-2.832703 h 4.952098 c 0.08538,1.009841 0.422967,1.985141 0.982795,2.832703 l 1.330487,2.01349 c 0.716241,1.083812 1.094564,2.343587 1.094564,3.642792 v 7.008928 c 0,0.348997 0.282847,0.631843 0.631843,0.631843 0.348997,0 0.631844,-0.282846 0.631844,-0.631843 v -7.008928 c 0,-1.547836 -0.450991,-3.048096 -1.303768,-4.339481 z m -3.820385,-13.131841 0.10786,2.158498 h -4.262578 l 0.10786,-2.158498 z m -4.217934,3.422184 h 4.389011 l 0.215068,4.296467 h -4.818821 z m -0.431439,-6.045033 c 0,-0.150548 0.122523,-0.273071 0.27307,-0.273071 h 4.705748 c 0.150548,0 0.273071,0.122523 0.273071,0.273071 v 1.086092 c 0,0.150547 -0.122523,0.273071 -0.273071,0.273071 h -4.705748 c -0.150547,0 -0.27307,-0.122524 -0.27307,-0.273071 z m 0,0"
             inkscape:connector-curvature="0" />
          <path
             style="stroke-width:0.08342022"
             id="path817"
             d="m 43.935381,64.139847 c -0.348996,0 -0.631843,0.282846 -0.631843,0.631843 v 8.761078 c 0,0.599583 -0.487812,1.087395 -1.087395,1.087395 h -9.592674 c -0.599908,0 -1.087721,-0.487812 -1.087721,-1.087395 V 64.77169 c 0,-0.348997 -0.282847,-0.631843 -0.631843,-0.631843 -0.348996,0 -0.631843,0.282846 -0.631843,0.631843 v 8.761078 c 0,1.296272 1.05481,2.351082 2.351407,2.351082 h 9.592674 c 1.296272,0 2.351082,-1.05481 2.351082,-2.351082 V 64.77169 c 0,-0.348997 -0.282847,-0.631843 -0.631844,-0.631843 z m 0,0"
             inkscape:connector-curvature="0" />
          <rect
             y="61.759384"
             x="30.273285"
             height="3.3383632"
             width="1.2570019"
             id="rect843"
             style="opacity:1;fill:#000000;fill-opacity:1;fill-rule:nonzero;stroke:none;stroke-width:3.18921399;stroke-miterlimit:4;stroke-dasharray:none;stroke-opacity:1" />
          <rect
             style="opacity:1;fill:#000000;fill-opacity:1;fill-rule:nonzero;stroke:none;stroke-width:3.18921399;stroke-miterlimit:4;stroke-dasharray:none;stroke-opacity:1"
             id="rect845"
             width="1.2570019"
             height="3.3383632"
             x="43.304001"
             y="61.759384" />
        </g>
        <rect
           style="opacity:1;fill:#000000;fill-opacity:1;fill-rule:nonzero;stroke:none;stroke-width:3.1062274;stroke-miterlimit:4;stroke-dasharray:none;stroke-opacity:1"
           id="rect853"
           width="12.435416"
           height="23.614061"
           x="31.220835"
           y="51.334377" />
        <rect
           style="opacity:1;fill:#ffffff;fill-opacity:1;fill-rule:nonzero;stroke:none;stroke-width:1;stroke-miterlimit:4;stroke-dasharray:none;stroke-opacity:1"
           id="rect855"
           width="7.3385749"
           height="14.364364"
           x="33.737988"
           y="54.961674"
           ry="1.4552083" />
        <rect
           style="opacity:1;fill:#000000;fill-opacity:1;fill-rule:nonzero;stroke:none;stroke-width:1.16189504;stroke-miterlimit:4;stroke-dasharray:none;stroke-opacity:1"
           id="rect857"
           width="6.3830729"
           height="7.1437497"
           x="34.296616"
           y="38.435936" />
        <rect
           style="opacity:1;fill:#000000;fill-opacity:1;fill-rule:nonzero;stroke:none;stroke-width:1;stroke-miterlimit:4;stroke-dasharray:none;stroke-opacity:1"
           id="rect859"
           width="10.289877"
           height="3.1103494"
           x="32.342953"
           y="49.645393" />
        <rect
           style="opacity:1;fill:#000000;fill-opacity:1;fill-rule:nonzero;stroke:none;stroke-width:1;stroke-miterlimit:4;stroke-dasharray:none;stroke-opacity:1"
           id="rect861"
           width="8.0448132"
           height="2.3152223"
           x="33.442101"
           y="48.265614" />
        <rect
           style="opacity:1;fill:#000000;fill-opacity:1;fill-rule:nonzero;stroke:none;stroke-width:1.12373149;stroke-miterlimit:4;stroke-dasharray:none;stroke-opacity:1"
           id="rect863"
           width="5.8990479"
           height="2.9219713"
           x="34.513065"
           y="33.961098" />
      </g>
      <g
         transform="translate(30.224005,3.5685068)"
         id="g1001">
        <rect
           style="opacity:1;fill:#000000;fill-opacity:1;fill-rule:nonzero;stroke:none;stroke-width:0.20595703;stroke-miterlimit:4;stroke-dasharray:none;stroke-opacity:1"
           id="rect902"
           width="8.0601349"
           height="3.6058502"
           x="-37.861122"
           y="70.448074"
           ry="1.8029251"
           transform="rotate(-90)" />
        <rect
           style="opacity:1;fill:#000000;fill-opacity:1;fill-rule:nonzero;stroke:none;stroke-width:0.20595703;stroke-miterlimit:4;stroke-dasharray:none;stroke-opacity:1"
           id="rect902-2"
           width="8.0601349"
           height="3.6058505"
           x="-34.838257"
           y="75.432732"
           ry="1.8029252"
           transform="rotate(-90)" />
        <rect
           style="opacity:1;fill:#000000;fill-opacity:1;fill-rule:nonzero;stroke:none;stroke-width:0.20595703;stroke-miterlimit:4;stroke-dasharray:none;stroke-opacity:1"
           id="rect902-2-0"
           width="8.0601349"
           height="3.6058505"
           x="-44.370438"
           y="74.854294"
           ry="1.8029252"
           transform="rotate(-90)" />
        <rect
           style="opacity:1;fill:#000000;fill-opacity:1;fill-rule:nonzero;stroke:none;stroke-width:0.20595703;stroke-miterlimit:4;stroke-dasharray:none;stroke-opacity:1"
           id="rect902-2-0-7"
           width="8.0601349"
           height="3.6058507"
           x="-40.715405"
           y="80.677574"
           ry="1.8029253"
           transform="rotate(-90)" />
        <rect
           style="opacity:1;fill:#000000;fill-opacity:1;fill-rule:nonzero;stroke:none;stroke-width:0.20595703;stroke-miterlimit:4;stroke-dasharray:none;stroke-opacity:1"
           id="rect902-2-0-7-3"
           width="8.0601349"
           height="3.6058509"
           x="-49.078617"
           y="69.836365"
           ry="1.8029253"
           transform="rotate(-90)" />
        <rect
           style="opacity:1;fill:#000000;fill-opacity:1;fill-rule:nonzero;stroke:none;stroke-width:0.20595703;stroke-miterlimit:4;stroke-dasharray:none;stroke-opacity:1"
           id="rect902-2-0-7-3-1"
           width="8.0601349"
           height="3.6058509"
           x="-50.441513"
           y="79.872231"
           ry="1.8029253"
           transform="rotate(-90)" />
        <rect
           style="opacity:1;fill:#000000;fill-opacity:1;fill-rule:nonzero;stroke:none;stroke-width:0.20595703;stroke-miterlimit:4;stroke-dasharray:none;stroke-opacity:1"
           id="rect902-2-0-7-3-1-1"
           width="8.0601349"
           height="3.6058509"
           x="-54.344345"
           y="74.854294"
           ry="1.8029253"
           transform="rotate(-90)" />
      </g>
      <g
         transform="matrix(0.05100689,0.05100689,-0.05100689,0.05100689,148.1185,55.701249)"
         id="g1064">
        <g
           id="g1007">
          <g
             id="g1005">
            <path
               inkscape:connector-curvature="0"
               d="m 424.145,283.785 c -0.205,-0.205 -0.421,-0.396 -0.645,-0.571 -34.849,-31.621 -75.27,-30.922 -110.646,-25.464 5.711,-37.038 6.107,-79.275 -29.511,-114.895 -35.621,-35.622 -77.867,-35.222 -114.914,-29.508 5.483,-35.521 6.168,-76.13 -25.833,-111.075 -1.29,-1.407 -3.099,-2.229 -5.009,-2.271 -1.909,-0.042 -3.753,0.698 -5.104,2.049 l -21.25,21.25 c -2.608,2.608 -2.744,6.794 -0.311,9.567 1.896,2.159 3.641,4.421 5.199,6.738 L 39.608,116.12 c -2.319,-1.563 -4.581,-3.308 -6.739,-5.201 -2.773,-2.434 -6.959,-2.297 -9.567,0.312 L 2.052,132.48 c -1.351,1.353 -2.091,3.194 -2.048,5.104 0.041,1.909 0.861,3.718 2.271,5.008 34.944,32.002 75.549,31.319 111.069,25.838 -5.714,37.042 -6.113,79.282 29.505,114.901 35.621,35.621 77.871,35.218 114.919,29.502 -5.481,35.528 -6.169,76.141 25.835,111.089 1.29,1.409 3.1,2.229 5.01,2.271 1.908,0.042 3.753,-0.697 5.104,-2.05 l 21.25,-21.25 c 2.607,-2.606 2.744,-6.794 0.312,-9.564 -1.896,-2.159 -3.641,-4.422 -5.201,-6.74 l 76.518,-76.518 c 2.316,1.561 4.569,3.3 6.717,5.186 2.772,2.436 6.96,2.3 9.568,-0.31 l 21.25,-21.251 c 0.006,-0.005 0.011,-0.012 0.014,-0.016 2.734,-2.729 2.734,-7.161 0,-9.895 z M 122.204,122.207 c -20.222,3.923 -37.089,6.169 -52.217,4.549 l 56.77,-56.771 c 1.618,15.132 -0.628,31.998 -4.553,52.222 z m 37.367,37.367 c 18.818,-3.652 34.602,-5.854 48.963,-4.841 l -53.801,53.803 c -1.015,-14.364 1.184,-30.146 4.838,-48.962 z m 14.392,92.646 c -3.795,-3.795 -7.055,-7.893 -9.705,-12.197 l 75.766,-75.766 c 4.31,2.652 8.409,5.914 12.207,9.712 3.8,3.798 7.062,7.897 9.714,12.208 l -75.762,75.762 c -4.313,-2.652 -8.418,-5.917 -12.22,-9.719 z m 92.668,14.388 c -18.814,3.651 -34.596,5.854 -48.951,4.846 l 53.786,-53.787 c 1.013,14.356 -1.185,30.133 -4.835,48.941 z m 32.812,89.605 c -1.619,-15.133 0.628,-32.009 4.555,-52.239 20.228,-3.925 37.098,-6.17 52.229,-4.545 z"
               id="path1003" />
          </g>
        </g>
        <g
           id="g1009" />
        <g
           id="g1011" />
        <g
           id="g1013" />
        <g
           id="g1015" />
        <g
           id="g1017" />
        <g
           id="g1019" />
        <g
           id="g1021" />
        <g
           id="g1023" />
        <g
           id="g1025" />
        <g
           id="g1027" />
        <g
           id="g1029" />
        <g
           id="g1031" />
        <g
           id="g1033" />
        <g
           id="g1035" />
        <g
           id="g1037" />
      </g>
      <g
         transform="translate(35.102207,14.719738)"
         id="g7120">
        <path
           style="fill:none;fill-rule:evenodd;stroke:#000000;stroke-width:3;stroke-linecap:round;stroke-linejoin:round;stroke-miterlimit:4;stroke-dasharray:none;stroke-opacity:1"
           d="m 37.493853,35.218932 5.612659,-7.951269 h 11.599497"
           id="path4842"
           inkscape:connector-curvature="0" />
        <path
           style="fill:none;fill-rule:evenodd;stroke:#000000;stroke-width:1;stroke-linecap:round;stroke-linejoin:round;stroke-miterlimit:4;stroke-dasharray:none;stroke-opacity:1;marker-end:url(#Arrow2Lend)"
           d="m 52.261936,27.264911 h 5.19171"
           id="path5126"
           inkscape:connector-curvature="0" />
      </g>
      <g
         transform="translate(42.33801,12.962154)"
         id="g8170">
        <path
           style="fill:none;fill-rule:evenodd;stroke:#000000;stroke-width:3;stroke-linecap:round;stroke-linejoin:round;stroke-miterlimit:4;stroke-dasharray:none;stroke-opacity:1"
           d="M 97.804137,34.884797 92.191478,26.933528 H 80.591981"
           id="path4842-4"
           inkscape:connector-curvature="0" />
        <path
           style="fill:none;fill-rule:evenodd;stroke:#000000;stroke-width:1;stroke-linecap:round;stroke-linejoin:round;stroke-miterlimit:4;stroke-dasharray:none;stroke-opacity:1;marker-end:url(#Arrow2Lend-7)"
           d="m 97.913539,35.671772 2.595851,4.496153"
           id="path5126-5"
           inkscape:connector-curvature="0" />
      </g>
      <text
         id="text130"
         y="106.33974"
         x="38.066174"
         style="font-style:normal;font-weight:normal;font-size:10.58333302px;line-height:1.25;font-family:sans-serif;letter-spacing:0px;word-spacing:0px;fill:#000000;fill-opacity:1;stroke:none;stroke-width:0.26458332"
         xml:space="preserve"><tspan
           style="font-style:normal;font-variant:normal;font-weight:bold;font-stretch:normal;font-family:'Century Schoolbook L';-inkscape-font-specification:'Century Schoolbook L Bold';stroke-width:0.26458332"
           y="106.33974"
           x="38.066174"
           id="tspan128"
           sodipodi:role="line">Beer</tspan></text>
      <text
         id="text130-6"
         y="24.251621"
         x="92.460869"
         style="font-style:normal;font-weight:normal;font-size:10.58333302px;line-height:1.25;font-family:sans-serif;letter-spacing:0px;word-spacing:0px;fill:#000000;fill-opacity:1;stroke:none;stroke-width:0.26458332"
         xml:space="preserve"><tspan
           style="font-style:normal;font-variant:normal;font-weight:bold;font-stretch:normal;font-family:'Century Schoolbook L';-inkscape-font-specification:'Century Schoolbook L Bold';stroke-width:0.26458332"
           y="24.251621"
           x="92.460869"
           id="tspan128-9"
           sodipodi:role="line">Yeast</tspan></text>
      <text
         id="text130-1"
         y="106.46145"
         x="135.0748"
         style="font-style:normal;font-weight:normal;font-size:10.58333302px;line-height:1.25;font-family:sans-serif;letter-spacing:0px;word-spacing:0px;fill:#000000;fill-opacity:1;stroke:none;stroke-width:0.26458332"
         xml:space="preserve"><tspan
           style="font-style:normal;font-variant:normal;font-weight:bold;font-stretch:normal;font-family:'Century Schoolbook L';-inkscape-font-specification:'Century Schoolbook L Bold';stroke-width:0.26458332"
           y="106.46145"
           x="135.0748"
           id="tspan128-0"
           sodipodi:role="line">DNA</tspan></text>
      <text
         id="text160-6"
         y="67.175598"
         x="107.28873"
         style="font-style:normal;font-weight:normal;font-size:6.24094915px;line-height:1.25;font-family:sans-serif;letter-spacing:0px;word-spacing:0px;fill:#000000;fill-opacity:1;stroke:none;stroke-width:0.15602373"
         xml:space="preserve"><tspan
           id="tspan166-9"
           style="font-style:normal;font-variant:normal;font-weight:bold;font-stretch:normal;font-size:6.24095011px;line-height:1;font-family:'Century Schoolbook L';-inkscape-font-specification:'Century Schoolbook L Bold';text-align:center;text-anchor:middle;stroke-width:0.15602373"
           y="67.175598"
           x="107.28873"
           sodipodi:role="line">Extraction</tspan></text>
    </g>
  </g>
</svg>
