<?xml version="1.0" encoding="UTF-8" standalone="no"?>
<!-- Created with Inkscape (http://www.inkscape.org/) -->
<svg xmlns:dc="http://purl.org/dc/elements/1.1/" xmlns:cc="http://web.resource.org/cc/" xmlns:rdf="http://www.w3.org/1999/02/22-rdf-syntax-ns#" xmlns:svg="http://www.w3.org/2000/svg" xmlns="http://www.w3.org/2000/svg" xmlns:sodipodi="http://sodipodi.sourceforge.net/DTD/sodipodi-0.dtd" xmlns:inkscape="http://www.inkscape.org/namespaces/inkscape" version="1.0" width="382.10968" height="295.64865" id="svg5676" sodipodi:version="0.32" inkscape:version="0.44" sodipodi:docname="Yeast_cell_english.svg" sodipodi:docbase="/home/grimboy/Desktop">
  <metadata id="metadata155">
    <rdf:RDF>
      <cc:Work rdf:about="">
        <dc:format>image/svg+xml</dc:format>
        <dc:type rdf:resource="http://purl.org/dc/dcmitype/StillImage"/>
      </cc:Work>
    </rdf:RDF>
  </metadata>
  <sodipodi:namedview inkscape:window-height="733" inkscape:window-width="1280" inkscape:pageshadow="2" inkscape:pageopacity="0.0" guidetolerance="10.0" gridtolerance="10.0" objecttolerance="10.0" borderopacity="1.0" bordercolor="#666666" pagecolor="#ffffff" id="base" inkscape:zoom="1.3766341" inkscape:cx="191.05484" inkscape:cy="147.46112" inkscape:window-x="0" inkscape:window-y="138" inkscape:current-layer="g5500"/>
  <defs id="defs5678"/>
  <g transform="translate(-143.2309,-10.25216)" id="layer1">
    <g transform="translate(-283.9567,-306.6564)" id="g5500">
      <path d="M 577.11321,464.45698 C 553.62208,406.93443 605.26724,362.81744 651.25909,362.81744 C 697.25093,362.81744 734.57765,400.1352 734.57765,446.11601 C 734.57765,492.09681 697.25093,529.41457 651.25909,529.41457 C 639.76112,529.41457 628.80473,527.08221 618.83775,522.86523 C 618.83775,522.86523 595.45858,527.88616 615.33273,537.05664 C 635.20689,546.22712 754.4518,543.1703 745.27912,449.93704 C 736.10643,356.70379 669.01261,309.62668 583.22833,373.51634 C 545.25934,401.79455 546.11441,460.64111 558.08386,480.64517 C 583.14685,496.02421 578.80019,479.66338 577.11321,464.45698 z " style="fill:white;fill-opacity:1;stroke:black;stroke-width:1;stroke-opacity:1" id="path4016"/>
      <path d="M 567.94052,485.09056 C 567.94052,485.09056 567.94052,517.18726 607.68883,527.88616" style="fill:none;fill-rule:evenodd;stroke:#c80000;stroke-width:1px;stroke-linecap:butt;stroke-linejoin:miter;stroke-opacity:1" id="path4613"/>
      <path d="M 575.58397,485.85483 C 575.58397,485.85483 579.09321,518.01522 614.18567,524.44729" style="fill:none;fill-rule:evenodd;stroke:#c80000;stroke-width:0.99999994px;stroke-linecap:butt;stroke-linejoin:miter;stroke-opacity:1" id="path4615"/>
      <path d="M 679.57517,489.36568 C 673.29142,503.75831 666.73376,512.78949 652.15518,508.73206 C 639.8756,505.31445 627.87708,500.05591 624.73521,489.36568 C 621.72013,479.10687 634.16311,471.99288 652.15518,469.9993 C 667.19842,468.33244 685.00205,469.27704 679.57517,489.36568 z " style="fill:#00c843;fill-opacity:1;stroke:black;stroke-width:1.00000036;stroke-opacity:1" id="path4619"/>
      <path d="M 696.02274,402.73615 C 701.20675,426.6012 703.79123,442.80204 690.1602,454.20499 C 676.52918,465.60793 620.74407,461.26331 610.16499,447.7383 C 599.58592,434.21329 605.98184,396.56041 626.34681,384.80636 C 646.71177,373.0523 690.83874,378.8711 696.02274,402.73615 z " style="fill:#06f;fill-opacity:1;stroke:black;stroke-width:0.99999982;stroke-opacity:1" id="path4622"/>
      <path d="M 701.5 468.98718 A 1.5 1.375 0 1 1  698.5,468.98718 A 1.5 1.375 0 1 1  701.5 468.98718 z" transform="matrix(0.972861,0,0,0.972628,-49.687,33.71731)" style="fill:black;fill-opacity:1;stroke:none;stroke-opacity:1" id="path4624"/>
      <path d="M 701.5 468.98718 A 1.5 1.375 0 1 1  698.5,468.98718 A 1.5 1.375 0 1 1  701.5 468.98718 z" transform="matrix(0.972861,0,0,0.972628,-46.62944,30.66048)" style="fill:black;fill-opacity:1;stroke:none;stroke-opacity:1" id="path4626"/>
      <path d="M 701.5 468.98718 A 1.5 1.375 0 1 1  698.5,468.98718 A 1.5 1.375 0 1 1  701.5 468.98718 z" transform="matrix(0.972861,0,0,0.972628,-46.62944,36.77414)" style="fill:black;fill-opacity:1;stroke:none;stroke-opacity:1" id="path4628"/>
      <path d="M 701.5 468.98718 A 1.5 1.375 0 1 1  698.5,468.98718 A 1.5 1.375 0 1 1  701.5 468.98718 z" transform="matrix(0.972861,0,0,0.972628,-43.57188,33.71731)" style="fill:black;fill-opacity:1;stroke:none;stroke-opacity:1" id="path4630"/>
      <path d="M 701.5 468.98718 A 1.5 1.375 0 1 1  698.5,468.98718 A 1.5 1.375 0 1 1  701.5 468.98718 z" transform="matrix(0.972861,0,0,0.972628,-46.62944,33.71731)" style="fill:black;fill-opacity:1;stroke:none;stroke-opacity:1" id="path4632"/>
      <path d="M 701.5 468.98718 A 1.5 1.375 0 1 1  698.5,468.98718 A 1.5 1.375 0 1 1  701.5 468.98718 z" transform="matrix(0.972861,0,0,0.972628,-43.57188,30.66048)" style="fill:black;fill-opacity:1;stroke:none;stroke-opacity:1" id="path4634"/>
      <path d="M 701.5 468.98718 A 1.5 1.375 0 1 1  698.5,468.98718 A 1.5 1.375 0 1 1  701.5 468.98718 z" transform="matrix(0.972861,0,0,0.972628,-50.60473,30.81302)" style="fill:black;fill-opacity:1;stroke:none;stroke-opacity:1" id="path4636"/>
      <path d="M 701.5 468.98718 A 1.5 1.375 0 1 1  698.5,468.98718 A 1.5 1.375 0 1 1  701.5 468.98718 z" transform="matrix(0.472488,0.850216,-0.850419,0.472375,735.6729,-329.2839)" style="fill:black;fill-opacity:1;stroke:none;stroke-opacity:1" id="path4638"/>
      <path d="M 701.5 468.98718 A 1.5 1.375 0 1 1  698.5,468.98718 A 1.5 1.375 0 1 1  701.5 468.98718 z" transform="matrix(0.472488,0.850216,-0.850419,0.472375,739.8306,-328.0964)" style="fill:black;fill-opacity:1;stroke:none;stroke-opacity:1" id="path4640"/>
      <path d="M 701.5 468.98718 A 1.5 1.375 0 1 1  698.5,468.98718 A 1.5 1.375 0 1 1  701.5 468.98718 z" transform="matrix(0.472488,0.850216,-0.850419,0.472375,734.4852,-325.1272)" style="fill:black;fill-opacity:1;stroke:none;stroke-opacity:1" id="path4642"/>
      <path d="M 701.5 468.98718 A 1.5 1.375 0 1 1  698.5,468.98718 A 1.5 1.375 0 1 1  701.5 468.98718 z" transform="matrix(0.472488,0.850216,-0.850419,0.472375,738.6428,-323.9397)" style="fill:black;fill-opacity:1;stroke:none;stroke-opacity:1" id="path4644"/>
      <path d="M 701.5 468.98718 A 1.5 1.375 0 1 1  698.5,468.98718 A 1.5 1.375 0 1 1  701.5 468.98718 z" transform="matrix(0.472488,0.850216,-0.850419,0.472375,737.1579,-326.6118)" style="fill:black;fill-opacity:1;stroke:none;stroke-opacity:1" id="path4646"/>
      <path d="M 701.5 468.98718 A 1.5 1.375 0 1 1  698.5,468.98718 A 1.5 1.375 0 1 1  701.5 468.98718 z" transform="matrix(0.472488,0.850216,-0.850419,0.472375,741.3156,-325.4243)" style="fill:black;fill-opacity:1;stroke:none;stroke-opacity:1" id="path4648"/>
      <path d="M 701.5 468.98718 A 1.5 1.375 0 1 1  698.5,468.98718 A 1.5 1.375 0 1 1  701.5 468.98718 z" transform="matrix(0.472488,0.850216,-0.850419,0.472375,737.7665,-331.4964)" style="fill:black;fill-opacity:1;stroke:none;stroke-opacity:1" id="path4650"/>
      <path d="M 699.72499,473.72956 C 697.05626,475.5862 690.97203,473.80159 689.88727,470.31623 C 688.80254,466.83088 690.0802,461.27208 694.09548,458.99708 C 697.89903,456.84204 703.10289,461.19942 704.24327,464.8635 C 705.38364,468.52762 702.49166,471.80478 699.72499,473.72956 z " style="fill:green;fill-opacity:1;stroke:black;stroke-width:1.00000012;stroke-opacity:1" id="path4654"/>
      <path d="M 701.5 468.98718 A 1.5 1.375 0 1 1  698.5,468.98718 A 1.5 1.375 0 1 1  701.5 468.98718 z" transform="matrix(-0.297768,0.925948,-0.926171,-0.297697,1336.578,-41.67004)" style="fill:black;fill-opacity:1;stroke:none;stroke-opacity:1" id="path4669"/>
      <path d="M 701.5 468.98718 A 1.5 1.375 0 1 1  698.5,468.98718 A 1.5 1.375 0 1 1  701.5 468.98718 z" transform="matrix(-0.297768,0.925948,-0.926171,-0.297697,1338.553,-37.8244)" style="fill:black;fill-opacity:1;stroke:none;stroke-opacity:1" id="path4671"/>
      <path d="M 701.5 468.98718 A 1.5 1.375 0 1 1  698.5,468.98718 A 1.5 1.375 0 1 1  701.5 468.98718 z" transform="matrix(-0.297768,0.925948,-0.926171,-0.297697,1340.56,-44.56486)" style="fill:black;fill-opacity:1;stroke:none;stroke-opacity:1" id="path4673"/>
      <path d="M 701.5 468.98718 A 1.5 1.375 0 1 1  698.5,468.98718 A 1.5 1.375 0 1 1  701.5 468.98718 z" transform="matrix(0.472488,0.850216,-0.850419,0.472375,682.537,-376.5118)" style="fill:black;fill-opacity:1;stroke:none;stroke-opacity:1" id="path4675"/>
      <path d="M 701.5 468.98718 A 1.5 1.375 0 1 1  698.5,468.98718 A 1.5 1.375 0 1 1  701.5 468.98718 z" transform="matrix(0.472488,0.850216,-0.850419,0.472375,681.3493,-372.3551)" style="fill:black;fill-opacity:1;stroke:none;stroke-opacity:1" id="path4677"/>
      <path d="M 701.5 468.98718 A 1.5 1.375 0 1 1  698.5,468.98718 A 1.5 1.375 0 1 1  701.5 468.98718 z" transform="matrix(0.472488,0.850216,-0.850419,0.472375,684.0221,-373.8398)" style="fill:black;fill-opacity:1;stroke:none;stroke-opacity:1" id="path4679"/>
      <path d="M 701.5 468.98718 A 1.5 1.375 0 1 1  698.5,468.98718 A 1.5 1.375 0 1 1  701.5 468.98718 z" transform="matrix(0.472488,0.850216,-0.850419,0.472375,688.1798,-372.6523)" style="fill:black;fill-opacity:1;stroke:none;stroke-opacity:1" id="path4681"/>
      <path d="M 701.5 468.98718 A 1.5 1.375 0 1 1  698.5,468.98718 A 1.5 1.375 0 1 1  701.5 468.98718 z" transform="matrix(0.472488,0.850216,-0.850419,0.472375,684.6307,-378.7245)" style="fill:black;fill-opacity:1;stroke:none;stroke-opacity:1" id="path4683"/>
      <path d="M 701.5 468.98718 A 1.5 1.375 0 1 1  698.5,468.98718 A 1.5 1.375 0 1 1  701.5 468.98718 z" transform="matrix(0.472488,0.850216,-0.850419,0.472375,682.346,-384.9181)" style="fill:black;fill-opacity:1;stroke:none;stroke-opacity:1" id="path4685"/>
      <path d="M 701.5 468.98718 A 1.5 1.375 0 1 1  698.5,468.98718 A 1.5 1.375 0 1 1  701.5 468.98718 z" transform="matrix(0.472488,0.850216,-0.850419,0.472375,681.1582,-380.7614)" style="fill:black;fill-opacity:1;stroke:none;stroke-opacity:1" id="path4687"/>
      <path d="M 701.5 468.98718 A 1.5 1.375 0 1 1  698.5,468.98718 A 1.5 1.375 0 1 1  701.5 468.98718 z" transform="matrix(0.472488,0.850216,-0.850419,0.472375,683.831,-382.2461)" style="fill:black;fill-opacity:1;stroke:none;stroke-opacity:1" id="path4689"/>
      <path d="M 701.5 468.98718 A 1.5 1.375 0 1 1  698.5,468.98718 A 1.5 1.375 0 1 1  701.5 468.98718 z" transform="matrix(0.472488,0.850216,-0.850419,0.472375,687.9887,-381.0585)" style="fill:black;fill-opacity:1;stroke:none;stroke-opacity:1" id="path4691"/>
      <path d="M 701.5 468.98718 A 1.5 1.375 0 1 1  698.5,468.98718 A 1.5 1.375 0 1 1  701.5 468.98718 z" transform="matrix(0.472488,0.850216,-0.850419,0.472375,684.4396,-387.1308)" style="fill:black;fill-opacity:1;stroke:none;stroke-opacity:1" id="path4693"/>
      <path d="M 701.5 468.98718 A 1.5 1.375 0 1 1  698.5,468.98718 A 1.5 1.375 0 1 1  701.5 468.98718 z" transform="matrix(0.472488,0.850216,-0.850419,0.472375,681.5816,-392.9423)" style="fill:black;fill-opacity:1;stroke:none;stroke-opacity:1" id="path4695"/>
      <path d="M 701.5 468.98718 A 1.5 1.375 0 1 1  698.5,468.98718 A 1.5 1.375 0 1 1  701.5 468.98718 z" transform="matrix(0.472488,0.850216,-0.850419,0.472375,680.3939,-388.7856)" style="fill:black;fill-opacity:1;stroke:none;stroke-opacity:1" id="path4697"/>
      <path d="M 701.5 468.98718 A 1.5 1.375 0 1 1  698.5,468.98718 A 1.5 1.375 0 1 1  701.5 468.98718 z" transform="matrix(0.472488,0.850216,-0.850419,0.472375,683.0666,-390.2703)" style="fill:black;fill-opacity:1;stroke:none;stroke-opacity:1" id="path4699"/>
      <path d="M 701.5 468.98718 A 1.5 1.375 0 1 1  698.5,468.98718 A 1.5 1.375 0 1 1  701.5 468.98718 z" transform="matrix(0.472488,0.850216,-0.850419,0.472375,687.2243,-389.0827)" style="fill:black;fill-opacity:1;stroke:none;stroke-opacity:1" id="path4701"/>
      <path d="M 701.5 468.98718 A 1.5 1.375 0 1 1  698.5,468.98718 A 1.5 1.375 0 1 1  701.5 468.98718 z" transform="matrix(0.472488,0.850216,-0.850419,0.472375,683.6752,-395.155)" style="fill:black;fill-opacity:1;stroke:none;stroke-opacity:1" id="path4703"/>
      <path d="M 701.5 468.98718 A 1.5 1.375 0 1 1  698.5,468.98718 A 1.5 1.375 0 1 1  701.5 468.98718 z" transform="matrix(0.726191,0.647227,-0.647382,0.726017,406.4695,-377.6153)" style="fill:black;fill-opacity:1;stroke:none;stroke-opacity:1" id="path4705"/>
      <path d="M 701.5 468.98718 A 1.5 1.375 0 1 1  698.5,468.98718 A 1.5 1.375 0 1 1  701.5 468.98718 z" transform="matrix(0.726191,0.647227,-0.647382,0.726017,406.7173,-373.2995)" style="fill:black;fill-opacity:1;stroke:none;stroke-opacity:1" id="path4707"/>
      <path d="M 701.5 468.98718 A 1.5 1.375 0 1 1  698.5,468.98718 A 1.5 1.375 0 1 1  701.5 468.98718 z" transform="matrix(0.726191,0.647227,-0.647382,0.726017,408.752,-375.5815)" style="fill:black;fill-opacity:1;stroke:none;stroke-opacity:1" id="path4709"/>
      <path d="M 701.5 468.98718 A 1.5 1.375 0 1 1  698.5,468.98718 A 1.5 1.375 0 1 1  701.5 468.98718 z" transform="matrix(0.726191,0.647227,-0.647382,0.726017,413.0688,-375.8289)" style="fill:black;fill-opacity:1;stroke:none;stroke-opacity:1" id="path4711"/>
      <path d="M 701.5 468.98718 A 1.5 1.375 0 1 1  698.5,468.98718 A 1.5 1.375 0 1 1  701.5 468.98718 z" transform="matrix(0.726191,0.647227,-0.647382,0.726017,407.7176,-380.394)" style="fill:black;fill-opacity:1;stroke:none;stroke-opacity:1" id="path4713"/>
      <path d="M 701.5 468.98718 A 1.5 1.375 0 1 1  698.5,468.98718 A 1.5 1.375 0 1 1  701.5 468.98718 z" transform="matrix(0.472488,0.850216,-0.850419,0.472375,688.5582,-372.5343)" style="fill:black;fill-opacity:1;stroke:none;stroke-opacity:1" id="path4715"/>
      <path d="M 701.5 468.98718 A 1.5 1.375 0 1 1  698.5,468.98718 A 1.5 1.375 0 1 1  701.5 468.98718 z" transform="matrix(0.472488,0.850216,-0.850419,0.472375,687.3704,-368.3776)" style="fill:black;fill-opacity:1;stroke:none;stroke-opacity:1" id="path4717"/>
      <path d="M 701.5 468.98718 A 1.5 1.375 0 1 1  698.5,468.98718 A 1.5 1.375 0 1 1  701.5 468.98718 z" transform="matrix(0.472488,0.850216,-0.850419,0.472375,690.0432,-369.8621)" style="fill:black;fill-opacity:1;stroke:none;stroke-opacity:1" id="path4719"/>
      <path d="M 701.5 468.98718 A 1.5 1.375 0 1 1  698.5,468.98718 A 1.5 1.375 0 1 1  701.5 468.98718 z" transform="matrix(0.472488,0.850216,-0.850419,0.472375,694.2009,-368.6747)" style="fill:black;fill-opacity:1;stroke:none;stroke-opacity:1" id="path4721"/>
      <path d="M 701.5 468.98718 A 1.5 1.375 0 1 1  698.5,468.98718 A 1.5 1.375 0 1 1  701.5 468.98718 z" transform="matrix(0.472488,0.850216,-0.850419,0.472375,690.6518,-374.7468)" style="fill:black;fill-opacity:1;stroke:none;stroke-opacity:1" id="path4723"/>
      <path d="M 701.5 468.98718 A 1.5 1.375 0 1 1  698.5,468.98718 A 1.5 1.375 0 1 1  701.5 468.98718 z" transform="matrix(0.472488,0.850216,-0.850419,0.472375,688.3671,-380.9405)" style="fill:black;fill-opacity:1;stroke:none;stroke-opacity:1" id="path4725"/>
      <path d="M 701.5 468.98718 A 1.5 1.375 0 1 1  698.5,468.98718 A 1.5 1.375 0 1 1  701.5 468.98718 z" transform="matrix(0.472488,0.850216,-0.850419,0.472375,687.1793,-376.7839)" style="fill:black;fill-opacity:1;stroke:none;stroke-opacity:1" id="path4727"/>
      <path d="M 701.5 468.98718 A 1.5 1.375 0 1 1  698.5,468.98718 A 1.5 1.375 0 1 1  701.5 468.98718 z" transform="matrix(0.472488,0.850216,-0.850419,0.472375,689.8521,-378.2686)" style="fill:black;fill-opacity:1;stroke:none;stroke-opacity:1" id="path4729"/>
      <path d="M 701.5 468.98718 A 1.5 1.375 0 1 1  698.5,468.98718 A 1.5 1.375 0 1 1  701.5 468.98718 z" transform="matrix(0.472488,0.850216,-0.850419,0.472375,694.0098,-377.081)" style="fill:black;fill-opacity:1;stroke:none;stroke-opacity:1" id="path4731"/>
      <path d="M 701.5 468.98718 A 1.5 1.375 0 1 1  698.5,468.98718 A 1.5 1.375 0 1 1  701.5 468.98718 z" transform="matrix(0.472488,0.850216,-0.850419,0.472375,690.4607,-383.1532)" style="fill:black;fill-opacity:1;stroke:none;stroke-opacity:1" id="path4733"/>
      <path d="M 701.5 468.98718 A 1.5 1.375 0 1 1  698.5,468.98718 A 1.5 1.375 0 1 1  701.5 468.98718 z" transform="matrix(0.472488,0.850216,-0.850419,0.472375,687.6027,-388.9647)" style="fill:black;fill-opacity:1;stroke:none;stroke-opacity:1" id="path4735"/>
      <path d="M 701.5 468.98718 A 1.5 1.375 0 1 1  698.5,468.98718 A 1.5 1.375 0 1 1  701.5 468.98718 z" transform="matrix(0.472488,0.850216,-0.850419,0.472375,686.415,-384.808)" style="fill:black;fill-opacity:1;stroke:none;stroke-opacity:1" id="path4737"/>
      <path d="M 701.5 468.98718 A 1.5 1.375 0 1 1  698.5,468.98718 A 1.5 1.375 0 1 1  701.5 468.98718 z" transform="matrix(0.472488,0.850216,-0.850419,0.472375,689.0877,-386.2928)" style="fill:black;fill-opacity:1;stroke:none;stroke-opacity:1" id="path4739"/>
      <path d="M 701.5 468.98718 A 1.5 1.375 0 1 1  698.5,468.98718 A 1.5 1.375 0 1 1  701.5 468.98718 z" transform="matrix(0.472488,0.850216,-0.850419,0.472375,693.2454,-385.1052)" style="fill:black;fill-opacity:1;stroke:none;stroke-opacity:1" id="path4741"/>
      <path d="M 701.5 468.98718 A 1.5 1.375 0 1 1  698.5,468.98718 A 1.5 1.375 0 1 1  701.5 468.98718 z" transform="matrix(0.472488,0.850216,-0.850419,0.472375,689.6963,-391.1774)" style="fill:black;fill-opacity:1;stroke:none;stroke-opacity:1" id="path4743"/>
      <path d="M 701.5 468.98718 A 1.5 1.375 0 1 1  698.5,468.98718 A 1.5 1.375 0 1 1  701.5 468.98718 z" transform="matrix(0.726191,0.647227,-0.647382,0.726017,412.4906,-373.6378)" style="fill:black;fill-opacity:1;stroke:none;stroke-opacity:1" id="path4745"/>
      <path d="M 701.5 468.98718 A 1.5 1.375 0 1 1  698.5,468.98718 A 1.5 1.375 0 1 1  701.5 468.98718 z" transform="matrix(0.726191,0.647227,-0.647382,0.726017,412.7384,-369.3219)" style="fill:black;fill-opacity:1;stroke:none;stroke-opacity:1" id="path4747"/>
      <path d="M 701.5 468.98718 A 1.5 1.375 0 1 1  698.5,468.98718 A 1.5 1.375 0 1 1  701.5 468.98718 z" transform="matrix(0.726191,0.647227,-0.647382,0.726017,420.506,-341.7997)" style="fill:black;fill-opacity:1;stroke:none;stroke-opacity:1" id="path4749"/>
      <path d="M 701.5 468.98718 A 1.5 1.375 0 1 1  698.5,468.98718 A 1.5 1.375 0 1 1  701.5 468.98718 z" transform="matrix(0.726191,0.647227,-0.647382,0.726017,419.0899,-371.8514)" style="fill:black;fill-opacity:1;stroke:none;stroke-opacity:1" id="path4751"/>
      <path d="M 701.5 468.98718 A 1.5 1.375 0 1 1  698.5,468.98718 A 1.5 1.375 0 1 1  701.5 468.98718 z" transform="matrix(0.726191,0.647227,-0.647382,0.726017,420.8093,-349.2871)" style="fill:black;fill-opacity:1;stroke:none;stroke-opacity:1" id="path4753"/>
      <path d="M 701.5 468.98718 A 1.5 1.375 0 1 1  698.5,468.98718 A 1.5 1.375 0 1 1  701.5 468.98718 z" transform="matrix(0.84326,0.485035,-0.485151,0.843058,278.0802,-287.8596)" style="fill:black;fill-opacity:1;stroke:none;stroke-opacity:1" id="path4755"/>
      <path d="M 701.5 468.98718 A 1.5 1.375 0 1 1  698.5,468.98718 A 1.5 1.375 0 1 1  701.5 468.98718 z" transform="matrix(0.84326,0.485035,-0.485151,0.843058,279.2057,-283.6857)" style="fill:black;fill-opacity:1;stroke:none;stroke-opacity:1" id="path4757"/>
      <path d="M 701.5 468.98718 A 1.5 1.375 0 1 1  698.5,468.98718 A 1.5 1.375 0 1 1  701.5 468.98718 z" transform="matrix(0.84326,0.485035,-0.485151,0.843058,280.7307,-286.3353)" style="fill:black;fill-opacity:1;stroke:none;stroke-opacity:1" id="path4759"/>
      <path d="M 701.5 468.98718 A 1.5 1.375 0 1 1  698.5,468.98718 A 1.5 1.375 0 1 1  701.5 468.98718 z" transform="matrix(0.84326,0.485035,-0.485151,0.843058,284.9055,-287.4604)" style="fill:black;fill-opacity:1;stroke:none;stroke-opacity:1" id="path4761"/>
      <path d="M 701.5 468.98718 A 1.5 1.375 0 1 1  698.5,468.98718 A 1.5 1.375 0 1 1  701.5 468.98718 z" transform="matrix(0.84326,0.485035,-0.485151,0.843058,278.7335,-290.8345)" style="fill:black;fill-opacity:1;stroke:none;stroke-opacity:1" id="path4763"/>
      <path d="M 701.5 468.98718 A 1.5 1.375 0 1 1  698.5,468.98718 A 1.5 1.375 0 1 1  701.5 468.98718 z" transform="matrix(0.84326,0.485035,-0.485151,0.843058,273.5819,-294.9643)" style="fill:black;fill-opacity:1;stroke:none;stroke-opacity:1" id="path4765"/>
      <path d="M 701.5 468.98718 A 1.5 1.375 0 1 1  698.5,468.98718 A 1.5 1.375 0 1 1  701.5 468.98718 z" transform="matrix(0.84326,0.485035,-0.485151,0.843058,274.7074,-290.7904)" style="fill:black;fill-opacity:1;stroke:none;stroke-opacity:1" id="path4767"/>
      <path d="M 701.5 468.98718 A 1.5 1.375 0 1 1  698.5,468.98718 A 1.5 1.375 0 1 1  701.5 468.98718 z" transform="matrix(0.84326,0.485035,-0.485151,0.843058,276.2324,-293.4401)" style="fill:black;fill-opacity:1;stroke:none;stroke-opacity:1" id="path4769"/>
      <path d="M 701.5 468.98718 A 1.5 1.375 0 1 1  698.5,468.98718 A 1.5 1.375 0 1 1  701.5 468.98718 z" transform="matrix(0.84326,0.485035,-0.485151,0.843058,280.4073,-294.5652)" style="fill:black;fill-opacity:1;stroke:none;stroke-opacity:1" id="path4771"/>
      <path d="M 701.5 468.98718 A 1.5 1.375 0 1 1  698.5,468.98718 A 1.5 1.375 0 1 1  701.5 468.98718 z" transform="matrix(0.84326,0.485035,-0.485151,0.843058,274.2353,-297.9394)" style="fill:black;fill-opacity:1;stroke:none;stroke-opacity:1" id="path4773"/>
      <path d="M 701.5 468.98718 A 1.5 1.375 0 1 1  698.5,468.98718 A 1.5 1.375 0 1 1  701.5 468.98718 z" transform="matrix(0.84326,0.485035,-0.485151,0.843058,268.7895,-301.4463)" style="fill:black;fill-opacity:1;stroke:none;stroke-opacity:1" id="path4775"/>
      <path d="M 701.5 468.98718 A 1.5 1.375 0 1 1  698.5,468.98718 A 1.5 1.375 0 1 1  701.5 468.98718 z" transform="matrix(0.84326,0.485035,-0.485151,0.843058,269.9152,-297.2723)" style="fill:black;fill-opacity:1;stroke:none;stroke-opacity:1" id="path4777"/>
      <path d="M 701.5 468.98718 A 1.5 1.375 0 1 1  698.5,468.98718 A 1.5 1.375 0 1 1  701.5 468.98718 z" transform="matrix(0.84326,0.485035,-0.485151,0.843058,271.4398,-299.922)" style="fill:black;fill-opacity:1;stroke:none;stroke-opacity:1" id="path4779"/>
      <path d="M 701.5 468.98718 A 1.5 1.375 0 1 1  698.5,468.98718 A 1.5 1.375 0 1 1  701.5 468.98718 z" transform="matrix(0.84326,0.485035,-0.485151,0.843058,275.6149,-301.0471)" style="fill:black;fill-opacity:1;stroke:none;stroke-opacity:1" id="path4781"/>
      <path d="M 701.5 468.98718 A 1.5 1.375 0 1 1  698.5,468.98718 A 1.5 1.375 0 1 1  701.5 468.98718 z" transform="matrix(0.84326,0.485035,-0.485151,0.843058,269.4428,-304.4214)" style="fill:black;fill-opacity:1;stroke:none;stroke-opacity:1" id="path4783"/>
      <path d="M 701.5 468.98718 A 1.5 1.375 0 1 1  698.5,468.98718 A 1.5 1.375 0 1 1  701.5 468.98718 z" transform="matrix(0.955991,0.180344,-0.180387,0.955762,40.95135,-146.5273)" style="fill:black;fill-opacity:1;stroke:none;stroke-opacity:1" id="path4785"/>
      <path d="M 701.5 468.98718 A 1.5 1.375 0 1 1  698.5,468.98718 A 1.5 1.375 0 1 1  701.5 468.98718 z" transform="matrix(0.955991,0.180344,-0.180387,0.955762,43.38899,-142.9568)" style="fill:black;fill-opacity:1;stroke:none;stroke-opacity:1" id="path4787"/>
      <path d="M 701.5 468.98718 A 1.5 1.375 0 1 1  698.5,468.98718 A 1.5 1.375 0 1 1  701.5 468.98718 z" transform="matrix(0.955991,0.180344,-0.180387,0.955762,43.95586,-145.9607)" style="fill:black;fill-opacity:1;stroke:none;stroke-opacity:1" id="path4789"/>
      <path d="M 701.5 468.98718 A 1.5 1.375 0 1 1  698.5,468.98718 A 1.5 1.375 0 1 1  701.5 468.98718 z" transform="matrix(0.955991,0.180344,-0.180387,0.955762,47.5274,-148.3976)" style="fill:black;fill-opacity:1;stroke:none;stroke-opacity:1" id="path4791"/>
      <path d="M 701.5 468.98718 A 1.5 1.375 0 1 1  698.5,468.98718 A 1.5 1.375 0 1 1  701.5 468.98718 z" transform="matrix(0.955991,0.180344,-0.180387,0.955762,40.58811,-149.5515)" style="fill:black;fill-opacity:1;stroke:none;stroke-opacity:1" id="path4793"/>
      <path d="M 701.5 468.98718 A 1.5 1.375 0 1 1  698.5,468.98718 A 1.5 1.375 0 1 1  701.5 468.98718 z" transform="matrix(0.472488,0.850216,-0.850419,0.472375,698.4975,-370.4767)" style="fill:black;fill-opacity:1;stroke:none;stroke-opacity:1" id="path4795"/>
      <path d="M 701.5 468.98718 A 1.5 1.375 0 1 1  698.5,468.98718 A 1.5 1.375 0 1 1  701.5 468.98718 z" transform="matrix(0.472488,0.850216,-0.850419,0.472375,698.8759,-370.3587)" style="fill:black;fill-opacity:1;stroke:none;stroke-opacity:1" id="path4797"/>
      <path d="M 701.5 468.98718 A 1.5 1.375 0 1 1  698.5,468.98718 A 1.5 1.375 0 1 1  701.5 468.98718 z" transform="matrix(0.472488,0.850216,-0.850419,0.472375,697.6882,-366.2021)" style="fill:black;fill-opacity:1;stroke:none;stroke-opacity:1" id="path4799"/>
      <path d="M 701.5 468.98718 A 1.5 1.375 0 1 1  698.5,468.98718 A 1.5 1.375 0 1 1  701.5 468.98718 z" transform="matrix(0.472488,0.850216,-0.850419,0.472375,700.361,-367.6866)" style="fill:black;fill-opacity:1;stroke:none;stroke-opacity:1" id="path4801"/>
      <path d="M 701.5 468.98718 A 1.5 1.375 0 1 1  698.5,468.98718 A 1.5 1.375 0 1 1  701.5 468.98718 z" transform="matrix(0.472488,0.850216,-0.850419,0.472375,704.5186,-366.4992)" style="fill:black;fill-opacity:1;stroke:none;stroke-opacity:1" id="path4803"/>
      <path d="M 701.5 468.98718 A 1.5 1.375 0 1 1  698.5,468.98718 A 1.5 1.375 0 1 1  701.5 468.98718 z" transform="matrix(0.472488,0.850216,-0.850419,0.472375,700.9696,-372.5713)" style="fill:black;fill-opacity:1;stroke:none;stroke-opacity:1" id="path4805"/>
      <path d="M 701.5 468.98718 A 1.5 1.375 0 1 1  698.5,468.98718 A 1.5 1.375 0 1 1  701.5 468.98718 z" transform="matrix(0.472488,0.850216,-0.850419,0.472375,697.4971,-374.6083)" style="fill:black;fill-opacity:1;stroke:none;stroke-opacity:1" id="path4807"/>
      <path d="M 701.5 468.98718 A 1.5 1.375 0 1 1  698.5,468.98718 A 1.5 1.375 0 1 1  701.5 468.98718 z" transform="matrix(0.726191,0.647227,-0.647382,0.726017,430.8238,-339.6242)" style="fill:black;fill-opacity:1;stroke:none;stroke-opacity:1" id="path4811"/>
      <path d="M 701.5 468.98718 A 1.5 1.375 0 1 1  698.5,468.98718 A 1.5 1.375 0 1 1  701.5 468.98718 z" transform="matrix(0.726191,0.647227,-0.647382,0.726017,431.1271,-347.1115)" style="fill:black;fill-opacity:1;stroke:none;stroke-opacity:1" id="path4813"/>
      <path d="M 701.5 468.98718 A 1.5 1.375 0 1 1  698.5,468.98718 A 1.5 1.375 0 1 1  701.5 468.98718 z" transform="matrix(0.472488,0.850216,-0.850419,0.472375,693.3639,-380.8892)" style="fill:black;fill-opacity:1;stroke:none;stroke-opacity:1" id="path4815"/>
      <path d="M 701.5 468.98718 A 1.5 1.375 0 1 1  698.5,468.98718 A 1.5 1.375 0 1 1  701.5 468.98718 z" transform="matrix(0.472488,0.850216,-0.850419,0.472375,696.8036,-381.2713)" style="fill:black;fill-opacity:1;stroke:none;stroke-opacity:1" id="path4817"/>
      <path d="M 701.5 468.98718 A 1.5 1.375 0 1 1  698.5,468.98718 A 1.5 1.375 0 1 1  701.5 468.98718 z" transform="matrix(0.472488,0.850216,-0.850419,0.472375,700.4345,-376.304)" style="fill:black;fill-opacity:1;stroke:none;stroke-opacity:1" id="path4819"/>
      <path d="M 701.5 468.98718 A 1.5 1.375 0 1 1  698.5,468.98718 A 1.5 1.375 0 1 1  701.5 468.98718 z" transform="matrix(0.472488,0.850216,-0.850419,0.472375,697.3769,-378.2145)" style="fill:black;fill-opacity:1;stroke:none;stroke-opacity:1" id="path4821"/>
      <g transform="matrix(1.528781,0,0,1.528414,-437.9973,-226.1755)" id="g4827">
        <path d="M 758.75,431.23718 C 758.75,434.48018 757.11461,437.11218 755.625,437.11218 C 754.13539,437.11218 750.75,434.48018 750.75,431.23718 C 750.75,427.99418 753.309,425.36218 754.875,425.36218 C 756.441,425.36218 758.75,427.99418 758.75,431.23718 z " style="fill:none;fill-opacity:1;stroke:#ff8000;stroke-width:0.65419447;stroke-opacity:1" id="path4663"/>
        <path d="M 755.77525,428.52404 C 755.73515,430.04601 755.23847,431.25162 754.81571,431.22464 C 754.39294,431.19766 753.46467,429.90113 753.50477,428.37914 C 753.54487,426.85717 754.30368,425.66829 754.74812,425.69665 C 755.19258,425.72502 755.81535,427.00206 755.77525,428.52404 z " style="fill:none;fill-opacity:1;stroke:#ff8000;stroke-width:0.65419436;stroke-opacity:1" id="path4823"/>
        <path d="M 755.95643,434.20986 C 756.5707,435.00306 756.69159,435.97492 756.3476,436.27376 C 756.00361,436.57261 754.7233,436.60804 754.10902,435.81484 C 753.49475,435.02164 753.58714,433.8645 753.94877,433.55032 C 754.3104,433.23615 755.34215,433.41666 755.95643,434.20986 z " style="fill:none;fill-opacity:1;stroke:#ff8000;stroke-width:0.65419495;stroke-opacity:1" id="path4825"/>
      </g>
      <g transform="matrix(1.207708,0.937118,-0.937343,1.207418,190.5866,-734.2858)" id="g4834">
        <path d="M 758.75,431.23718 C 758.75,434.48018 757.11461,437.11218 755.625,437.11218 C 754.13539,437.11218 750.75,434.48018 750.75,431.23718 C 750.75,427.99418 753.309,425.36218 754.875,425.36218 C 756.441,425.36218 758.75,427.99418 758.75,431.23718 z " style="fill:none;fill-opacity:1;stroke:#ff8000;stroke-width:0.65419447;stroke-opacity:1" id="path4836"/>
        <path d="M 755.77525,428.52404 C 755.73515,430.04601 755.23847,431.25162 754.81571,431.22464 C 754.39294,431.19766 753.46467,429.90113 753.50477,428.37914 C 753.54487,426.85717 754.30368,425.66829 754.74812,425.69665 C 755.19258,425.72502 755.81535,427.00206 755.77525,428.52404 z " style="fill:none;fill-opacity:1;stroke:#ff8000;stroke-width:0.65419436;stroke-opacity:1" id="path4838"/>
        <path d="M 755.95643,434.20986 C 756.5707,435.00306 756.69159,435.97492 756.3476,436.27376 C 756.00361,436.57261 754.7233,436.60804 754.10902,435.81484 C 753.49475,435.02164 753.58714,433.8645 753.94877,433.55032 C 754.3104,433.23615 755.34215,433.41666 755.95643,434.20986 z " style="fill:none;fill-opacity:1;stroke:#ff8000;stroke-width:0.65419495;stroke-opacity:1" id="path4840"/>
      </g>
      <g transform="matrix(0.342114,-1.489652,1.490009,0.342032,-307.5965,1445.807)" id="g4842">
        <path d="M 758.75,431.23718 C 758.75,434.48018 757.11461,437.11218 755.625,437.11218 C 754.13539,437.11218 750.75,434.48018 750.75,431.23718 C 750.75,427.99418 753.309,425.36218 754.875,425.36218 C 756.441,425.36218 758.75,427.99418 758.75,431.23718 z " style="fill:none;fill-opacity:1;stroke:#ff8000;stroke-width:0.65419447;stroke-opacity:1" id="path4844"/>
        <path d="M 755.77525,428.52404 C 755.73515,430.04601 755.23847,431.25162 754.81571,431.22464 C 754.39294,431.19766 753.46467,429.90113 753.50477,428.37914 C 753.54487,426.85717 754.30368,425.66829 754.74812,425.69665 C 755.19258,425.72502 755.81535,427.00206 755.77525,428.52404 z " style="fill:none;fill-opacity:1;stroke:#ff8000;stroke-width:0.65419436;stroke-opacity:1" id="path4846"/>
        <path d="M 755.95643,434.20986 C 756.5707,435.00306 756.69159,435.97492 756.3476,436.27376 C 756.00361,436.57261 754.7233,436.60804 754.10902,435.81484 C 753.49475,435.02164 753.58714,433.8645 753.94877,433.55032 C 754.3104,433.23615 755.34215,433.41666 755.95643,434.20986 z " style="fill:none;fill-opacity:1;stroke:#ff8000;stroke-width:0.65419495;stroke-opacity:1" id="path4848"/>
      </g>
      <g transform="matrix(-1.517378,0.186331,-0.186375,-1.517014,1835.307,1016.56)" id="g4850">
        <path d="M 758.75,431.23718 C 758.75,434.48018 757.11461,437.11218 755.625,437.11218 C 754.13539,437.11218 750.75,434.48018 750.75,431.23718 C 750.75,427.99418 753.309,425.36218 754.875,425.36218 C 756.441,425.36218 758.75,427.99418 758.75,431.23718 z " style="fill:none;fill-opacity:1;stroke:#ff8000;stroke-width:0.65419447;stroke-opacity:1" id="path4852"/>
        <path d="M 755.77525,428.52404 C 755.73515,430.04601 755.23847,431.25162 754.81571,431.22464 C 754.39294,431.19766 753.46467,429.90113 753.50477,428.37914 C 753.54487,426.85717 754.30368,425.66829 754.74812,425.69665 C 755.19258,425.72502 755.81535,427.00206 755.77525,428.52404 z " style="fill:none;fill-opacity:1;stroke:#ff8000;stroke-width:0.65419436;stroke-opacity:1" id="path4854"/>
        <path d="M 755.95643,434.20986 C 756.5707,435.00306 756.69159,435.97492 756.3476,436.27376 C 756.00361,436.57261 754.7233,436.60804 754.10902,435.81484 C 753.49475,435.02164 753.58714,433.8645 753.94877,433.55032 C 754.3104,433.23615 755.34215,433.41666 755.95643,434.20986 z " style="fill:none;fill-opacity:1;stroke:#ff8000;stroke-width:0.65419495;stroke-opacity:1" id="path4856"/>
      </g>
      <g transform="matrix(-1.340401,-0.735007,0.735183,-1.34008,1286.07,1551.415)" id="g4858">
        <path d="M 758.75,431.23718 C 758.75,434.48018 757.11461,437.11218 755.625,437.11218 C 754.13539,437.11218 750.75,434.48018 750.75,431.23718 C 750.75,427.99418 753.309,425.36218 754.875,425.36218 C 756.441,425.36218 758.75,427.99418 758.75,431.23718 z " style="fill:none;fill-opacity:1;stroke:#ff8000;stroke-width:0.65419447;stroke-opacity:1" id="path4860"/>
        <path d="M 755.77525,428.52404 C 755.73515,430.04601 755.23847,431.25162 754.81571,431.22464 C 754.39294,431.19766 753.46467,429.90113 753.50477,428.37914 C 753.54487,426.85717 754.30368,425.66829 754.74812,425.69665 C 755.19258,425.72502 755.81535,427.00206 755.77525,428.52404 z " style="fill:none;fill-opacity:1;stroke:#ff8000;stroke-width:0.65419436;stroke-opacity:1" id="path4862"/>
        <path d="M 755.95643,434.20986 C 756.5707,435.00306 756.69159,435.97492 756.3476,436.27376 C 756.00361,436.57261 754.7233,436.60804 754.10902,435.81484 C 753.49475,435.02164 753.58714,433.8645 753.94877,433.55032 C 754.3104,433.23615 755.34215,433.41666 755.95643,434.20986 z " style="fill:none;fill-opacity:1;stroke:#ff8000;stroke-width:0.65419495;stroke-opacity:1" id="path4864"/>
      </g>
      <path d="M 663.46597,369.32868 C 666.71884,370.76027 668.58945,373.46126 667.88862,374.86318 C 667.18779,376.2651 662.95502,378.28934 659.70213,376.85774 C 656.44925,375.42615 655.01319,371.85592 655.74996,370.38211 C 656.48673,368.9083 660.21309,367.89709 663.46597,369.32868 z " style="fill:none;fill-opacity:1;stroke:#ff8000;stroke-width:1;stroke-opacity:1" id="path4868"/>
      <path d="M 659.345,370.93062 C 660.85275,371.64023 661.82835,372.63987 661.60239,373.02584 C 661.37642,373.41181 659.63921,373.71309 658.13145,373.00348 C 656.6237,372.29389 655.78821,371.05493 656.02576,370.64917 C 656.26332,370.2434 657.83725,370.22102 659.345,370.93062 z " style="fill:none;fill-opacity:1;stroke:#ff8000;stroke-width:0.99999976;stroke-opacity:1" id="path4870"/>
      <path d="M 665.13339,373.27006 C 666.21801,373.0421 667.24971,373.35734 667.38762,373.813 C 667.52554,374.26867 666.95871,375.48925 665.8741,375.71722 C 664.78947,375.94518 663.67228,375.34742 663.52728,374.86839 C 663.38229,374.38936 664.04877,373.49803 665.13339,373.27006 z " style="fill:none;fill-opacity:1;stroke:#ff8000;stroke-width:1.00000072;stroke-opacity:1" id="path4872"/>
      <path d="M 655.44565,497.67437 L 655.44565,550.09084" style="fill:none;fill-rule:evenodd;stroke:black;stroke-width:0.99999988px;stroke-linecap:butt;stroke-linejoin:miter;stroke-opacity:1" id="path4874"/>
      <text x="626.37207" y="563.80438" transform="scale(1.00012,0.99988)" style="font-size:24.45756721px;font-style:normal;font-weight:normal;text-align:start;text-anchor:start;fill:black;fill-opacity:1;stroke:none;stroke-width:1px;stroke-linecap:butt;stroke-linejoin:miter;stroke-opacity:1;font-family:Bitstream Vera Sans" id="text4876" xml:space="preserve"><tspan x="626.37207" y="563.80438" style="font-size:18.3431778px" id="tspan4878">Vacuole</tspan></text>
      <path d="M 635.00003,490.36218 L 635.00003,579.36218" style="fill:none;fill-rule:evenodd;stroke:black;stroke-width:1px;stroke-linecap:butt;stroke-linejoin:miter;stroke-opacity:1" id="path4880"/>
      <text x="635.00024" y="592.36188" style="font-size:16.00001144px;font-style:normal;font-weight:normal;text-align:center;text-anchor:middle;fill:black;fill-opacity:1;stroke:none;stroke-width:1px;stroke-linecap:butt;stroke-linejoin:miter;stroke-opacity:1;font-family:Bitstream Vera Sans" id="text4882" xml:space="preserve"><tspan x="635.00024" y="592.36188" id="tspan4884">Phosphate</tspan><tspan x="635.00024" y="612.36188" id="tspan4886">Granules</tspan></text>
      <path d="M 699.00003,467.36218 L 758.00003,467.36218" style="fill:none;fill-rule:evenodd;stroke:black;stroke-width:1px;stroke-linecap:butt;stroke-linejoin:miter;stroke-opacity:1" id="path4888"/>
      <text x="753.00037" y="462.36179" style="font-size:16.00001144px;font-style:normal;font-weight:normal;text-align:start;text-anchor:start;fill:black;fill-opacity:1;stroke:none;stroke-width:1px;stroke-linecap:butt;stroke-linejoin:miter;stroke-opacity:1;font-family:Bitstream Vera Sans" id="text4890" xml:space="preserve"><tspan x="753.00037" y="462.36179" id="tspan4892">Lipid</tspan><tspan x="753.00037" y="482.36179" id="tspan4894">Granule</tspan></text>
      <text x="426.00009" y="476.36182" style="font-size:16.00001144px;font-style:normal;font-weight:normal;text-align:start;text-anchor:start;fill:black;fill-opacity:1;stroke:none;stroke-width:1px;stroke-linecap:butt;stroke-linejoin:miter;stroke-opacity:1;font-family:Bitstream Vera Sans" id="text4896" xml:space="preserve"><tspan x="426.00009" y="476.36182" id="tspan4898">Mitochondria</tspan></text>
      <path d="M 584.04226,425.31998 L 532.12788,470.40405 L 581.44652,470.40405" style="fill:none;fill-rule:evenodd;stroke:black;stroke-width:0.91591108px;stroke-linecap:butt;stroke-linejoin:miter;stroke-opacity:1" id="path4900"/>
      <path d="M 530.95193,471.04998 L 601.94427,500.22155" style="fill:none;fill-rule:evenodd;stroke:black;stroke-width:0.92279208px;stroke-linecap:butt;stroke-linejoin:miter;stroke-opacity:1" id="path4902"/>
      <path d="M 577.00003,516.36218 L 540.00003,516.36218" style="fill:none;fill-rule:evenodd;stroke:black;stroke-width:1px;stroke-linecap:butt;stroke-linejoin:miter;stroke-opacity:1" id="path4904"/>
      <text x="549.00024" y="510.36176" style="font-size:16.00001717px;font-style:normal;font-weight:normal;text-align:end;text-anchor:end;fill:black;fill-opacity:1;stroke:none;stroke-width:1px;stroke-linecap:butt;stroke-linejoin:miter;stroke-opacity:1;font-family:Bitstream Vera Sans" id="text4906" xml:space="preserve"><tspan x="549.00024" y="510.36176" id="tspan4908">Bud</tspan><tspan x="549.00024" y="530.36176" id="tspan4910">Scar</tspan></text>
      <path d="M 647.00003,392.36218 L 647.00003,333.36218" style="fill:none;fill-rule:evenodd;stroke:black;stroke-width:1px;stroke-linecap:butt;stroke-linejoin:miter;stroke-opacity:1" id="path4912"/>
      <text x="618.00024" y="328.36169" style="font-size:16.00001144px;font-style:normal;font-weight:normal;text-align:start;text-anchor:start;fill:black;fill-opacity:1;stroke:none;stroke-width:1px;stroke-linecap:butt;stroke-linejoin:miter;stroke-opacity:1;font-family:Bitstream Vera Sans" id="text4914" xml:space="preserve"><tspan x="618.00024" y="328.36169" id="tspan4916">Nucleus</tspan></text>
      <path d="M 606.05311,373.36218 L 559.94617,373.36218" style="fill:none;fill-rule:evenodd;stroke:black;stroke-width:0.99999946px;stroke-linecap:butt;stroke-linejoin:miter;stroke-opacity:1" id="path5457"/>
      <text x="481.00003" y="376.36218" style="font-size:16px;font-style:normal;font-weight:normal;text-align:start;text-anchor:start;fill:black;fill-opacity:1;stroke:none;stroke-width:1px;stroke-linecap:butt;stroke-linejoin:miter;stroke-opacity:1;font-family:Bitstream Vera Sans" id="text5459" xml:space="preserve"><tspan x="481.00003" y="376.36218" id="tspan5461">Membrane</tspan></text>
      <path d="M 768.05311,373.36218 L 721.94617,373.36218" style="fill:none;fill-rule:evenodd;stroke:black;stroke-width:0.99999946px;stroke-linecap:butt;stroke-linejoin:miter;stroke-opacity:1" id="path5491"/>
      <text x="760" y="369.36218" style="font-size:16px;font-style:normal;font-weight:normal;text-align:start;text-anchor:start;fill:black;fill-opacity:1;stroke:none;stroke-width:1px;stroke-linecap:butt;stroke-linejoin:miter;stroke-opacity:1;font-family:Bitstream Vera Sans" id="text5494" xml:space="preserve"><tspan x="760" y="369.36218" id="tspan5496">Cell</tspan><tspan x="760" y="389.36218" id="tspan5498">Wall</tspan></text>
    </g>
  </g>
</svg>