<?xml version="1.0" encoding="UTF-8" standalone="no"?>
<!-- Created with Inkscape (http://www.inkscape.org/) -->

<svg
   xmlns:dc="http://purl.org/dc/elements/1.1/"
   xmlns:cc="http://creativecommons.org/ns#"
   xmlns:rdf="http://www.w3.org/1999/02/22-rdf-syntax-ns#"
   xmlns:svg="http://www.w3.org/2000/svg"
   xmlns="http://www.w3.org/2000/svg"
   xmlns:sodipodi="http://sodipodi.sourceforge.net/DTD/sodipodi-0.dtd"
   xmlns:inkscape="http://www.inkscape.org/namespaces/inkscape"
   version="1.0"
   width="408.85809"
   height="197.35329"
   id="svg5676"
   sodipodi:version="0.32"
   inkscape:version="0.92.2 5c3e80d, 2017-08-06"
   sodipodi:docname="yeast_cell.svg">
  <metadata
     id="metadata155">
    <rdf:RDF>
      <cc:Work
         rdf:about="">
        <dc:format>image/svg+xml</dc:format>
        <dc:type
           rdf:resource="http://purl.org/dc/dcmitype/StillImage" />
        <dc:title></dc:title>
      </cc:Work>
    </rdf:RDF>
  </metadata>
  <sodipodi:namedview
     inkscape:window-height="733"
     inkscape:window-width="1280"
     inkscape:pageshadow="2"
     inkscape:pageopacity="0.0"
     guidetolerance="10.0"
     gridtolerance="10.0"
     objecttolerance="10.0"
     borderopacity="1.0"
     bordercolor="#666666"
     pagecolor="#ffffff"
     id="base"
     inkscape:zoom="0.90509668"
     inkscape:cx="223.63283"
     inkscape:cy="104.96557"
     inkscape:window-x="-4"
     inkscape:window-y="0"
     inkscape:current-layer="g5500"
     showgrid="false"
     fit-margin-top="0"
     fit-margin-left="0"
     fit-margin-right="0"
     fit-margin-bottom="0"
     inkscape:window-maximized="0" />
  <defs
     id="defs5678">
    <marker
       inkscape:isstock="true"
       style="overflow:visible"
       id="marker1295"
       refX="0"
       refY="0"
       orient="auto"
       inkscape:stockid="Arrow1Mend">
      <path
         transform="matrix(-0.4,0,0,-0.4,-4,0)"
         style="fill:#000000;fill-opacity:1;fill-rule:evenodd;stroke:#000000;stroke-width:1.00000003pt;stroke-opacity:1"
         d="M 0,0 5,-5 -12.5,0 5,5 Z"
         id="path1293"
         inkscape:connector-curvature="0" />
    </marker>
    <marker
       inkscape:stockid="Arrow1Mstart"
       orient="auto"
       refY="0"
       refX="0"
       id="Arrow1Mstart"
       style="overflow:visible"
       inkscape:isstock="true">
      <path
         id="path967"
         d="M 0,0 5,-5 -12.5,0 5,5 Z"
         style="fill:#000000;fill-opacity:1;fill-rule:evenodd;stroke:#000000;stroke-width:1.00000003pt;stroke-opacity:1"
         transform="matrix(0.4,0,0,0.4,4,0)"
         inkscape:connector-curvature="0" />
    </marker>
    <marker
       inkscape:stockid="Arrow1Mend"
       orient="auto"
       refY="0"
       refX="0"
       id="Arrow1Mend"
       style="overflow:visible"
       inkscape:isstock="true"
       inkscape:collect="always">
      <path
         id="path970"
         d="M 0,0 5,-5 -12.5,0 5,5 Z"
         style="fill:#000000;fill-opacity:1;fill-rule:evenodd;stroke:#000000;stroke-width:1.00000003pt;stroke-opacity:1"
         transform="matrix(-0.4,0,0,-0.4,-4,0)"
         inkscape:connector-curvature="0" />
    </marker>
    <marker
       inkscape:stockid="Arrow1Mstart"
       orient="auto"
       refY="0"
       refX="0"
       id="Arrow1Mstart-7"
       style="overflow:visible"
       inkscape:isstock="true">
      <path
         inkscape:connector-curvature="0"
         id="path967-9"
         d="M 0,0 5,-5 -12.5,0 5,5 Z"
         style="fill:#000000;fill-opacity:1;fill-rule:evenodd;stroke:#000000;stroke-width:1.00000003pt;stroke-opacity:1"
         transform="matrix(0.4,0,0,0.4,4,0)" />
    </marker>
  </defs>
  <g
     transform="translate(-183.29385,-36.995599)"
     id="layer1">
    <g
       transform="translate(-283.9567,-306.6564)"
       id="g5500">
      <path
         d="m 577.11321,464.45698 c -23.49113,-57.52255 28.15403,-101.63954 74.14588,-101.63954 45.99184,0 83.31856,37.31776 83.31856,83.29857 0,45.9808 -37.32672,83.29856 -83.31856,83.29856 -11.49797,0 -22.45436,-2.33236 -32.42134,-6.54934 0,0 -23.37917,5.02093 -3.50502,14.19141 19.87416,9.17048 139.11907,6.11366 129.94639,-87.1196 -9.17269,-93.23325 -76.26651,-140.31036 -162.05079,-76.4207 -37.96899,28.27821 -37.11392,87.12477 -25.14447,107.12883 25.06299,15.37904 20.71633,-0.98179 19.02935,-16.18819 z"
         style="fill:#ffffff;fill-opacity:1;stroke:#000000;stroke-width:1;stroke-opacity:1"
         id="path4016"
         inkscape:connector-curvature="0" />
      <path
         d="m 567.94052,485.09056 c 0,0 0,32.0967 39.74831,42.7956"
         style="fill:none;fill-rule:evenodd;stroke:#c80000;stroke-width:1px;stroke-linecap:butt;stroke-linejoin:miter;stroke-opacity:1"
         id="path4613"
         inkscape:connector-curvature="0" />
      <path
         d="m 575.58397,485.85483 c 0,0 3.50924,32.16039 38.6017,38.59246"
         style="fill:none;fill-rule:evenodd;stroke:#c80000;stroke-width:0.99999994px;stroke-linecap:butt;stroke-linejoin:miter;stroke-opacity:1"
         id="path4615"
         inkscape:connector-curvature="0" />
      <path
         d="m 679.57517,489.36568 c -6.28375,14.39263 -12.84141,23.42381 -27.41999,19.36638 -12.27958,-3.41761 -24.2781,-8.67615 -27.41997,-19.36638 -3.01508,-10.25881 9.4279,-17.3728 27.41997,-19.36638 15.04324,-1.66686 32.84687,-0.72226 27.41999,19.36638 z"
         style="fill:#00c843;fill-opacity:1;stroke:#000000;stroke-width:1.00000036;stroke-opacity:1"
         id="path4619"
         inkscape:connector-curvature="0" />
      <path
         d="m 696.02274,402.73615 c 5.18401,23.86505 7.76849,40.06589 -5.86254,51.46884 -13.63102,11.40294 -69.41613,7.05832 -79.99521,-6.46669 -10.57907,-13.52501 -4.18315,-51.17789 16.18182,-62.93194 20.36496,-11.75406 64.49193,-5.93526 69.67593,17.92979 z"
         style="fill:#0066ff;fill-opacity:1;stroke:#000000;stroke-width:0.99999982;stroke-opacity:1"
         id="path4622"
         inkscape:connector-curvature="0" />
      <path
         d="m 701.5,468.98718 a 1.5,1.375 0 1 1 -3,0 1.5,1.375 0 1 1 3,0 z"
         transform="matrix(0.972861,0,0,0.972628,-49.687,33.71731)"
         style="fill:#000000;fill-opacity:1;stroke:none;stroke-opacity:1"
         id="path4624"
         inkscape:connector-curvature="0" />
      <path
         d="m 701.5,468.98718 a 1.5,1.375 0 1 1 -3,0 1.5,1.375 0 1 1 3,0 z"
         transform="matrix(0.972861,0,0,0.972628,-46.62944,30.66048)"
         style="fill:#000000;fill-opacity:1;stroke:none;stroke-opacity:1"
         id="path4626"
         inkscape:connector-curvature="0" />
      <path
         d="m 701.5,468.98718 a 1.5,1.375 0 1 1 -3,0 1.5,1.375 0 1 1 3,0 z"
         transform="matrix(0.972861,0,0,0.972628,-46.62944,36.77414)"
         style="fill:#000000;fill-opacity:1;stroke:none;stroke-opacity:1"
         id="path4628"
         inkscape:connector-curvature="0" />
      <path
         d="m 701.5,468.98718 a 1.5,1.375 0 1 1 -3,0 1.5,1.375 0 1 1 3,0 z"
         transform="matrix(0.972861,0,0,0.972628,-43.57188,33.71731)"
         style="fill:#000000;fill-opacity:1;stroke:none;stroke-opacity:1"
         id="path4630"
         inkscape:connector-curvature="0" />
      <path
         d="m 701.5,468.98718 a 1.5,1.375 0 1 1 -3,0 1.5,1.375 0 1 1 3,0 z"
         transform="matrix(0.972861,0,0,0.972628,-46.62944,33.71731)"
         style="fill:#000000;fill-opacity:1;stroke:none;stroke-opacity:1"
         id="path4632"
         inkscape:connector-curvature="0" />
      <path
         d="m 701.5,468.98718 a 1.5,1.375 0 1 1 -3,0 1.5,1.375 0 1 1 3,0 z"
         transform="matrix(0.972861,0,0,0.972628,-43.57188,30.66048)"
         style="fill:#000000;fill-opacity:1;stroke:none;stroke-opacity:1"
         id="path4634"
         inkscape:connector-curvature="0" />
      <path
         d="m 701.5,468.98718 a 1.5,1.375 0 1 1 -3,0 1.5,1.375 0 1 1 3,0 z"
         transform="matrix(0.972861,0,0,0.972628,-50.60473,30.81302)"
         style="fill:#000000;fill-opacity:1;stroke:none;stroke-opacity:1"
         id="path4636"
         inkscape:connector-curvature="0" />
      <path
         d="m 701.5,468.98718 a 1.5,1.375 0 1 1 -3,0 1.5,1.375 0 1 1 3,0 z"
         transform="matrix(0.472488,0.850216,-0.850419,0.472375,735.6729,-329.2839)"
         style="fill:#000000;fill-opacity:1;stroke:none;stroke-opacity:1"
         id="path4638"
         inkscape:connector-curvature="0" />
      <path
         d="m 701.5,468.98718 a 1.5,1.375 0 1 1 -3,0 1.5,1.375 0 1 1 3,0 z"
         transform="matrix(0.472488,0.850216,-0.850419,0.472375,739.8306,-328.0964)"
         style="fill:#000000;fill-opacity:1;stroke:none;stroke-opacity:1"
         id="path4640"
         inkscape:connector-curvature="0" />
      <path
         d="m 701.5,468.98718 a 1.5,1.375 0 1 1 -3,0 1.5,1.375 0 1 1 3,0 z"
         transform="matrix(0.472488,0.850216,-0.850419,0.472375,734.4852,-325.1272)"
         style="fill:#000000;fill-opacity:1;stroke:none;stroke-opacity:1"
         id="path4642"
         inkscape:connector-curvature="0" />
      <path
         d="m 701.5,468.98718 a 1.5,1.375 0 1 1 -3,0 1.5,1.375 0 1 1 3,0 z"
         transform="matrix(0.472488,0.850216,-0.850419,0.472375,738.6428,-323.9397)"
         style="fill:#000000;fill-opacity:1;stroke:none;stroke-opacity:1"
         id="path4644"
         inkscape:connector-curvature="0" />
      <path
         d="m 701.5,468.98718 a 1.5,1.375 0 1 1 -3,0 1.5,1.375 0 1 1 3,0 z"
         transform="matrix(0.472488,0.850216,-0.850419,0.472375,737.1579,-326.6118)"
         style="fill:#000000;fill-opacity:1;stroke:none;stroke-opacity:1"
         id="path4646"
         inkscape:connector-curvature="0" />
      <path
         d="m 701.5,468.98718 a 1.5,1.375 0 1 1 -3,0 1.5,1.375 0 1 1 3,0 z"
         transform="matrix(0.472488,0.850216,-0.850419,0.472375,741.3156,-325.4243)"
         style="fill:#000000;fill-opacity:1;stroke:none;stroke-opacity:1"
         id="path4648"
         inkscape:connector-curvature="0" />
      <path
         d="m 701.5,468.98718 a 1.5,1.375 0 1 1 -3,0 1.5,1.375 0 1 1 3,0 z"
         transform="matrix(0.472488,0.850216,-0.850419,0.472375,737.7665,-331.4964)"
         style="fill:#000000;fill-opacity:1;stroke:none;stroke-opacity:1"
         id="path4650"
         inkscape:connector-curvature="0" />
      <path
         d="m 699.72499,473.72956 c -2.66873,1.85664 -8.75296,0.072 -9.83772,-3.41333 -1.08473,-3.48535 0.19293,-9.04415 4.20821,-11.31915 3.80355,-2.15504 9.00741,2.20234 10.14779,5.86642 1.14037,3.66412 -1.75161,6.94128 -4.51828,8.86606 z"
         style="fill:#008000;fill-opacity:1;stroke:#000000;stroke-width:1.00000012;stroke-opacity:1"
         id="path4654"
         inkscape:connector-curvature="0" />
      <path
         d="m 701.5,468.98718 a 1.5,1.375 0 1 1 -3,0 1.5,1.375 0 1 1 3,0 z"
         transform="matrix(-0.297768,0.925948,-0.926171,-0.297697,1336.578,-41.67004)"
         style="fill:#000000;fill-opacity:1;stroke:none;stroke-opacity:1"
         id="path4669"
         inkscape:connector-curvature="0" />
      <path
         d="m 701.5,468.98718 a 1.5,1.375 0 1 1 -3,0 1.5,1.375 0 1 1 3,0 z"
         transform="matrix(-0.297768,0.925948,-0.926171,-0.297697,1338.553,-37.8244)"
         style="fill:#000000;fill-opacity:1;stroke:none;stroke-opacity:1"
         id="path4671"
         inkscape:connector-curvature="0" />
      <path
         d="m 701.5,468.98718 a 1.5,1.375 0 1 1 -3,0 1.5,1.375 0 1 1 3,0 z"
         transform="matrix(-0.297768,0.925948,-0.926171,-0.297697,1340.56,-44.56486)"
         style="fill:#000000;fill-opacity:1;stroke:none;stroke-opacity:1"
         id="path4673"
         inkscape:connector-curvature="0" />
      <path
         d="m 701.5,468.98718 a 1.5,1.375 0 1 1 -3,0 1.5,1.375 0 1 1 3,0 z"
         transform="matrix(0.472488,0.850216,-0.850419,0.472375,682.537,-376.5118)"
         style="fill:#000000;fill-opacity:1;stroke:none;stroke-opacity:1"
         id="path4675"
         inkscape:connector-curvature="0" />
      <path
         d="m 701.5,468.98718 a 1.5,1.375 0 1 1 -3,0 1.5,1.375 0 1 1 3,0 z"
         transform="matrix(0.472488,0.850216,-0.850419,0.472375,681.3493,-372.3551)"
         style="fill:#000000;fill-opacity:1;stroke:none;stroke-opacity:1"
         id="path4677"
         inkscape:connector-curvature="0" />
      <path
         d="m 701.5,468.98718 a 1.5,1.375 0 1 1 -3,0 1.5,1.375 0 1 1 3,0 z"
         transform="matrix(0.472488,0.850216,-0.850419,0.472375,684.0221,-373.8398)"
         style="fill:#000000;fill-opacity:1;stroke:none;stroke-opacity:1"
         id="path4679"
         inkscape:connector-curvature="0" />
      <path
         d="m 701.5,468.98718 a 1.5,1.375 0 1 1 -3,0 1.5,1.375 0 1 1 3,0 z"
         transform="matrix(0.472488,0.850216,-0.850419,0.472375,688.1798,-372.6523)"
         style="fill:#000000;fill-opacity:1;stroke:none;stroke-opacity:1"
         id="path4681"
         inkscape:connector-curvature="0" />
      <path
         d="m 701.5,468.98718 a 1.5,1.375 0 1 1 -3,0 1.5,1.375 0 1 1 3,0 z"
         transform="matrix(0.472488,0.850216,-0.850419,0.472375,684.6307,-378.7245)"
         style="fill:#000000;fill-opacity:1;stroke:none;stroke-opacity:1"
         id="path4683"
         inkscape:connector-curvature="0" />
      <path
         d="m 701.5,468.98718 a 1.5,1.375 0 1 1 -3,0 1.5,1.375 0 1 1 3,0 z"
         transform="matrix(0.472488,0.850216,-0.850419,0.472375,682.346,-384.9181)"
         style="fill:#000000;fill-opacity:1;stroke:none;stroke-opacity:1"
         id="path4685"
         inkscape:connector-curvature="0" />
      <path
         d="m 701.5,468.98718 a 1.5,1.375 0 1 1 -3,0 1.5,1.375 0 1 1 3,0 z"
         transform="matrix(0.472488,0.850216,-0.850419,0.472375,681.1582,-380.7614)"
         style="fill:#000000;fill-opacity:1;stroke:none;stroke-opacity:1"
         id="path4687"
         inkscape:connector-curvature="0" />
      <path
         d="m 701.5,468.98718 a 1.5,1.375 0 1 1 -3,0 1.5,1.375 0 1 1 3,0 z"
         transform="matrix(0.472488,0.850216,-0.850419,0.472375,683.831,-382.2461)"
         style="fill:#000000;fill-opacity:1;stroke:none;stroke-opacity:1"
         id="path4689"
         inkscape:connector-curvature="0" />
      <path
         d="m 701.5,468.98718 a 1.5,1.375 0 1 1 -3,0 1.5,1.375 0 1 1 3,0 z"
         transform="matrix(0.472488,0.850216,-0.850419,0.472375,687.9887,-381.0585)"
         style="fill:#000000;fill-opacity:1;stroke:none;stroke-opacity:1"
         id="path4691"
         inkscape:connector-curvature="0" />
      <path
         d="m 701.5,468.98718 a 1.5,1.375 0 1 1 -3,0 1.5,1.375 0 1 1 3,0 z"
         transform="matrix(0.472488,0.850216,-0.850419,0.472375,684.4396,-387.1308)"
         style="fill:#000000;fill-opacity:1;stroke:none;stroke-opacity:1"
         id="path4693"
         inkscape:connector-curvature="0" />
      <path
         d="m 701.5,468.98718 a 1.5,1.375 0 1 1 -3,0 1.5,1.375 0 1 1 3,0 z"
         transform="matrix(0.472488,0.850216,-0.850419,0.472375,681.5816,-392.9423)"
         style="fill:#000000;fill-opacity:1;stroke:none;stroke-opacity:1"
         id="path4695"
         inkscape:connector-curvature="0" />
      <path
         d="m 701.5,468.98718 a 1.5,1.375 0 1 1 -3,0 1.5,1.375 0 1 1 3,0 z"
         transform="matrix(0.472488,0.850216,-0.850419,0.472375,680.3939,-388.7856)"
         style="fill:#000000;fill-opacity:1;stroke:none;stroke-opacity:1"
         id="path4697"
         inkscape:connector-curvature="0" />
      <path
         d="m 701.5,468.98718 a 1.5,1.375 0 1 1 -3,0 1.5,1.375 0 1 1 3,0 z"
         transform="matrix(0.472488,0.850216,-0.850419,0.472375,683.0666,-390.2703)"
         style="fill:#000000;fill-opacity:1;stroke:none;stroke-opacity:1"
         id="path4699"
         inkscape:connector-curvature="0" />
      <path
         d="m 701.5,468.98718 a 1.5,1.375 0 1 1 -3,0 1.5,1.375 0 1 1 3,0 z"
         transform="matrix(0.472488,0.850216,-0.850419,0.472375,687.2243,-389.0827)"
         style="fill:#000000;fill-opacity:1;stroke:none;stroke-opacity:1"
         id="path4701"
         inkscape:connector-curvature="0" />
      <path
         d="m 701.5,468.98718 a 1.5,1.375 0 1 1 -3,0 1.5,1.375 0 1 1 3,0 z"
         transform="matrix(0.472488,0.850216,-0.850419,0.472375,683.6752,-395.155)"
         style="fill:#000000;fill-opacity:1;stroke:none;stroke-opacity:1"
         id="path4703"
         inkscape:connector-curvature="0" />
      <path
         d="m 701.5,468.98718 a 1.5,1.375 0 1 1 -3,0 1.5,1.375 0 1 1 3,0 z"
         transform="matrix(0.726191,0.647227,-0.647382,0.726017,406.4695,-377.6153)"
         style="fill:#000000;fill-opacity:1;stroke:none;stroke-opacity:1"
         id="path4705"
         inkscape:connector-curvature="0" />
      <path
         d="m 701.5,468.98718 a 1.5,1.375 0 1 1 -3,0 1.5,1.375 0 1 1 3,0 z"
         transform="matrix(0.726191,0.647227,-0.647382,0.726017,406.7173,-373.2995)"
         style="fill:#000000;fill-opacity:1;stroke:none;stroke-opacity:1"
         id="path4707"
         inkscape:connector-curvature="0" />
      <path
         d="m 701.5,468.98718 a 1.5,1.375 0 1 1 -3,0 1.5,1.375 0 1 1 3,0 z"
         transform="matrix(0.726191,0.647227,-0.647382,0.726017,408.752,-375.5815)"
         style="fill:#000000;fill-opacity:1;stroke:none;stroke-opacity:1"
         id="path4709"
         inkscape:connector-curvature="0" />
      <path
         d="m 701.5,468.98718 a 1.5,1.375 0 1 1 -3,0 1.5,1.375 0 1 1 3,0 z"
         transform="matrix(0.726191,0.647227,-0.647382,0.726017,413.0688,-375.8289)"
         style="fill:#000000;fill-opacity:1;stroke:none;stroke-opacity:1"
         id="path4711"
         inkscape:connector-curvature="0" />
      <path
         d="m 701.5,468.98718 a 1.5,1.375 0 1 1 -3,0 1.5,1.375 0 1 1 3,0 z"
         transform="matrix(0.726191,0.647227,-0.647382,0.726017,407.7176,-380.394)"
         style="fill:#000000;fill-opacity:1;stroke:none;stroke-opacity:1"
         id="path4713"
         inkscape:connector-curvature="0" />
      <path
         d="m 701.5,468.98718 a 1.5,1.375 0 1 1 -3,0 1.5,1.375 0 1 1 3,0 z"
         transform="matrix(0.472488,0.850216,-0.850419,0.472375,688.5582,-372.5343)"
         style="fill:#000000;fill-opacity:1;stroke:none;stroke-opacity:1"
         id="path4715"
         inkscape:connector-curvature="0" />
      <path
         d="m 701.5,468.98718 a 1.5,1.375 0 1 1 -3,0 1.5,1.375 0 1 1 3,0 z"
         transform="matrix(0.472488,0.850216,-0.850419,0.472375,687.3704,-368.3776)"
         style="fill:#000000;fill-opacity:1;stroke:none;stroke-opacity:1"
         id="path4717"
         inkscape:connector-curvature="0" />
      <path
         d="m 701.5,468.98718 a 1.5,1.375 0 1 1 -3,0 1.5,1.375 0 1 1 3,0 z"
         transform="matrix(0.472488,0.850216,-0.850419,0.472375,690.0432,-369.8621)"
         style="fill:#000000;fill-opacity:1;stroke:none;stroke-opacity:1"
         id="path4719"
         inkscape:connector-curvature="0" />
      <path
         d="m 701.5,468.98718 a 1.5,1.375 0 1 1 -3,0 1.5,1.375 0 1 1 3,0 z"
         transform="matrix(0.472488,0.850216,-0.850419,0.472375,694.2009,-368.6747)"
         style="fill:#000000;fill-opacity:1;stroke:none;stroke-opacity:1"
         id="path4721"
         inkscape:connector-curvature="0" />
      <path
         d="m 701.5,468.98718 a 1.5,1.375 0 1 1 -3,0 1.5,1.375 0 1 1 3,0 z"
         transform="matrix(0.472488,0.850216,-0.850419,0.472375,690.6518,-374.7468)"
         style="fill:#000000;fill-opacity:1;stroke:none;stroke-opacity:1"
         id="path4723"
         inkscape:connector-curvature="0" />
      <path
         d="m 701.5,468.98718 a 1.5,1.375 0 1 1 -3,0 1.5,1.375 0 1 1 3,0 z"
         transform="matrix(0.472488,0.850216,-0.850419,0.472375,688.3671,-380.9405)"
         style="fill:#000000;fill-opacity:1;stroke:none;stroke-opacity:1"
         id="path4725"
         inkscape:connector-curvature="0" />
      <path
         d="m 701.5,468.98718 a 1.5,1.375 0 1 1 -3,0 1.5,1.375 0 1 1 3,0 z"
         transform="matrix(0.472488,0.850216,-0.850419,0.472375,687.1793,-376.7839)"
         style="fill:#000000;fill-opacity:1;stroke:none;stroke-opacity:1"
         id="path4727"
         inkscape:connector-curvature="0" />
      <path
         d="m 701.5,468.98718 a 1.5,1.375 0 1 1 -3,0 1.5,1.375 0 1 1 3,0 z"
         transform="matrix(0.472488,0.850216,-0.850419,0.472375,689.8521,-378.2686)"
         style="fill:#000000;fill-opacity:1;stroke:none;stroke-opacity:1"
         id="path4729"
         inkscape:connector-curvature="0" />
      <path
         d="m 701.5,468.98718 a 1.5,1.375 0 1 1 -3,0 1.5,1.375 0 1 1 3,0 z"
         transform="matrix(0.472488,0.850216,-0.850419,0.472375,694.0098,-377.081)"
         style="fill:#000000;fill-opacity:1;stroke:none;stroke-opacity:1"
         id="path4731"
         inkscape:connector-curvature="0" />
      <path
         d="m 701.5,468.98718 a 1.5,1.375 0 1 1 -3,0 1.5,1.375 0 1 1 3,0 z"
         transform="matrix(0.472488,0.850216,-0.850419,0.472375,690.4607,-383.1532)"
         style="fill:#000000;fill-opacity:1;stroke:none;stroke-opacity:1"
         id="path4733"
         inkscape:connector-curvature="0" />
      <path
         d="m 701.5,468.98718 a 1.5,1.375 0 1 1 -3,0 1.5,1.375 0 1 1 3,0 z"
         transform="matrix(0.472488,0.850216,-0.850419,0.472375,687.6027,-388.9647)"
         style="fill:#000000;fill-opacity:1;stroke:none;stroke-opacity:1"
         id="path4735"
         inkscape:connector-curvature="0" />
      <path
         d="m 701.5,468.98718 a 1.5,1.375 0 1 1 -3,0 1.5,1.375 0 1 1 3,0 z"
         transform="matrix(0.472488,0.850216,-0.850419,0.472375,686.415,-384.808)"
         style="fill:#000000;fill-opacity:1;stroke:none;stroke-opacity:1"
         id="path4737"
         inkscape:connector-curvature="0" />
      <path
         d="m 701.5,468.98718 a 1.5,1.375 0 1 1 -3,0 1.5,1.375 0 1 1 3,0 z"
         transform="matrix(0.472488,0.850216,-0.850419,0.472375,689.0877,-386.2928)"
         style="fill:#000000;fill-opacity:1;stroke:none;stroke-opacity:1"
         id="path4739"
         inkscape:connector-curvature="0" />
      <path
         d="m 701.5,468.98718 a 1.5,1.375 0 1 1 -3,0 1.5,1.375 0 1 1 3,0 z"
         transform="matrix(0.472488,0.850216,-0.850419,0.472375,693.2454,-385.1052)"
         style="fill:#000000;fill-opacity:1;stroke:none;stroke-opacity:1"
         id="path4741"
         inkscape:connector-curvature="0" />
      <path
         d="m 701.5,468.98718 a 1.5,1.375 0 1 1 -3,0 1.5,1.375 0 1 1 3,0 z"
         transform="matrix(0.472488,0.850216,-0.850419,0.472375,689.6963,-391.1774)"
         style="fill:#000000;fill-opacity:1;stroke:none;stroke-opacity:1"
         id="path4743"
         inkscape:connector-curvature="0" />
      <path
         d="m 701.5,468.98718 a 1.5,1.375 0 1 1 -3,0 1.5,1.375 0 1 1 3,0 z"
         transform="matrix(0.726191,0.647227,-0.647382,0.726017,412.4906,-373.6378)"
         style="fill:#000000;fill-opacity:1;stroke:none;stroke-opacity:1"
         id="path4745"
         inkscape:connector-curvature="0" />
      <path
         d="m 701.5,468.98718 a 1.5,1.375 0 1 1 -3,0 1.5,1.375 0 1 1 3,0 z"
         transform="matrix(0.726191,0.647227,-0.647382,0.726017,412.7384,-369.3219)"
         style="fill:#000000;fill-opacity:1;stroke:none;stroke-opacity:1"
         id="path4747"
         inkscape:connector-curvature="0" />
      <path
         d="m 701.5,468.98718 a 1.5,1.375 0 1 1 -3,0 1.5,1.375 0 1 1 3,0 z"
         transform="matrix(0.726191,0.647227,-0.647382,0.726017,420.506,-341.7997)"
         style="fill:#000000;fill-opacity:1;stroke:none;stroke-opacity:1"
         id="path4749"
         inkscape:connector-curvature="0" />
      <path
         d="m 701.5,468.98718 a 1.5,1.375 0 1 1 -3,0 1.5,1.375 0 1 1 3,0 z"
         transform="matrix(0.726191,0.647227,-0.647382,0.726017,419.0899,-371.8514)"
         style="fill:#000000;fill-opacity:1;stroke:none;stroke-opacity:1"
         id="path4751"
         inkscape:connector-curvature="0" />
      <path
         d="m 701.5,468.98718 a 1.5,1.375 0 1 1 -3,0 1.5,1.375 0 1 1 3,0 z"
         transform="matrix(0.726191,0.647227,-0.647382,0.726017,420.8093,-349.2871)"
         style="fill:#000000;fill-opacity:1;stroke:none;stroke-opacity:1"
         id="path4753"
         inkscape:connector-curvature="0" />
      <path
         d="m 701.5,468.98718 a 1.5,1.375 0 1 1 -3,0 1.5,1.375 0 1 1 3,0 z"
         transform="matrix(0.84326,0.485035,-0.485151,0.843058,278.0802,-287.8596)"
         style="fill:#000000;fill-opacity:1;stroke:none;stroke-opacity:1"
         id="path4755"
         inkscape:connector-curvature="0" />
      <path
         d="m 701.5,468.98718 a 1.5,1.375 0 1 1 -3,0 1.5,1.375 0 1 1 3,0 z"
         transform="matrix(0.84326,0.485035,-0.485151,0.843058,279.2057,-283.6857)"
         style="fill:#000000;fill-opacity:1;stroke:none;stroke-opacity:1"
         id="path4757"
         inkscape:connector-curvature="0" />
      <path
         d="m 701.5,468.98718 a 1.5,1.375 0 1 1 -3,0 1.5,1.375 0 1 1 3,0 z"
         transform="matrix(0.84326,0.485035,-0.485151,0.843058,280.7307,-286.3353)"
         style="fill:#000000;fill-opacity:1;stroke:none;stroke-opacity:1"
         id="path4759"
         inkscape:connector-curvature="0" />
      <path
         d="m 701.5,468.98718 a 1.5,1.375 0 1 1 -3,0 1.5,1.375 0 1 1 3,0 z"
         transform="matrix(0.84326,0.485035,-0.485151,0.843058,284.9055,-287.4604)"
         style="fill:#000000;fill-opacity:1;stroke:none;stroke-opacity:1"
         id="path4761"
         inkscape:connector-curvature="0" />
      <path
         d="m 701.5,468.98718 a 1.5,1.375 0 1 1 -3,0 1.5,1.375 0 1 1 3,0 z"
         transform="matrix(0.84326,0.485035,-0.485151,0.843058,278.7335,-290.8345)"
         style="fill:#000000;fill-opacity:1;stroke:none;stroke-opacity:1"
         id="path4763"
         inkscape:connector-curvature="0" />
      <path
         d="m 701.5,468.98718 a 1.5,1.375 0 1 1 -3,0 1.5,1.375 0 1 1 3,0 z"
         transform="matrix(0.84326,0.485035,-0.485151,0.843058,273.5819,-294.9643)"
         style="fill:#000000;fill-opacity:1;stroke:none;stroke-opacity:1"
         id="path4765"
         inkscape:connector-curvature="0" />
      <path
         d="m 701.5,468.98718 a 1.5,1.375 0 1 1 -3,0 1.5,1.375 0 1 1 3,0 z"
         transform="matrix(0.84326,0.485035,-0.485151,0.843058,274.7074,-290.7904)"
         style="fill:#000000;fill-opacity:1;stroke:none;stroke-opacity:1"
         id="path4767"
         inkscape:connector-curvature="0" />
      <path
         d="m 701.5,468.98718 a 1.5,1.375 0 1 1 -3,0 1.5,1.375 0 1 1 3,0 z"
         transform="matrix(0.84326,0.485035,-0.485151,0.843058,276.2324,-293.4401)"
         style="fill:#000000;fill-opacity:1;stroke:none;stroke-opacity:1"
         id="path4769"
         inkscape:connector-curvature="0" />
      <path
         d="m 701.5,468.98718 a 1.5,1.375 0 1 1 -3,0 1.5,1.375 0 1 1 3,0 z"
         transform="matrix(0.84326,0.485035,-0.485151,0.843058,280.4073,-294.5652)"
         style="fill:#000000;fill-opacity:1;stroke:none;stroke-opacity:1"
         id="path4771"
         inkscape:connector-curvature="0" />
      <path
         d="m 701.5,468.98718 a 1.5,1.375 0 1 1 -3,0 1.5,1.375 0 1 1 3,0 z"
         transform="matrix(0.84326,0.485035,-0.485151,0.843058,274.2353,-297.9394)"
         style="fill:#000000;fill-opacity:1;stroke:none;stroke-opacity:1"
         id="path4773"
         inkscape:connector-curvature="0" />
      <path
         d="m 701.5,468.98718 a 1.5,1.375 0 1 1 -3,0 1.5,1.375 0 1 1 3,0 z"
         transform="matrix(0.84326,0.485035,-0.485151,0.843058,268.7895,-301.4463)"
         style="fill:#000000;fill-opacity:1;stroke:none;stroke-opacity:1"
         id="path4775"
         inkscape:connector-curvature="0" />
      <path
         d="m 701.5,468.98718 a 1.5,1.375 0 1 1 -3,0 1.5,1.375 0 1 1 3,0 z"
         transform="matrix(0.84326,0.485035,-0.485151,0.843058,269.9152,-297.2723)"
         style="fill:#000000;fill-opacity:1;stroke:none;stroke-opacity:1"
         id="path4777"
         inkscape:connector-curvature="0" />
      <path
         d="m 701.5,468.98718 a 1.5,1.375 0 1 1 -3,0 1.5,1.375 0 1 1 3,0 z"
         transform="matrix(0.84326,0.485035,-0.485151,0.843058,271.4398,-299.922)"
         style="fill:#000000;fill-opacity:1;stroke:none;stroke-opacity:1"
         id="path4779"
         inkscape:connector-curvature="0" />
      <path
         d="m 701.5,468.98718 a 1.5,1.375 0 1 1 -3,0 1.5,1.375 0 1 1 3,0 z"
         transform="matrix(0.84326,0.485035,-0.485151,0.843058,275.6149,-301.0471)"
         style="fill:#000000;fill-opacity:1;stroke:none;stroke-opacity:1"
         id="path4781"
         inkscape:connector-curvature="0" />
      <path
         d="m 701.5,468.98718 a 1.5,1.375 0 1 1 -3,0 1.5,1.375 0 1 1 3,0 z"
         transform="matrix(0.84326,0.485035,-0.485151,0.843058,269.4428,-304.4214)"
         style="fill:#000000;fill-opacity:1;stroke:none;stroke-opacity:1"
         id="path4783"
         inkscape:connector-curvature="0" />
      <path
         d="m 701.5,468.98718 a 1.5,1.375 0 1 1 -3,0 1.5,1.375 0 1 1 3,0 z"
         transform="matrix(0.955991,0.180344,-0.180387,0.955762,40.95135,-146.5273)"
         style="fill:#000000;fill-opacity:1;stroke:none;stroke-opacity:1"
         id="path4785"
         inkscape:connector-curvature="0" />
      <path
         d="m 701.5,468.98718 a 1.5,1.375 0 1 1 -3,0 1.5,1.375 0 1 1 3,0 z"
         transform="matrix(0.955991,0.180344,-0.180387,0.955762,43.38899,-142.9568)"
         style="fill:#000000;fill-opacity:1;stroke:none;stroke-opacity:1"
         id="path4787"
         inkscape:connector-curvature="0" />
      <path
         d="m 701.5,468.98718 a 1.5,1.375 0 1 1 -3,0 1.5,1.375 0 1 1 3,0 z"
         transform="matrix(0.955991,0.180344,-0.180387,0.955762,43.95586,-145.9607)"
         style="fill:#000000;fill-opacity:1;stroke:none;stroke-opacity:1"
         id="path4789"
         inkscape:connector-curvature="0" />
      <path
         d="m 701.5,468.98718 a 1.5,1.375 0 1 1 -3,0 1.5,1.375 0 1 1 3,0 z"
         transform="matrix(0.955991,0.180344,-0.180387,0.955762,47.5274,-148.3976)"
         style="fill:#000000;fill-opacity:1;stroke:none;stroke-opacity:1"
         id="path4791"
         inkscape:connector-curvature="0" />
      <path
         d="m 701.5,468.98718 a 1.5,1.375 0 1 1 -3,0 1.5,1.375 0 1 1 3,0 z"
         transform="matrix(0.955991,0.180344,-0.180387,0.955762,40.58811,-149.5515)"
         style="fill:#000000;fill-opacity:1;stroke:none;stroke-opacity:1"
         id="path4793"
         inkscape:connector-curvature="0" />
      <path
         d="m 701.5,468.98718 a 1.5,1.375 0 1 1 -3,0 1.5,1.375 0 1 1 3,0 z"
         transform="matrix(0.472488,0.850216,-0.850419,0.472375,698.4975,-370.4767)"
         style="fill:#000000;fill-opacity:1;stroke:none;stroke-opacity:1"
         id="path4795"
         inkscape:connector-curvature="0" />
      <path
         d="m 701.5,468.98718 a 1.5,1.375 0 1 1 -3,0 1.5,1.375 0 1 1 3,0 z"
         transform="matrix(0.472488,0.850216,-0.850419,0.472375,698.8759,-370.3587)"
         style="fill:#000000;fill-opacity:1;stroke:none;stroke-opacity:1"
         id="path4797"
         inkscape:connector-curvature="0" />
      <path
         d="m 701.5,468.98718 a 1.5,1.375 0 1 1 -3,0 1.5,1.375 0 1 1 3,0 z"
         transform="matrix(0.472488,0.850216,-0.850419,0.472375,697.6882,-366.2021)"
         style="fill:#000000;fill-opacity:1;stroke:none;stroke-opacity:1"
         id="path4799"
         inkscape:connector-curvature="0" />
      <path
         d="m 701.5,468.98718 a 1.5,1.375 0 1 1 -3,0 1.5,1.375 0 1 1 3,0 z"
         transform="matrix(0.472488,0.850216,-0.850419,0.472375,700.361,-367.6866)"
         style="fill:#000000;fill-opacity:1;stroke:none;stroke-opacity:1"
         id="path4801"
         inkscape:connector-curvature="0" />
      <path
         d="m 701.5,468.98718 a 1.5,1.375 0 1 1 -3,0 1.5,1.375 0 1 1 3,0 z"
         transform="matrix(0.472488,0.850216,-0.850419,0.472375,704.5186,-366.4992)"
         style="fill:#000000;fill-opacity:1;stroke:none;stroke-opacity:1"
         id="path4803"
         inkscape:connector-curvature="0" />
      <path
         d="m 701.5,468.98718 a 1.5,1.375 0 1 1 -3,0 1.5,1.375 0 1 1 3,0 z"
         transform="matrix(0.472488,0.850216,-0.850419,0.472375,700.9696,-372.5713)"
         style="fill:#000000;fill-opacity:1;stroke:none;stroke-opacity:1"
         id="path4805"
         inkscape:connector-curvature="0" />
      <path
         d="m 701.5,468.98718 a 1.5,1.375 0 1 1 -3,0 1.5,1.375 0 1 1 3,0 z"
         transform="matrix(0.472488,0.850216,-0.850419,0.472375,697.4971,-374.6083)"
         style="fill:#000000;fill-opacity:1;stroke:none;stroke-opacity:1"
         id="path4807"
         inkscape:connector-curvature="0" />
      <path
         d="m 701.5,468.98718 a 1.5,1.375 0 1 1 -3,0 1.5,1.375 0 1 1 3,0 z"
         transform="matrix(0.726191,0.647227,-0.647382,0.726017,430.8238,-339.6242)"
         style="fill:#000000;fill-opacity:1;stroke:none;stroke-opacity:1"
         id="path4811"
         inkscape:connector-curvature="0" />
      <path
         d="m 701.5,468.98718 a 1.5,1.375 0 1 1 -3,0 1.5,1.375 0 1 1 3,0 z"
         transform="matrix(0.726191,0.647227,-0.647382,0.726017,431.1271,-347.1115)"
         style="fill:#000000;fill-opacity:1;stroke:none;stroke-opacity:1"
         id="path4813"
         inkscape:connector-curvature="0" />
      <path
         d="m 701.5,468.98718 a 1.5,1.375 0 1 1 -3,0 1.5,1.375 0 1 1 3,0 z"
         transform="matrix(0.472488,0.850216,-0.850419,0.472375,693.3639,-380.8892)"
         style="fill:#000000;fill-opacity:1;stroke:none;stroke-opacity:1"
         id="path4815"
         inkscape:connector-curvature="0" />
      <path
         d="m 701.5,468.98718 a 1.5,1.375 0 1 1 -3,0 1.5,1.375 0 1 1 3,0 z"
         transform="matrix(0.472488,0.850216,-0.850419,0.472375,696.8036,-381.2713)"
         style="fill:#000000;fill-opacity:1;stroke:none;stroke-opacity:1"
         id="path4817"
         inkscape:connector-curvature="0" />
      <path
         d="m 701.5,468.98718 a 1.5,1.375 0 1 1 -3,0 1.5,1.375 0 1 1 3,0 z"
         transform="matrix(0.472488,0.850216,-0.850419,0.472375,700.4345,-376.304)"
         style="fill:#000000;fill-opacity:1;stroke:none;stroke-opacity:1"
         id="path4819"
         inkscape:connector-curvature="0" />
      <path
         d="m 701.5,468.98718 a 1.5,1.375 0 1 1 -3,0 1.5,1.375 0 1 1 3,0 z"
         transform="matrix(0.472488,0.850216,-0.850419,0.472375,697.3769,-378.2145)"
         style="fill:#000000;fill-opacity:1;stroke:none;stroke-opacity:1"
         id="path4821"
         inkscape:connector-curvature="0" />
      <g
         transform="matrix(1.528781,0,0,1.528414,-437.9973,-226.1755)"
         id="g4827">
        <path
           d="m 758.75,431.23718 c 0,3.243 -1.63539,5.875 -3.125,5.875 -1.48961,0 -4.875,-2.632 -4.875,-5.875 0,-3.243 2.559,-5.875 4.125,-5.875 1.566,0 3.875,2.632 3.875,5.875 z"
           style="fill:none;fill-opacity:1;stroke:#ff8000;stroke-width:0.65419447;stroke-opacity:1"
           id="path4663"
           inkscape:connector-curvature="0" />
        <path
           d="m 755.77525,428.52404 c -0.0401,1.52197 -0.53678,2.72758 -0.95954,2.7006 -0.42277,-0.027 -1.35104,-1.32351 -1.31094,-2.8455 0.0401,-1.52197 0.79891,-2.71085 1.24335,-2.68249 0.44446,0.0284 1.06723,1.30541 1.02713,2.82739 z"
           style="fill:none;fill-opacity:1;stroke:#ff8000;stroke-width:0.65419436;stroke-opacity:1"
           id="path4823"
           inkscape:connector-curvature="0" />
        <path
           d="m 755.95643,434.20986 c 0.61427,0.7932 0.73516,1.76506 0.39117,2.0639 -0.34399,0.29885 -1.6243,0.33428 -2.23858,-0.45892 -0.61427,-0.7932 -0.52188,-1.95034 -0.16025,-2.26452 0.36163,-0.31417 1.39338,-0.13366 2.00766,0.65954 z"
           style="fill:none;fill-opacity:1;stroke:#ff8000;stroke-width:0.65419495;stroke-opacity:1"
           id="path4825"
           inkscape:connector-curvature="0" />
      </g>
      <g
         transform="matrix(1.207708,0.937118,-0.937343,1.207418,190.5866,-734.2858)"
         id="g4834">
        <path
           d="m 758.75,431.23718 c 0,3.243 -1.63539,5.875 -3.125,5.875 -1.48961,0 -4.875,-2.632 -4.875,-5.875 0,-3.243 2.559,-5.875 4.125,-5.875 1.566,0 3.875,2.632 3.875,5.875 z"
           style="fill:none;fill-opacity:1;stroke:#ff8000;stroke-width:0.65419447;stroke-opacity:1"
           id="path4836"
           inkscape:connector-curvature="0" />
        <path
           d="m 755.77525,428.52404 c -0.0401,1.52197 -0.53678,2.72758 -0.95954,2.7006 -0.42277,-0.027 -1.35104,-1.32351 -1.31094,-2.8455 0.0401,-1.52197 0.79891,-2.71085 1.24335,-2.68249 0.44446,0.0284 1.06723,1.30541 1.02713,2.82739 z"
           style="fill:none;fill-opacity:1;stroke:#ff8000;stroke-width:0.65419436;stroke-opacity:1"
           id="path4838"
           inkscape:connector-curvature="0" />
        <path
           d="m 755.95643,434.20986 c 0.61427,0.7932 0.73516,1.76506 0.39117,2.0639 -0.34399,0.29885 -1.6243,0.33428 -2.23858,-0.45892 -0.61427,-0.7932 -0.52188,-1.95034 -0.16025,-2.26452 0.36163,-0.31417 1.39338,-0.13366 2.00766,0.65954 z"
           style="fill:none;fill-opacity:1;stroke:#ff8000;stroke-width:0.65419495;stroke-opacity:1"
           id="path4840"
           inkscape:connector-curvature="0" />
      </g>
      <g
         transform="matrix(0.342114,-1.489652,1.490009,0.342032,-307.5965,1445.807)"
         id="g4842">
        <path
           d="m 758.75,431.23718 c 0,3.243 -1.63539,5.875 -3.125,5.875 -1.48961,0 -4.875,-2.632 -4.875,-5.875 0,-3.243 2.559,-5.875 4.125,-5.875 1.566,0 3.875,2.632 3.875,5.875 z"
           style="fill:none;fill-opacity:1;stroke:#ff8000;stroke-width:0.65419447;stroke-opacity:1"
           id="path4844"
           inkscape:connector-curvature="0" />
        <path
           d="m 755.77525,428.52404 c -0.0401,1.52197 -0.53678,2.72758 -0.95954,2.7006 -0.42277,-0.027 -1.35104,-1.32351 -1.31094,-2.8455 0.0401,-1.52197 0.79891,-2.71085 1.24335,-2.68249 0.44446,0.0284 1.06723,1.30541 1.02713,2.82739 z"
           style="fill:none;fill-opacity:1;stroke:#ff8000;stroke-width:0.65419436;stroke-opacity:1"
           id="path4846"
           inkscape:connector-curvature="0" />
        <path
           d="m 755.95643,434.20986 c 0.61427,0.7932 0.73516,1.76506 0.39117,2.0639 -0.34399,0.29885 -1.6243,0.33428 -2.23858,-0.45892 -0.61427,-0.7932 -0.52188,-1.95034 -0.16025,-2.26452 0.36163,-0.31417 1.39338,-0.13366 2.00766,0.65954 z"
           style="fill:none;fill-opacity:1;stroke:#ff8000;stroke-width:0.65419495;stroke-opacity:1"
           id="path4848"
           inkscape:connector-curvature="0" />
      </g>
      <g
         transform="matrix(-1.517378,0.186331,-0.186375,-1.517014,1835.307,1016.56)"
         id="g4850">
        <path
           d="m 758.75,431.23718 c 0,3.243 -1.63539,5.875 -3.125,5.875 -1.48961,0 -4.875,-2.632 -4.875,-5.875 0,-3.243 2.559,-5.875 4.125,-5.875 1.566,0 3.875,2.632 3.875,5.875 z"
           style="fill:none;fill-opacity:1;stroke:#ff8000;stroke-width:0.65419447;stroke-opacity:1"
           id="path4852"
           inkscape:connector-curvature="0" />
        <path
           d="m 755.77525,428.52404 c -0.0401,1.52197 -0.53678,2.72758 -0.95954,2.7006 -0.42277,-0.027 -1.35104,-1.32351 -1.31094,-2.8455 0.0401,-1.52197 0.79891,-2.71085 1.24335,-2.68249 0.44446,0.0284 1.06723,1.30541 1.02713,2.82739 z"
           style="fill:none;fill-opacity:1;stroke:#ff8000;stroke-width:0.65419436;stroke-opacity:1"
           id="path4854"
           inkscape:connector-curvature="0" />
        <path
           d="m 755.95643,434.20986 c 0.61427,0.7932 0.73516,1.76506 0.39117,2.0639 -0.34399,0.29885 -1.6243,0.33428 -2.23858,-0.45892 -0.61427,-0.7932 -0.52188,-1.95034 -0.16025,-2.26452 0.36163,-0.31417 1.39338,-0.13366 2.00766,0.65954 z"
           style="fill:none;fill-opacity:1;stroke:#ff8000;stroke-width:0.65419495;stroke-opacity:1"
           id="path4856"
           inkscape:connector-curvature="0" />
      </g>
      <g
         transform="matrix(-1.340401,-0.735007,0.735183,-1.34008,1286.07,1551.415)"
         id="g4858">
        <path
           d="m 758.75,431.23718 c 0,3.243 -1.63539,5.875 -3.125,5.875 -1.48961,0 -4.875,-2.632 -4.875,-5.875 0,-3.243 2.559,-5.875 4.125,-5.875 1.566,0 3.875,2.632 3.875,5.875 z"
           style="fill:none;fill-opacity:1;stroke:#ff8000;stroke-width:0.65419447;stroke-opacity:1"
           id="path4860"
           inkscape:connector-curvature="0" />
        <path
           d="m 755.77525,428.52404 c -0.0401,1.52197 -0.53678,2.72758 -0.95954,2.7006 -0.42277,-0.027 -1.35104,-1.32351 -1.31094,-2.8455 0.0401,-1.52197 0.79891,-2.71085 1.24335,-2.68249 0.44446,0.0284 1.06723,1.30541 1.02713,2.82739 z"
           style="fill:none;fill-opacity:1;stroke:#ff8000;stroke-width:0.65419436;stroke-opacity:1"
           id="path4862"
           inkscape:connector-curvature="0" />
        <path
           d="m 755.95643,434.20986 c 0.61427,0.7932 0.73516,1.76506 0.39117,2.0639 -0.34399,0.29885 -1.6243,0.33428 -2.23858,-0.45892 -0.61427,-0.7932 -0.52188,-1.95034 -0.16025,-2.26452 0.36163,-0.31417 1.39338,-0.13366 2.00766,0.65954 z"
           style="fill:none;fill-opacity:1;stroke:#ff8000;stroke-width:0.65419495;stroke-opacity:1"
           id="path4864"
           inkscape:connector-curvature="0" />
      </g>
      <path
         d="m 663.46597,369.32868 c 3.25287,1.43159 5.12348,4.13258 4.42265,5.5345 -0.70083,1.40192 -4.9336,3.42616 -8.18649,1.99456 -3.25288,-1.43159 -4.68894,-5.00182 -3.95217,-6.47563 0.73677,-1.47381 4.46313,-2.48502 7.71601,-1.05343 z"
         style="fill:none;fill-opacity:1;stroke:#ff8000;stroke-width:1;stroke-opacity:1"
         id="path4868"
         inkscape:connector-curvature="0" />
      <path
         d="m 659.345,370.93062 c 1.50775,0.70961 2.48335,1.70925 2.25739,2.09522 -0.22597,0.38597 -1.96318,0.68725 -3.47094,-0.0224 -1.50775,-0.70959 -2.34324,-1.94855 -2.10569,-2.35431 0.23756,-0.40577 1.81149,-0.42815 3.31924,0.28145 z"
         style="fill:none;fill-opacity:1;stroke:#ff8000;stroke-width:0.99999976;stroke-opacity:1"
         id="path4870"
         inkscape:connector-curvature="0" />
      <path
         d="m 665.13339,373.27006 c 1.08462,-0.22796 2.11632,0.0873 2.25423,0.54294 0.13792,0.45567 -0.42891,1.67625 -1.51352,1.90422 -1.08463,0.22796 -2.20182,-0.3698 -2.34682,-0.84883 -0.14499,-0.47903 0.52149,-1.37036 1.60611,-1.59833 z"
         style="fill:none;fill-opacity:1;stroke:#ff8000;stroke-width:1.00000072;stroke-opacity:1"
         id="path4872"
         inkscape:connector-curvature="0" />
      <path
         d="m 684.3297,406.08354 h 73.52819"
         style="fill:none;fill-rule:evenodd;stroke:#000000;stroke-width:1px;stroke-linecap:butt;stroke-linejoin:miter;stroke-opacity:1;marker-start:url(#Arrow1Mstart)"
         id="path4912"
         inkscape:connector-curvature="0"
         sodipodi:nodetypes="cc" />
      <text
         x="764.00854"
         y="411.89877"
         style="font-style:normal;font-weight:normal;font-size:16.00001144px;line-height:0%;font-family:'Bitstream Vera Sans';text-align:start;text-anchor:start;fill:#000000;fill-opacity:1;stroke:none;stroke-width:1px;stroke-linecap:butt;stroke-linejoin:miter;stroke-opacity:1"
         id="text4914"
         xml:space="preserve"><tspan
           x="764.00854"
           y="411.89877"
           id="tspan4916">Nucleus</tspan></text>
      <path
         d="m 557.97549,373.36218 h 46.10694"
         style="fill:none;fill-rule:evenodd;stroke:#000000;stroke-width:0.99999946px;stroke-linecap:butt;stroke-linejoin:miter;stroke-opacity:1;marker-end:url(#marker1295)"
         id="path5457"
         inkscape:connector-curvature="0" />
      <text
         x="466.47183"
         y="377.815"
         style="font-style:normal;font-weight:normal;font-size:16px;line-height:0%;font-family:'Bitstream Vera Sans';text-align:start;text-anchor:start;fill:#000000;fill-opacity:1;stroke:none;stroke-width:1px;stroke-linecap:butt;stroke-linejoin:miter;stroke-opacity:1"
         id="text5459"
         xml:space="preserve"><tspan
           x="466.47183"
           y="377.815"
           id="tspan5461">Membrane</tspan></text>
      <path
         d="m 505.68471,409.31945 h 46.10694"
         style="fill:none;fill-rule:evenodd;stroke:#000000;stroke-width:0.99999946px;stroke-linecap:butt;stroke-linejoin:miter;stroke-opacity:1;marker-end:url(#Arrow1Mend)"
         id="path5491"
         inkscape:connector-curvature="0" />
      <text
         x="466.7193"
         y="408.58829"
         style="font-style:normal;font-weight:normal;font-size:16px;line-height:0%;font-family:'Bitstream Vera Sans';text-align:start;text-anchor:start;fill:#000000;fill-opacity:1;stroke:none;stroke-width:1px;stroke-linecap:butt;stroke-linejoin:miter;stroke-opacity:1"
         id="text5494"
         xml:space="preserve"><tspan
           x="466.7193"
           y="408.58829"
           id="tspan5496">Cell</tspan><tspan
           x="466.7193"
           y="428.58829"
           id="tspan5498">Wall</tspan></text>
      <path
         d="M 648.92279,446.17505 H 765.30914"
         style="fill:none;fill-rule:evenodd;stroke:#000000;stroke-width:1px;stroke-linecap:butt;stroke-linejoin:miter;stroke-opacity:1;marker-start:url(#Arrow1Mstart-7)"
         id="path4912-3"
         inkscape:connector-curvature="0"
         sodipodi:nodetypes="cc" />
      <text
         x="769.76483"
         y="443.99506"
         style="font-style:normal;font-weight:normal;font-size:16.00001144px;line-height:0%;font-family:'Bitstream Vera Sans';text-align:start;text-anchor:start;fill:#000000;fill-opacity:1;stroke:none;stroke-width:1px;stroke-linecap:butt;stroke-linejoin:miter;stroke-opacity:1"
         id="text4914-8"
         xml:space="preserve"><tspan
           x="769.76483"
           y="443.99506"
           id="tspan4916-0">Chromosome </tspan></text>
      <text
         x="770.55188"
         y="461.49976"
         style="font-style:normal;font-weight:normal;font-size:16.00001144px;line-height:0%;font-family:'Bitstream Vera Sans';text-align:start;text-anchor:start;fill:#000000;fill-opacity:1;stroke:none;stroke-width:1px;stroke-linecap:butt;stroke-linejoin:miter;stroke-opacity:1"
         id="text4914-8-2"
         xml:space="preserve"><tspan
           x="770.55188"
           y="461.49976"
           id="tspan4916-0-4">with DNA</tspan></text>
    </g>
  </g>
</svg>
